<svg xmlns="http://www.w3.org/2000/svg" width="54" height="61" fill="none" viewBox="0 0 54 61"><g filter="url(#filter0_f)" opacity=".15"><path fill="url(#paint0_linear)" d="M40.7975 12.6041V11.6041H40.6261L40.4644 11.6612L40.7975 12.6041ZM46.5575 12.6041H47.5575V11.6041H46.5575V12.6041ZM46.5575 46.2041V47.2041H47.5575V46.2041H46.5575ZM39.9335 46.2041H38.9335V47.2041H39.9335V46.2041ZM39.9335 19.6121H40.9335V18.2933L39.6636 18.6492L39.9335 19.6121ZM33.5975 21.3881L32.6366 21.665L32.9115 22.6189L33.8674 22.351L33.5975 21.3881ZM31.9655 15.7241L31.6324 14.7812L30.7436 15.0952L31.0046 16.001L31.9655 15.7241ZM40.7975 13.6041H46.5575V11.6041H40.7975V13.6041ZM45.5575 12.6041V46.2041H47.5575V12.6041H45.5575ZM46.5575 45.2041H39.9335V47.2041H46.5575V45.2041ZM40.9335 46.2041V19.6121H38.9335V46.2041H40.9335ZM39.6636 18.6492L33.3276 20.4252L33.8674 22.351L40.2034 20.575L39.6636 18.6492ZM34.5584 21.1112L32.9264 15.4472L31.0046 16.001L32.6366 21.665L34.5584 21.1112ZM32.2986 16.667L41.1306 13.547L40.4644 11.6612L31.6324 14.7812L32.2986 16.667Z"/></g><path fill="url(#paint1_linear)" d="M40.7975 12.6041H46.5575V46.2041H39.9335V19.6121L33.5975 21.3881L31.9655 15.7241L40.7975 12.6041Z" opacity=".05"/><path fill="url(#paint2_linear)" fill-opacity=".5" d="M40.7975 12.6041V11.6041H40.6261L40.4644 11.6612L40.7975 12.6041ZM46.5575 12.6041H47.5575V11.6041H46.5575V12.6041ZM46.5575 46.2041V47.2041H47.5575V46.2041H46.5575ZM39.9335 46.2041H38.9335V47.2041H39.9335V46.2041ZM39.9335 19.6121H40.9335V18.2933L39.6636 18.6492L39.9335 19.6121ZM33.5975 21.3881L32.6366 21.665L32.9115 22.6189L33.8674 22.351L33.5975 21.3881ZM31.9655 15.7241L31.6324 14.7812L30.7436 15.0952L31.0046 16.001L31.9655 15.7241ZM40.7975 13.6041H46.5575V11.6041H40.7975V13.6041ZM45.5575 12.6041V46.2041H47.5575V12.6041H45.5575ZM46.5575 45.2041H39.9335V47.2041H46.5575V45.2041ZM40.9335 46.2041V19.6121H38.9335V46.2041H40.9335ZM39.6636 18.6492L33.3276 20.4252L33.8674 22.351L40.2034 20.575L39.6636 18.6492ZM34.5584 21.1112L32.9264 15.4472L31.0046 16.001L32.6366 21.665L34.5584 21.1112ZM32.2986 16.667L41.1306 13.547L40.4644 11.6612L31.6324 14.7812L32.2986 16.667Z" opacity=".5"/><defs><filter id="filter0_f" width="28.814" height="47.6" x="24.744" y="5.604" color-interpolation-filters="sRGB" filterUnits="userSpaceOnUse"><feFlood flood-opacity="0" result="BackgroundImageFix"/><feBlend in="SourceGraphic" in2="BackgroundImageFix" mode="normal" result="shape"/><feGaussianBlur result="effect1_foregroundBlur" stdDeviation="3"/></filter><linearGradient id="paint0_linear" x1="0" x2="52.295" y1=".204" y2="2.276" gradientUnits="userSpaceOnUse"><stop stop-color="#C86FE5"/><stop offset="1" stop-color="#7237A1"/></linearGradient><linearGradient id="paint1_linear" x1="0" x2="52.295" y1=".204" y2="2.276" gradientUnits="userSpaceOnUse"><stop stop-color="#C86FE5"/><stop offset="1" stop-color="#7237A1"/></linearGradient><linearGradient id="paint2_linear" x1="0" x2="52.295" y1=".204" y2="2.276" gradientUnits="userSpaceOnUse"><stop stop-color="#C86FE5"/><stop offset="1" stop-color="#7237A1"/></linearGradient></defs></svg>