<svg width="57" height="61" viewBox="0 0 57 61" fill="none" xmlns="http://www.w3.org/2000/svg">
<g opacity="0.15" filter="url(#filter0_f)">
<path d="M49.3243 34.3481H50.3243V33.3481H49.3243V34.3481ZM49.3243 40.4921V41.4921H50.3243V40.4921H49.3243ZM45.7243 40.4921V39.4921H44.7243V40.4921H45.7243ZM45.7243 46.2041V47.2041H46.7243V46.2041H45.7243ZM39.0522 46.2041H38.0522V47.2041H39.0522V46.2041ZM39.0522 40.4921H40.0522V39.4921H39.0522V40.4921ZM23.1642 40.4921H22.1642V41.4921H23.1642V40.4921ZM23.1642 34.3481L22.275 33.8907L22.1642 34.106V34.3481H23.1642ZM34.3483 12.6041V11.6041H33.7381L33.459 12.1467L34.3483 12.6041ZM41.4523 12.6041L42.3423 13.0599L43.0879 11.6041H41.4523V12.6041ZM30.3162 34.3481L29.4262 33.8923L28.6806 35.3481H30.3162V34.3481ZM39.0522 34.3481V35.3481H40.0522V34.3481H39.0522ZM39.0522 26.3801V25.3801H38.0522V26.3801H39.0522ZM45.7243 26.3801H46.7243V25.3801H45.7243V26.3801ZM45.7243 34.3481H44.7243V35.3481H45.7243V34.3481ZM48.3243 34.3481V40.4921H50.3243V34.3481H48.3243ZM49.3243 39.4921H45.7243V41.4921H49.3243V39.4921ZM44.7243 40.4921V46.2041H46.7243V40.4921H44.7243ZM45.7243 45.2041H39.0522V47.2041H45.7243V45.2041ZM40.0522 46.2041V40.4921H38.0522V46.2041H40.0522ZM39.0522 39.4921H23.1642V41.4921H39.0522V39.4921ZM24.1642 40.4921V34.3481H22.1642V40.4921H24.1642ZM24.0535 34.8055L35.2375 13.0615L33.459 12.1467L22.275 33.8907L24.0535 34.8055ZM34.3483 13.6041H41.4523V11.6041H34.3483V13.6041ZM40.5622 12.1483L29.4262 33.8923L31.2063 34.8039L42.3423 13.0599L40.5622 12.1483ZM30.3162 35.3481H39.0522V33.3481H30.3162V35.3481ZM40.0522 34.3481V26.3801H38.0522V34.3481H40.0522ZM39.0522 27.3801H45.7243V25.3801H39.0522V27.3801ZM44.7243 26.3801V34.3481H46.7243V26.3801H44.7243ZM45.7243 35.3481H49.3243V33.3481H45.7243V35.3481Z" fill="url(#paint0_linear)"/>
</g>
<path opacity="0.05" d="M49.3243 34.3481V40.4921H45.7243V46.2041H39.0523V40.4921H23.1643V34.3481L34.3483 12.6041H41.4523L30.3163 34.3481H39.0523V26.3801H45.7243V34.3481H49.3243Z" fill="url(#paint1_linear)"/>
<path opacity="0.5" d="M49.3243 34.3481H50.3243V33.3481H49.3243V34.3481ZM49.3243 40.4921V41.4921H50.3243V40.4921H49.3243ZM45.7243 40.4921V39.4921H44.7243V40.4921H45.7243ZM45.7243 46.2041V47.2041H46.7243V46.2041H45.7243ZM39.0522 46.2041H38.0522V47.2041H39.0522V46.2041ZM39.0522 40.4921H40.0522V39.4921H39.0522V40.4921ZM23.1642 40.4921H22.1642V41.4921H23.1642V40.4921ZM23.1642 34.3481L22.275 33.8907L22.1642 34.106V34.3481H23.1642ZM34.3483 12.6041V11.6041H33.7381L33.459 12.1467L34.3483 12.6041ZM41.4523 12.6041L42.3423 13.0599L43.0879 11.6041H41.4523V12.6041ZM30.3162 34.3481L29.4262 33.8923L28.6806 35.3481H30.3162V34.3481ZM39.0522 34.3481V35.3481H40.0522V34.3481H39.0522ZM39.0522 26.3801V25.3801H38.0522V26.3801H39.0522ZM45.7243 26.3801H46.7243V25.3801H45.7243V26.3801ZM45.7243 34.3481H44.7243V35.3481H45.7243V34.3481ZM48.3243 34.3481V40.4921H50.3243V34.3481H48.3243ZM49.3243 39.4921H45.7243V41.4921H49.3243V39.4921ZM44.7243 40.4921V46.2041H46.7243V40.4921H44.7243ZM45.7243 45.2041H39.0522V47.2041H45.7243V45.2041ZM40.0522 46.2041V40.4921H38.0522V46.2041H40.0522ZM39.0522 39.4921H23.1642V41.4921H39.0522V39.4921ZM24.1642 40.4921V34.3481H22.1642V40.4921H24.1642ZM24.0535 34.8055L35.2375 13.0615L33.459 12.1467L22.275 33.8907L24.0535 34.8055ZM34.3483 13.6041H41.4523V11.6041H34.3483V13.6041ZM40.5622 12.1483L29.4262 33.8923L31.2063 34.8039L42.3423 13.0599L40.5622 12.1483ZM30.3162 35.3481H39.0522V33.3481H30.3162V35.3481ZM40.0522 34.3481V26.3801H38.0522V34.3481H40.0522ZM39.0522 27.3801H45.7243V25.3801H39.0522V27.3801ZM44.7243 26.3801V34.3481H46.7243V26.3801H44.7243ZM45.7243 35.3481H49.3243V33.3481H45.7243V35.3481Z" fill="url(#paint2_linear)" fill-opacity="0.5"/>
<defs>
<filter id="filter0_f" x="16.1643" y="5.60449" width="40.16" height="47.6" filterUnits="userSpaceOnUse" color-interpolation-filters="sRGB">
<feFlood flood-opacity="0" result="BackgroundImageFix"/>
<feBlend mode="normal" in="SourceGraphic" in2="BackgroundImageFix" result="shape"/>
<feGaussianBlur stdDeviation="3" result="effect1_foregroundBlur"/>
</filter>
<linearGradient id="paint0_linear" x1="0" y1="0.204102" x2="52.295" y2="2.27591" gradientUnits="userSpaceOnUse">
<stop stop-color="#C86FE5"/>
<stop offset="1" stop-color="#7237A1"/>
</linearGradient>
<linearGradient id="paint1_linear" x1="0" y1="0.204102" x2="52.295" y2="2.27591" gradientUnits="userSpaceOnUse">
<stop stop-color="#C86FE5"/>
<stop offset="1" stop-color="#7237A1"/>
</linearGradient>
<linearGradient id="paint2_linear" x1="0" y1="0.204102" x2="52.295" y2="2.27591" gradientUnits="userSpaceOnUse">
<stop stop-color="#C86FE5"/>
<stop offset="1" stop-color="#7237A1"/>
</linearGradient>
</defs>
</svg>
