<svg width="56" height="61" viewBox="0 0 56 61" fill="none" xmlns="http://www.w3.org/2000/svg">
<g opacity="0.15" filter="url(#filter0_f)">
<path d="M27.0928 12.6041V11.6041H26.0928V12.6041H27.0928ZM48.7887 12.6041H49.7887V11.6041H48.7887V12.6041ZM48.7887 18.2201L49.7151 18.5967L49.7887 18.4156V18.2201H48.7887ZM37.4128 46.2041V47.2041H38.0857L38.3391 46.5807L37.4128 46.2041ZM30.4048 46.2041L29.4779 45.8288L28.9209 47.2041H30.4048V46.2041ZM41.4448 18.9401L42.3716 19.3154L42.9286 17.9401H41.4448V18.9401ZM27.0928 18.9401H26.0928V19.9401H27.0928V18.9401ZM27.0928 13.6041H48.7887V11.6041H27.0928V13.6041ZM47.7887 12.6041V18.2201H49.7887V12.6041H47.7887ZM47.8624 17.8435L36.4864 45.8275L38.3391 46.5807L49.7151 18.5967L47.8624 17.8435ZM37.4128 45.2041H30.4048V47.2041H37.4128V45.2041ZM31.3316 46.5794L42.3716 19.3154L40.5179 18.5648L29.4779 45.8288L31.3316 46.5794ZM41.4448 17.9401H27.0928V19.9401H41.4448V17.9401ZM28.0928 18.9401V12.6041H26.0928V18.9401H28.0928Z" fill="url(#paint0_linear)"/>
</g>
<path opacity="0.05" d="M27.0928 12.6041H48.7888V18.2201L37.4128 46.2041H30.4048L41.4448 18.9401H27.0928V12.6041Z" fill="url(#paint1_linear)"/>
<path opacity="0.5" d="M27.0928 12.6041V11.6041H26.0928V12.6041H27.0928ZM48.7887 12.6041H49.7887V11.6041H48.7887V12.6041ZM48.7887 18.2201L49.7151 18.5967L49.7887 18.4156V18.2201H48.7887ZM37.4128 46.2041V47.2041H38.0857L38.3391 46.5807L37.4128 46.2041ZM30.4048 46.2041L29.4779 45.8288L28.9209 47.2041H30.4048V46.2041ZM41.4448 18.9401L42.3716 19.3154L42.9286 17.9401H41.4448V18.9401ZM27.0928 18.9401H26.0928V19.9401H27.0928V18.9401ZM27.0928 13.6041H48.7887V11.6041H27.0928V13.6041ZM47.7887 12.6041V18.2201H49.7887V12.6041H47.7887ZM47.8624 17.8435L36.4864 45.8275L38.3391 46.5807L49.7151 18.5967L47.8624 17.8435ZM37.4128 45.2041H30.4048V47.2041H37.4128V45.2041ZM31.3316 46.5794L42.3716 19.3154L40.5179 18.5648L29.4779 45.8288L31.3316 46.5794ZM41.4448 17.9401H27.0928V19.9401H41.4448V17.9401ZM28.0928 18.9401V12.6041H26.0928V18.9401H28.0928Z" fill="url(#paint2_linear)" fill-opacity="0.5"/>
<defs>
<filter id="filter0_f" x="20.0928" y="5.60449" width="35.696" height="47.6" filterUnits="userSpaceOnUse" color-interpolation-filters="sRGB">
<feFlood flood-opacity="0" result="BackgroundImageFix"/>
<feBlend mode="normal" in="SourceGraphic" in2="BackgroundImageFix" result="shape"/>
<feGaussianBlur stdDeviation="3" result="effect1_foregroundBlur"/>
</filter>
<linearGradient id="paint0_linear" x1="0" y1="0.204102" x2="52.295" y2="2.27591" gradientUnits="userSpaceOnUse">
<stop stop-color="#C86FE5"/>
<stop offset="1" stop-color="#7237A1"/>
</linearGradient>
<linearGradient id="paint1_linear" x1="0" y1="0.204102" x2="52.295" y2="2.27591" gradientUnits="userSpaceOnUse">
<stop stop-color="#C86FE5"/>
<stop offset="1" stop-color="#7237A1"/>
</linearGradient>
<linearGradient id="paint2_linear" x1="0" y1="0.204102" x2="52.295" y2="2.27591" gradientUnits="userSpaceOnUse">
<stop stop-color="#C86FE5"/>
<stop offset="1" stop-color="#7237A1"/>
</linearGradient>
</defs>
</svg>
