<svg width="56" height="61" viewBox="0 0 56 61" fill="none" xmlns="http://www.w3.org/2000/svg">
<g opacity="0.15" filter="url(#filter0_f)">
<path d="M43.7428 28.7321L43.1626 27.9176L41.9165 28.8052L43.2296 29.5904L43.7428 28.7321ZM45.1348 44.1881L44.499 43.4161L44.4934 43.4208L45.1348 44.1881ZM27.5187 44.1881L26.8774 44.9554L27.5187 44.1881ZM28.9108 28.7321L29.4279 29.588L30.7181 28.8085L29.4983 27.9229L28.9108 28.7321ZM28.5268 14.5241L27.8935 13.7501L27.8877 13.7549L28.5268 14.5241ZM44.1268 14.5241L43.4877 15.2933V15.2933L44.1268 14.5241ZM33.2308 25.0361L32.5537 25.772L32.5618 25.7795L32.5701 25.7868L33.2308 25.0361ZM39.4707 25.0361L40.1314 25.7868L40.1397 25.7795L40.1478 25.772L39.4707 25.0361ZM32.3667 39.4361L31.7241 40.2023L31.7374 40.2134L31.7511 40.2241L32.3667 39.4361ZM40.2868 39.4361L40.9145 40.2145L40.9173 40.2122L40.2868 39.4361ZM40.2868 32.6201L39.6441 33.3863L39.6574 33.3974L39.6711 33.4081L40.2868 32.6201ZM32.3667 32.6201L32.9945 33.3985L32.9973 33.3962L32.3667 32.6201ZM43.2296 29.5904C46.0384 31.2699 47.3988 33.6517 47.3988 36.8441H49.3988C49.3988 32.9325 47.6551 29.9063 44.2559 27.8738L43.2296 29.5904ZM47.3988 36.8441C47.3988 39.6836 46.4192 41.8349 44.499 43.4162L45.7705 44.96C48.2023 42.9573 49.3988 40.2126 49.3988 36.8441H47.3988ZM44.4934 43.4208C42.581 45.0192 39.9059 45.8761 36.3507 45.8761V47.8761C40.2196 47.8761 43.4005 46.941 45.7761 44.9554L44.4934 43.4208ZM36.3507 45.8761C32.7611 45.8761 30.0711 45.0181 28.1601 43.4208L26.8774 44.9554C29.2544 46.9421 32.4524 47.8761 36.3507 47.8761V45.8761ZM28.1601 43.4208C26.2704 41.8414 25.3027 39.6889 25.3027 36.8441H23.3027C23.3027 40.2073 24.4791 42.9508 26.8774 44.9554L28.1601 43.4208ZM25.3027 36.8441C25.3027 33.6468 26.6517 31.2653 29.4279 29.588L28.3936 27.8762C25.0258 29.9109 23.3027 32.9374 23.3027 36.8441H25.3027ZM29.4983 27.9229C27.4274 26.4194 26.4067 24.4034 26.4067 21.7721H24.4067C24.4067 25.0288 25.7221 27.6528 28.3232 29.5413L29.4983 27.9229ZM26.4067 21.7721C26.4067 18.9162 27.3498 16.802 29.1658 15.2933L27.8877 13.7549C25.5437 15.7022 24.4067 18.42 24.4067 21.7721H26.4067ZM29.16 15.2981C31.069 13.7362 33.444 12.9321 36.3507 12.9321V10.9321C33.0494 10.9321 30.2085 11.856 27.8935 13.7501L29.16 15.2981ZM36.3507 12.9321C39.2578 12.9321 41.6134 13.7362 43.4877 15.2933L44.7658 13.7549C42.4801 11.856 39.6517 10.9321 36.3507 10.9321V12.9321ZM43.4877 15.2933C45.3037 16.802 46.2467 18.9162 46.2467 21.7721H48.2467C48.2467 18.42 47.1098 15.7022 44.7658 13.7549L43.4877 15.2933ZM46.2467 21.7721C46.2467 24.4391 45.2236 26.4495 43.1626 27.9176L44.3229 29.5466C46.9339 27.6867 48.2467 25.0571 48.2467 21.7721H46.2467ZM40.1314 18.4774C39.1136 17.5818 37.8226 17.1721 36.3507 17.1721V19.1721C37.4389 19.1721 38.2279 19.4664 38.8101 19.9788L40.1314 18.4774ZM36.3507 17.1721C34.8789 17.1721 33.5879 17.5818 32.5701 18.4774L33.8914 19.9788C34.4736 19.4664 35.2626 19.1721 36.3507 19.1721V17.1721ZM32.5701 18.4774C31.5228 19.3991 31.0308 20.6497 31.0308 22.1081H33.0308C33.0308 21.1345 33.3387 20.4651 33.8914 19.9788L32.5701 18.4774ZM31.0308 22.1081C31.0308 23.567 31.5223 24.8231 32.5537 25.772L33.9078 24.3002C33.3392 23.7771 33.0308 23.0812 33.0308 22.1081H31.0308ZM32.5701 25.7868C33.5879 26.6824 34.8789 27.0921 36.3507 27.0921V25.0921C35.2626 25.0921 34.4736 24.7978 33.8914 24.2854L32.5701 25.7868ZM36.3507 27.0921C37.8226 27.0921 39.1136 26.6824 40.1314 25.7868L38.8101 24.2854C38.2279 24.7978 37.4389 25.0921 36.3507 25.0921V27.0921ZM40.1478 25.772C41.1792 24.8231 41.6707 23.567 41.6707 22.1081H39.6707C39.6707 23.0812 39.3623 23.7771 38.7937 24.3002L40.1478 25.772ZM41.6707 22.1081C41.6707 20.6497 41.1787 19.3991 40.1314 18.4774L38.8101 19.9788C39.3628 20.4651 39.6707 21.1345 39.6707 22.1081H41.6707ZM31.7511 40.2241C32.9918 41.1934 34.5538 41.6361 36.3507 41.6361V39.6361C34.8837 39.6361 33.7897 39.2788 32.9824 38.6481L31.7511 40.2241ZM36.3507 41.6361C38.146 41.6361 39.6999 41.194 40.9145 40.2145L39.659 38.6577C38.8896 39.2782 37.8195 39.6361 36.3507 39.6361V41.6361ZM40.9173 40.2122C42.2041 39.1668 42.8228 37.7138 42.8228 35.9801H40.8228C40.8228 37.1904 40.4174 38.0414 39.6562 38.66L40.9173 40.2122ZM42.8228 35.9801C42.8228 34.2703 42.1975 32.8439 40.9024 31.8321L39.6711 33.4081C40.424 33.9963 40.8228 34.8099 40.8228 35.9801H42.8228ZM40.9294 31.8539C39.7144 30.8349 38.1549 30.3721 36.3507 30.3721V32.3721C37.8106 32.3721 38.8751 32.7413 39.6441 33.3863L40.9294 31.8539ZM36.3507 30.3721C34.5451 30.3721 32.9775 30.8354 31.7362 31.844L32.9973 33.3962C33.804 32.7408 34.8924 32.3721 36.3507 32.3721V30.3721ZM31.739 31.8417C30.4791 32.8578 29.8787 34.2821 29.8787 35.9801H31.8787C31.8787 34.7981 32.2704 33.9824 32.9945 33.3985L31.739 31.8417ZM29.8787 35.9801C29.8787 37.7024 30.473 39.153 31.7241 40.2023L33.0094 38.6699C32.2765 38.0553 31.8787 37.2018 31.8787 35.9801H29.8787Z" fill="url(#paint0_linear)"/>
</g>
<path opacity="0.05" d="M43.7428 28.7321C46.8468 30.5881 48.3988 33.2921 48.3988 36.8441C48.3988 39.9481 47.3108 42.3961 45.1348 44.1881C42.9908 45.9801 40.0628 46.8761 36.3508 46.8761C32.6068 46.8761 29.6628 45.9801 27.5188 44.1881C25.3748 42.3961 24.3027 39.9481 24.3027 36.8441C24.3027 33.2921 25.8388 30.5881 28.9108 28.7321C26.5748 27.0361 25.4068 24.7161 25.4068 21.7721C25.4068 18.6681 26.4468 16.2521 28.5268 14.5241C30.6388 12.7961 33.2468 11.9321 36.3508 11.9321C39.4548 11.9321 42.0468 12.7961 44.1268 14.5241C46.2068 16.2521 47.2468 18.6681 47.2468 21.7721C47.2468 24.7481 46.0788 27.0681 43.7428 28.7321ZM39.4708 19.2281C38.6708 18.5241 37.6308 18.1721 36.3508 18.1721C35.0708 18.1721 34.0308 18.5241 33.2308 19.2281C32.4308 19.9321 32.0308 20.8921 32.0308 22.1081C32.0308 23.3241 32.4308 24.3001 33.2308 25.0361C34.0308 25.7401 35.0708 26.0921 36.3508 26.0921C37.6308 26.0921 38.6708 25.7401 39.4708 25.0361C40.2708 24.3001 40.6708 23.3241 40.6708 22.1081C40.6708 20.8921 40.2708 19.9321 39.4708 19.2281ZM32.3668 39.4361C33.3908 40.2361 34.7188 40.6361 36.3508 40.6361C37.9828 40.6361 39.2948 40.2361 40.2868 39.4361C41.3108 38.6041 41.8228 37.4521 41.8228 35.9801C41.8228 34.5401 41.3108 33.4201 40.2868 32.6201C39.2948 31.7881 37.9828 31.3721 36.3508 31.3721C34.7188 31.3721 33.3908 31.7881 32.3668 32.6201C31.3748 33.4201 30.8788 34.5401 30.8788 35.9801C30.8788 37.4521 31.3748 38.6041 32.3668 39.4361Z" fill="url(#paint1_linear)"/>
<path opacity="0.5" d="M43.7428 28.7321L43.1626 27.9176L41.9165 28.8052L43.2296 29.5904L43.7428 28.7321ZM45.1348 44.1881L44.499 43.4161L44.4934 43.4208L45.1348 44.1881ZM27.5187 44.1881L26.8774 44.9554L27.5187 44.1881ZM28.9108 28.7321L29.4279 29.588L30.7181 28.8085L29.4983 27.9229L28.9108 28.7321ZM28.5268 14.5241L27.8935 13.7501L27.8877 13.7549L28.5268 14.5241ZM44.1268 14.5241L43.4877 15.2933V15.2933L44.1268 14.5241ZM33.2308 25.0361L32.5537 25.772L32.5618 25.7795L32.5701 25.7868L33.2308 25.0361ZM39.4707 25.0361L40.1314 25.7868L40.1397 25.7795L40.1478 25.772L39.4707 25.0361ZM32.3667 39.4361L31.7241 40.2023L31.7374 40.2134L31.7511 40.2241L32.3667 39.4361ZM40.2868 39.4361L40.9145 40.2145L40.9173 40.2122L40.2868 39.4361ZM40.2868 32.6201L39.6441 33.3863L39.6574 33.3974L39.6711 33.4081L40.2868 32.6201ZM32.3667 32.6201L32.9945 33.3985L32.9973 33.3962L32.3667 32.6201ZM43.2296 29.5904C46.0384 31.2699 47.3988 33.6517 47.3988 36.8441H49.3988C49.3988 32.9325 47.6551 29.9063 44.2559 27.8738L43.2296 29.5904ZM47.3988 36.8441C47.3988 39.6836 46.4192 41.8349 44.499 43.4162L45.7705 44.96C48.2023 42.9573 49.3988 40.2126 49.3988 36.8441H47.3988ZM44.4934 43.4208C42.581 45.0192 39.9059 45.8761 36.3507 45.8761V47.8761C40.2196 47.8761 43.4005 46.941 45.7761 44.9554L44.4934 43.4208ZM36.3507 45.8761C32.7611 45.8761 30.0711 45.0181 28.1601 43.4208L26.8774 44.9554C29.2544 46.9421 32.4524 47.8761 36.3507 47.8761V45.8761ZM28.1601 43.4208C26.2704 41.8414 25.3027 39.6889 25.3027 36.8441H23.3027C23.3027 40.2073 24.4791 42.9508 26.8774 44.9554L28.1601 43.4208ZM25.3027 36.8441C25.3027 33.6468 26.6517 31.2653 29.4279 29.588L28.3936 27.8762C25.0258 29.9109 23.3027 32.9374 23.3027 36.8441H25.3027ZM29.4983 27.9229C27.4274 26.4194 26.4067 24.4034 26.4067 21.7721H24.4067C24.4067 25.0288 25.7221 27.6528 28.3232 29.5413L29.4983 27.9229ZM26.4067 21.7721C26.4067 18.9162 27.3498 16.802 29.1658 15.2933L27.8877 13.7549C25.5437 15.7022 24.4067 18.42 24.4067 21.7721H26.4067ZM29.16 15.2981C31.069 13.7362 33.444 12.9321 36.3507 12.9321V10.9321C33.0494 10.9321 30.2085 11.856 27.8935 13.7501L29.16 15.2981ZM36.3507 12.9321C39.2578 12.9321 41.6134 13.7362 43.4877 15.2933L44.7658 13.7549C42.4801 11.856 39.6517 10.9321 36.3507 10.9321V12.9321ZM43.4877 15.2933C45.3037 16.802 46.2467 18.9162 46.2467 21.7721H48.2467C48.2467 18.42 47.1098 15.7022 44.7658 13.7549L43.4877 15.2933ZM46.2467 21.7721C46.2467 24.4391 45.2236 26.4495 43.1626 27.9176L44.3229 29.5466C46.9339 27.6867 48.2467 25.0571 48.2467 21.7721H46.2467ZM40.1314 18.4774C39.1136 17.5818 37.8226 17.1721 36.3507 17.1721V19.1721C37.4389 19.1721 38.2279 19.4664 38.8101 19.9788L40.1314 18.4774ZM36.3507 17.1721C34.8789 17.1721 33.5879 17.5818 32.5701 18.4774L33.8914 19.9788C34.4736 19.4664 35.2626 19.1721 36.3507 19.1721V17.1721ZM32.5701 18.4774C31.5228 19.3991 31.0308 20.6497 31.0308 22.1081H33.0308C33.0308 21.1345 33.3387 20.4651 33.8914 19.9788L32.5701 18.4774ZM31.0308 22.1081C31.0308 23.567 31.5223 24.8231 32.5537 25.772L33.9078 24.3002C33.3392 23.7771 33.0308 23.0812 33.0308 22.1081H31.0308ZM32.5701 25.7868C33.5879 26.6824 34.8789 27.0921 36.3507 27.0921V25.0921C35.2626 25.0921 34.4736 24.7978 33.8914 24.2854L32.5701 25.7868ZM36.3507 27.0921C37.8226 27.0921 39.1136 26.6824 40.1314 25.7868L38.8101 24.2854C38.2279 24.7978 37.4389 25.0921 36.3507 25.0921V27.0921ZM40.1478 25.772C41.1792 24.8231 41.6707 23.567 41.6707 22.1081H39.6707C39.6707 23.0812 39.3623 23.7771 38.7937 24.3002L40.1478 25.772ZM41.6707 22.1081C41.6707 20.6497 41.1787 19.3991 40.1314 18.4774L38.8101 19.9788C39.3628 20.4651 39.6707 21.1345 39.6707 22.1081H41.6707ZM31.7511 40.2241C32.9918 41.1934 34.5538 41.6361 36.3507 41.6361V39.6361C34.8837 39.6361 33.7897 39.2788 32.9824 38.6481L31.7511 40.2241ZM36.3507 41.6361C38.146 41.6361 39.6999 41.194 40.9145 40.2145L39.659 38.6577C38.8896 39.2782 37.8195 39.6361 36.3507 39.6361V41.6361ZM40.9173 40.2122C42.2041 39.1668 42.8228 37.7138 42.8228 35.9801H40.8228C40.8228 37.1904 40.4174 38.0414 39.6562 38.66L40.9173 40.2122ZM42.8228 35.9801C42.8228 34.2703 42.1975 32.8439 40.9024 31.8321L39.6711 33.4081C40.424 33.9963 40.8228 34.8099 40.8228 35.9801H42.8228ZM40.9294 31.8539C39.7144 30.8349 38.1549 30.3721 36.3507 30.3721V32.3721C37.8106 32.3721 38.8751 32.7413 39.6441 33.3863L40.9294 31.8539ZM36.3507 30.3721C34.5451 30.3721 32.9775 30.8354 31.7362 31.844L32.9973 33.3962C33.804 32.7408 34.8924 32.3721 36.3507 32.3721V30.3721ZM31.739 31.8417C30.4791 32.8578 29.8787 34.2821 29.8787 35.9801H31.8787C31.8787 34.7981 32.2704 33.9824 32.9945 33.3985L31.739 31.8417ZM29.8787 35.9801C29.8787 37.7024 30.473 39.153 31.7241 40.2023L33.0094 38.6699C32.2765 38.0553 31.8787 37.2018 31.8787 35.9801H29.8787Z" fill="url(#paint2_linear)" fill-opacity="0.5"/>
<defs>
<filter id="filter0_f" x="17.3027" y="4.93164" width="38.096" height="48.944" filterUnits="userSpaceOnUse" color-interpolation-filters="sRGB">
<feFlood flood-opacity="0" result="BackgroundImageFix"/>
<feBlend mode="normal" in="SourceGraphic" in2="BackgroundImageFix" result="shape"/>
<feGaussianBlur stdDeviation="3" result="effect1_foregroundBlur"/>
</filter>
<linearGradient id="paint0_linear" x1="0" y1="0.204102" x2="52.295" y2="2.27591" gradientUnits="userSpaceOnUse">
<stop stop-color="#C86FE5"/>
<stop offset="1" stop-color="#7237A1"/>
</linearGradient>
<linearGradient id="paint1_linear" x1="0" y1="0.204102" x2="52.295" y2="2.27591" gradientUnits="userSpaceOnUse">
<stop stop-color="#C86FE5"/>
<stop offset="1" stop-color="#7237A1"/>
</linearGradient>
<linearGradient id="paint2_linear" x1="0" y1="0.204102" x2="52.295" y2="2.27591" gradientUnits="userSpaceOnUse">
<stop stop-color="#C86FE5"/>
<stop offset="1" stop-color="#7237A1"/>
</linearGradient>
</defs>
</svg>
