<svg xmlns="http://www.w3.org/2000/svg" width="56" height="61" fill="none" viewBox="0 0 56 61"><g filter="url(#filter0_f)" opacity=".15"><path fill="url(#paint0_linear)" d="M46.8928 30.4121L46.0691 29.845L44.9901 31.4121H46.8928V30.4121ZM46.9408 30.4121L47.7744 30.9645L48.803 29.4121H46.9408V30.4121ZM36.4768 46.2041V47.2041H37.0137L37.3104 46.7565L36.4768 46.2041ZM28.8927 46.2041L28.0674 45.6394L26.9969 47.2041H28.8927V46.2041ZM36.3808 35.2601L37.2061 35.8248L38.2532 34.2943L36.3991 34.2603L36.3808 35.2601ZM27.8368 31.9481L27.1296 32.6552L27.1348 32.6604L27.1401 32.6655L27.8368 31.9481ZM27.9328 15.1961L27.241 14.4739L27.236 14.4788L27.9328 15.1961ZM45.5008 15.1961L44.804 15.9134L44.8092 15.9184L44.8144 15.9234L45.5008 15.1961ZM32.7327 27.5801L32.0481 28.3089L32.0535 28.314L32.059 28.3191L32.7327 27.5801ZM40.7487 27.5801L41.4334 28.3089L40.7487 27.5801ZM40.7487 19.6601L40.0641 20.3889L40.07 20.3945L40.0761 20.4L40.7487 19.6601ZM32.7327 19.6601L32.059 18.9211L32.0535 18.9262L32.0481 18.9313L32.7327 19.6601ZM47.9088 23.5961C47.9088 26.0054 47.2875 28.0755 46.0691 29.845L47.7164 30.9792C49.186 28.8447 49.9088 26.3708 49.9088 23.5961H47.9088ZM46.8928 31.4121H46.9408V29.4121H46.8928V31.4121ZM46.1071 29.8597L35.6431 45.6517L37.3104 46.7565L47.7744 30.9645L46.1071 29.8597ZM36.4768 45.2041H28.8927V47.2041H36.4768V45.2041ZM29.7181 46.7688L37.2061 35.8248L35.5554 34.6954L28.0674 45.6394L29.7181 46.7688ZM36.3991 34.2603C33.1283 34.2003 30.5347 33.174 28.5334 31.2307L27.1401 32.6655C29.5548 35.0102 32.6572 36.1919 36.3624 36.2599L36.3991 34.2603ZM28.5439 31.241C26.5754 29.2726 25.5728 26.7527 25.5728 23.5961H23.5728C23.5728 27.2235 24.746 30.2716 27.1296 32.6552L28.5439 31.241ZM25.5728 23.5961C25.5728 20.4136 26.6031 17.8819 28.6295 15.9134L27.236 14.4788C24.7824 16.8623 23.5728 19.9306 23.5728 23.5961H25.5728ZM28.6244 15.9183C30.6841 13.9457 33.3517 12.9321 36.7168 12.9321V10.9321C32.9138 10.9321 29.7254 12.0945 27.2411 14.4739L28.6244 15.9183ZM36.7168 12.9321C40.1168 12.9321 42.7801 13.9473 44.804 15.9134L46.1975 14.4788C43.7414 12.0929 40.5487 10.9321 36.7168 10.9321V12.9321ZM44.8144 15.9234C46.8638 17.8573 47.9088 20.383 47.9088 23.5961H49.9088C49.9088 19.8972 48.6817 16.8229 46.1871 14.4688L44.8144 15.9234ZM30.1488 23.5961C30.1488 25.4912 30.7603 27.0992 32.0481 28.3089L33.4174 26.8513C32.5932 26.077 32.1488 25.029 32.1488 23.5961H30.1488ZM32.059 28.3191C33.3439 29.4906 34.9172 30.0681 36.7168 30.0681V28.0681C35.3803 28.0681 34.2976 27.6536 33.4065 26.8411L32.059 28.3191ZM36.7168 30.0681C38.5684 30.0681 40.1681 29.4976 41.4334 28.3089L40.0641 26.8513C39.2174 27.6466 38.1291 28.0681 36.7168 28.0681V30.0681ZM41.4334 28.3089C42.7212 27.0992 43.3327 25.4912 43.3327 23.5961H41.3327C41.3327 25.029 40.8883 26.077 40.0641 26.8513L41.4334 28.3089ZM43.3327 23.5961C43.3327 21.7016 42.721 20.1016 41.4214 18.9202L40.0761 20.4C40.8885 21.1386 41.3327 22.1626 41.3327 23.5961H43.3327ZM41.4334 18.9313C40.1681 17.7426 38.5684 17.1721 36.7168 17.1721V19.1721C38.1291 19.1721 39.2174 19.5936 40.0641 20.3889L41.4334 18.9313ZM36.7168 17.1721C34.9172 17.1721 33.3439 17.7496 32.059 18.9211L33.4065 20.3991C34.2976 19.5866 35.3803 19.1721 36.7168 19.1721V17.1721ZM32.0481 18.9313C30.7645 20.1371 30.1488 21.7265 30.1488 23.5961H32.1488C32.1488 22.2017 32.589 21.1671 33.4174 20.3889L32.0481 18.9313Z"/></g><path fill="url(#paint1_linear)" d="M48.9088 23.5961C48.9088 26.1881 48.2368 28.4601 46.8928 30.4121H46.9408L36.4768 46.2041H28.8928L36.3808 35.2601C32.8928 35.1961 30.0448 34.0921 27.8368 31.9481C25.6608 29.7721 24.5728 26.9881 24.5728 23.5961C24.5728 20.1721 25.6928 17.3721 27.9328 15.1961C30.2048 13.0201 33.1328 11.9321 36.7168 11.9321C40.3328 11.9321 43.2608 13.0201 45.5008 15.1961C47.7728 17.3401 48.9088 20.1401 48.9088 23.5961ZM31.1488 23.5961C31.1488 25.2601 31.6768 26.5881 32.7328 27.5801C33.8208 28.5721 35.1488 29.0681 36.7168 29.0681C38.3488 29.0681 39.6928 28.5721 40.7488 27.5801C41.8048 26.5881 42.3328 25.2601 42.3328 23.5961C42.3328 21.9321 41.8048 20.6201 40.7488 19.6601C39.6928 18.6681 38.3488 18.1721 36.7168 18.1721C35.1488 18.1721 33.8208 18.6681 32.7328 19.6601C31.6768 20.6521 31.1488 21.9641 31.1488 23.5961Z" opacity=".05"/><path fill="url(#paint2_linear)" fill-opacity=".5" d="M46.8928 30.4121L46.0691 29.845L44.9901 31.4121H46.8928V30.4121ZM46.9408 30.4121L47.7744 30.9645L48.803 29.4121H46.9408V30.4121ZM36.4768 46.2041V47.2041H37.0137L37.3104 46.7565L36.4768 46.2041ZM28.8927 46.2041L28.0674 45.6394L26.9969 47.2041H28.8927V46.2041ZM36.3808 35.2601L37.2061 35.8248L38.2532 34.2943L36.3991 34.2603L36.3808 35.2601ZM27.8368 31.9481L27.1296 32.6552L27.1348 32.6604L27.1401 32.6655L27.8368 31.9481ZM27.9328 15.1961L27.241 14.4739L27.236 14.4788L27.9328 15.1961ZM45.5008 15.1961L44.804 15.9134L44.8092 15.9184L44.8144 15.9234L45.5008 15.1961ZM32.7327 27.5801L32.0481 28.3089L32.0535 28.314L32.059 28.3191L32.7327 27.5801ZM40.7487 27.5801L41.4334 28.3089L40.7487 27.5801ZM40.7487 19.6601L40.0641 20.3889L40.07 20.3945L40.0761 20.4L40.7487 19.6601ZM32.7327 19.6601L32.059 18.9211L32.0535 18.9262L32.0481 18.9313L32.7327 19.6601ZM47.9088 23.5961C47.9088 26.0054 47.2875 28.0755 46.0691 29.845L47.7164 30.9792C49.186 28.8447 49.9088 26.3708 49.9088 23.5961H47.9088ZM46.8928 31.4121H46.9408V29.4121H46.8928V31.4121ZM46.1071 29.8597L35.6431 45.6517L37.3104 46.7565L47.7744 30.9645L46.1071 29.8597ZM36.4768 45.2041H28.8927V47.2041H36.4768V45.2041ZM29.7181 46.7688L37.2061 35.8248L35.5554 34.6954L28.0674 45.6394L29.7181 46.7688ZM36.3991 34.2603C33.1283 34.2003 30.5347 33.174 28.5334 31.2307L27.1401 32.6655C29.5548 35.0102 32.6572 36.1919 36.3624 36.2599L36.3991 34.2603ZM28.5439 31.241C26.5754 29.2726 25.5728 26.7527 25.5728 23.5961H23.5728C23.5728 27.2235 24.746 30.2716 27.1296 32.6552L28.5439 31.241ZM25.5728 23.5961C25.5728 20.4136 26.6031 17.8819 28.6295 15.9134L27.236 14.4788C24.7824 16.8623 23.5728 19.9306 23.5728 23.5961H25.5728ZM28.6244 15.9183C30.6841 13.9457 33.3517 12.9321 36.7168 12.9321V10.9321C32.9138 10.9321 29.7254 12.0945 27.2411 14.4739L28.6244 15.9183ZM36.7168 12.9321C40.1168 12.9321 42.7801 13.9473 44.804 15.9134L46.1975 14.4788C43.7414 12.0929 40.5487 10.9321 36.7168 10.9321V12.9321ZM44.8144 15.9234C46.8638 17.8573 47.9088 20.383 47.9088 23.5961H49.9088C49.9088 19.8972 48.6817 16.8229 46.1871 14.4688L44.8144 15.9234ZM30.1488 23.5961C30.1488 25.4912 30.7603 27.0992 32.0481 28.3089L33.4174 26.8513C32.5932 26.077 32.1488 25.029 32.1488 23.5961H30.1488ZM32.059 28.3191C33.3439 29.4906 34.9172 30.0681 36.7168 30.0681V28.0681C35.3803 28.0681 34.2976 27.6536 33.4065 26.8411L32.059 28.3191ZM36.7168 30.0681C38.5684 30.0681 40.1681 29.4976 41.4334 28.3089L40.0641 26.8513C39.2174 27.6466 38.1291 28.0681 36.7168 28.0681V30.0681ZM41.4334 28.3089C42.7212 27.0992 43.3327 25.4912 43.3327 23.5961H41.3327C41.3327 25.029 40.8883 26.077 40.0641 26.8513L41.4334 28.3089ZM43.3327 23.5961C43.3327 21.7016 42.721 20.1016 41.4214 18.9202L40.0761 20.4C40.8885 21.1386 41.3327 22.1626 41.3327 23.5961H43.3327ZM41.4334 18.9313C40.1681 17.7426 38.5684 17.1721 36.7168 17.1721V19.1721C38.1291 19.1721 39.2174 19.5936 40.0641 20.3889L41.4334 18.9313ZM36.7168 17.1721C34.9172 17.1721 33.3439 17.7496 32.059 18.9211L33.4065 20.3991C34.2976 19.5866 35.3803 19.1721 36.7168 19.1721V17.1721ZM32.0481 18.9313C30.7645 20.1371 30.1488 21.7265 30.1488 23.5961H32.1488C32.1488 22.2017 32.589 21.1671 33.4174 20.3889L32.0481 18.9313Z" opacity=".5"/><defs><filter id="filter0_f" width="38.336" height="48.272" x="17.573" y="4.932" color-interpolation-filters="sRGB" filterUnits="userSpaceOnUse"><feFlood flood-opacity="0" result="BackgroundImageFix"/><feBlend in="SourceGraphic" in2="BackgroundImageFix" mode="normal" result="shape"/><feGaussianBlur result="effect1_foregroundBlur" stdDeviation="3"/></filter><linearGradient id="paint0_linear" x1="0" x2="52.295" y1=".204" y2="2.276" gradientUnits="userSpaceOnUse"><stop stop-color="#C86FE5"/><stop offset="1" stop-color="#7237A1"/></linearGradient><linearGradient id="paint1_linear" x1="0" x2="52.295" y1=".204" y2="2.276" gradientUnits="userSpaceOnUse"><stop stop-color="#C86FE5"/><stop offset="1" stop-color="#7237A1"/></linearGradient><linearGradient id="paint2_linear" x1="0" x2="52.295" y1=".204" y2="2.276" gradientUnits="userSpaceOnUse"><stop stop-color="#C86FE5"/><stop offset="1" stop-color="#7237A1"/></linearGradient></defs></svg>