<svg width="127" height="39" viewBox="0 0 127 39" fill="none" xmlns="http://www.w3.org/2000/svg">
<path d="M13.824 25.884L8.748 17.136H4.968V25.884H0V0.684H10.08C12.408 0.684 14.388 1.5 16.02 3.132C17.652 4.764 18.468 6.732 18.468 9.036C18.468 10.596 18.024 12.048 17.136 13.392C16.248 14.712 15.072 15.708 13.608 16.38L19.188 25.884H13.824ZM4.968 5.328V12.78H10.08C11.016 12.78 11.82 12.42 12.492 11.7C13.164 10.956 13.5 10.068 13.5 9.036C13.5 8.004 13.164 7.128 12.492 6.408C11.82 5.688 11.016 5.328 10.08 5.328H4.968Z" fill="url(#paint0_linear)"/>
<path d="M21.7002 5.724C20.9322 5.724 20.2602 5.448 19.6842 4.896C19.1322 4.32 18.8562 3.648 18.8562 2.88C18.8562 2.112 19.1322 1.44 19.6842 0.863999C20.2602 0.288 20.9322 0 21.7002 0C22.4922 0 23.1642 0.288 23.7162 0.863999C24.2922 1.44 24.5802 2.112 24.5802 2.88C24.5802 3.648 24.2922 4.32 23.7162 4.896C23.1642 5.448 22.4922 5.724 21.7002 5.724ZM19.3962 25.884V7.884H24.0402V25.884H19.3962Z" fill="url(#paint1_linear)"/>
<path d="M42.3857 25.884H36.9857L30.4337 17.712V25.884H25.7897V0.684H30.4337V15.804L36.6257 7.884H42.1697L34.9337 16.776L42.3857 25.884Z" fill="url(#paint2_linear)"/>
<path d="M58.7987 25.884H53.3987L46.8467 17.712V25.884H42.2027V0.684H46.8467V15.804L53.0387 7.884H58.5827L51.3467 16.776L58.7987 25.884Z" fill="url(#paint3_linear)"/>
<path d="M60.9197 5.724C60.1517 5.724 59.4797 5.448 58.9037 4.896C58.3517 4.32 58.0757 3.648 58.0757 2.88C58.0757 2.112 58.3517 1.44 58.9037 0.863999C59.4797 0.288 60.1517 0 60.9197 0C61.7117 0 62.3837 0.288 62.9357 0.863999C63.5117 1.44 63.7997 2.112 63.7997 2.88C63.7997 3.648 63.5117 4.32 62.9357 4.896C62.3837 5.448 61.7117 5.724 60.9197 5.724ZM58.6157 25.884V7.884H63.2597V25.884H58.6157Z" fill="url(#paint4_linear)"/>
<path d="M73.5772 26.388C70.8652 26.388 68.5972 25.476 66.7732 23.652C64.9732 21.828 64.0732 19.572 64.0732 16.884C64.0732 14.196 64.9732 11.94 66.7732 10.116C68.5972 8.292 70.8652 7.38 73.5772 7.38C75.3292 7.38 76.9252 7.8 78.3652 8.64C79.8052 9.48 80.8972 10.608 81.6412 12.024L77.6452 14.364C77.2852 13.62 76.7332 13.032 75.9892 12.6C75.2692 12.168 74.4532 11.952 73.5412 11.952C72.1492 11.952 70.9972 12.42 70.0852 13.356C69.1732 14.268 68.7172 15.444 68.7172 16.884C68.7172 18.3 69.1732 19.476 70.0852 20.412C70.9972 21.324 72.1492 21.78 73.5412 21.78C74.4772 21.78 75.3052 21.576 76.0252 21.168C76.7692 20.736 77.3212 20.148 77.6812 19.404L81.7132 21.708C80.9212 23.124 79.8052 24.264 78.3652 25.128C76.9252 25.968 75.3292 26.388 73.5772 26.388Z" fill="url(#paint5_linear)"/>
<path d="M96.7231 23.652C94.8751 25.476 92.6191 26.388 89.9551 26.388C87.2911 26.388 85.0351 25.476 83.1871 23.652C81.3631 21.804 80.4511 19.548 80.4511 16.884C80.4511 14.22 81.3631 11.976 83.1871 10.152C85.0351 8.304 87.2911 7.38 89.9551 7.38C92.6191 7.38 94.8751 8.304 96.7231 10.152C98.5711 11.976 99.4951 14.22 99.4951 16.884C99.4951 19.548 98.5711 21.804 96.7231 23.652ZM86.4631 20.448C87.3991 21.384 88.5631 21.852 89.9551 21.852C91.3471 21.852 92.5111 21.384 93.4471 20.448C94.383 19.512 94.8511 18.324 94.8511 16.884C94.8511 15.444 94.383 14.256 93.4471 13.32C92.5111 12.384 91.3471 11.916 89.9551 11.916C88.5631 11.916 87.3991 12.384 86.4631 13.32C85.5511 14.256 85.0951 15.444 85.0951 16.884C85.0951 18.324 85.5511 19.512 86.4631 20.448Z" fill="url(#paint6_linear)"/>
<path d="M120.169 7.38C122.233 7.38 123.877 8.052 125.101 9.396C126.349 10.74 126.973 12.54 126.973 14.796V25.884H122.329V15.12C122.329 14.04 122.065 13.2 121.537 12.6C121.009 12 120.265 11.7 119.305 11.7C118.249 11.7 117.421 12.048 116.821 12.744C116.245 13.44 115.957 14.448 115.957 15.768V25.884H111.313V15.12C111.313 14.04 111.049 13.2 110.521 12.6C109.993 12 109.249 11.7 108.289 11.7C107.257 11.7 106.429 12.048 105.805 12.744C105.205 13.44 104.905 14.448 104.905 15.768V25.884H100.261V7.884H104.905V9.792C105.985 8.184 107.653 7.38 109.909 7.38C112.117 7.38 113.749 8.244 114.805 9.972C116.005 8.244 117.793 7.38 120.169 7.38Z" fill="url(#paint7_linear)"/>
<path fill-rule="evenodd" clip-rule="evenodd" d="M8.748 17.136L13.824 25.884H19.188L13.608 16.38C13.9159 16.2387 14.211 16.083 14.4935 15.913C15.5539 15.2747 16.4348 14.4344 17.136 13.392C17.8179 12.36 18.2379 11.2643 18.3962 10.1049C18.4441 9.75441 18.468 9.39812 18.468 9.036C18.468 8.64218 18.4442 8.25819 18.3965 7.884C18.3964 7.88335 18.3963 7.88269 18.3962 7.88204C18.1646 6.0679 17.3726 4.48456 16.02 3.132C14.388 1.5 12.408 0.684 10.08 0.684H0V25.884H4.968V17.136H8.748ZM19.3962 7.884V25.884H24.0402V7.884H19.3962ZM20.3962 8.884H23.0402V24.884H20.3962V8.884ZM23.7162 0.863999C23.1642 0.288 22.4922 0 21.7002 0C20.9322 0 20.2602 0.288 19.6842 0.863999C19.1322 1.44 18.8562 2.112 18.8562 2.88C18.8562 3.648 19.1322 4.32 19.6842 4.896C20.2602 5.448 20.9322 5.724 21.7002 5.724C22.4922 5.724 23.1642 5.448 23.7162 4.896C24.2922 4.32 24.5802 3.648 24.5802 2.88C24.5802 2.112 24.2922 1.44 23.7162 0.863999ZM20.3916 4.18869C20.785 4.55961 21.2074 4.724 21.7002 4.724C22.2313 4.724 22.6477 4.55032 23.0091 4.1889C23.4102 3.7878 23.5802 3.36545 23.5802 2.88C23.5802 2.39456 23.4102 1.9722 23.0091 1.57111L23.0016 1.56359L22.9942 1.55591C22.6293 1.17509 22.2174 1 21.7002 1C21.2178 1 20.7977 1.16789 20.3989 1.56357C20.0228 1.95924 19.8562 2.38394 19.8562 2.88C19.8562 3.37283 20.0206 3.79523 20.3916 4.18869ZM30.4337 15.804V0.684H25.7897V25.884H30.4337V17.712L36.9857 25.884H46.8467V17.712L53.3987 25.884H63.2597V7.884H58.6157V25.6603L51.3467 16.776L58.5827 7.884H53.0387L46.8467 15.804V0.684H42.2027V25.6603L34.9337 16.776L42.1697 7.884H36.6257L30.4337 15.804ZM37.1132 8.884L30.9539 16.7622L37.4657 24.884H40.2755L33.643 16.7777L40.0667 8.884H37.1132ZM29.4337 1.684H26.7897V24.884H29.4337V1.684ZM43.2027 24.884V8.1989L44.2727 6.884H43.2027V1.684H45.8467V24.884H43.2027ZM47.3669 16.7622L53.8787 24.884H56.6885L50.0561 16.7777L56.4797 8.884H53.5262L47.3669 16.7622ZM59.6157 24.884V8.884H62.2597V24.884H59.6157ZM64.2597 14.8541C64.1354 15.5009 64.0732 16.1775 64.0732 16.884C64.0732 17.5905 64.1354 18.2671 64.2597 18.9139C64.6085 20.7281 65.4463 22.3074 66.7732 23.652C68.5972 25.476 70.8652 26.388 73.5772 26.388C75.3292 26.388 76.9252 25.968 78.3652 25.128C79.4672 24.4668 80.3795 23.6439 81.1021 22.6594C81.1277 22.6245 81.1531 22.5893 81.1782 22.554C81.3375 22.3303 81.4872 22.0983 81.6274 21.8582C81.6525 21.8151 81.6774 21.7718 81.7019 21.7282C81.8865 22.0444 82.0916 22.3515 82.3171 22.6494C82.5794 22.996 82.8694 23.3302 83.1871 23.652C85.0351 25.476 87.2911 26.388 89.9551 26.388C92.6191 26.388 94.8751 25.476 96.7231 23.652C98.0341 22.341 98.8801 20.8246 99.261 19.1029C99.417 18.3978 99.4951 17.6581 99.4951 16.884C99.4951 16.1099 99.417 15.3713 99.261 14.6681C98.8801 12.9514 98.0341 11.446 96.7231 10.152C94.8751 8.304 92.6191 7.38 89.9551 7.38C87.2911 7.38 85.0351 8.304 83.1871 10.152C82.8643 10.4748 82.5701 10.8107 82.3045 11.1597C82.1063 11.4201 81.924 11.6878 81.7576 11.9628C81.7317 12.0057 81.7062 12.0487 81.681 12.092C81.4085 12.56 81.1813 13.0489 80.9994 13.5587C80.6338 14.5829 80.4511 15.6914 80.4511 16.884C80.4511 18.0438 80.6239 19.1262 80.9696 20.1313C81.1558 20.6728 81.3922 21.1918 81.6787 21.6883L77.6812 19.404C77.5978 19.5764 77.5041 19.7404 77.4 19.8961C77.0551 20.4121 76.5968 20.8361 76.0252 21.168C75.3052 21.576 74.4772 21.78 73.5412 21.78C72.1492 21.78 70.9972 21.324 70.0852 20.412C69.1732 19.476 68.7172 18.3 68.7172 16.884C68.7172 15.444 69.1732 14.268 70.0852 13.356C70.9972 12.42 72.1492 11.952 73.5412 11.952C74.4532 11.952 75.2692 12.168 75.9892 12.6C76.5345 12.9166 76.9766 13.317 77.3157 13.8012C77.4392 13.9777 77.549 14.1653 77.6452 14.364L81.6412 12.024C81.5185 11.7905 81.3864 11.5648 81.2448 11.347C81.2055 11.2866 81.1655 11.2268 81.1248 11.1676C81.1165 11.1555 81.1082 11.1435 81.0998 11.1316C80.4001 10.1258 79.4885 9.29526 78.3652 8.64C76.9252 7.8 75.3292 7.38 73.5772 7.38C70.8652 7.38 68.5972 8.292 66.7732 10.116C65.4463 11.4606 64.6085 13.04 64.2597 14.8541ZM67.4828 10.8206C65.8787 12.4471 65.0732 14.4457 65.0732 16.884C65.0732 19.3223 65.8788 21.321 67.4829 22.9475C69.1085 24.5718 71.1166 25.388 73.5772 25.388C75.1593 25.388 76.5782 25.0114 77.856 24.2673C78.8493 23.6705 79.6627 22.934 80.3051 22.0551L78.0173 20.7478C77.6163 21.2613 77.117 21.6904 76.5273 22.0328L76.5182 22.038C75.629 22.5419 74.627 22.78 73.5412 22.78C71.9072 22.78 70.4934 22.2345 69.3781 21.1191L69.3689 21.1099C68.2589 19.9707 67.7172 18.5368 67.7172 16.884C67.7172 15.2148 68.2545 13.7748 69.3737 12.6533C70.4865 11.5138 71.9014 10.952 73.5412 10.952C74.6158 10.952 75.6103 11.2081 76.4974 11.7387C77.0813 12.0787 77.5764 12.504 77.975 13.0121L80.2592 11.6744C79.6476 10.8043 78.8522 10.0818 77.8613 9.50378C76.5822 8.75761 75.1615 8.38 73.5772 8.38C71.1165 8.38 69.1084 9.19626 67.4828 10.8206ZM82.8646 21.698L83.0697 21.3314L82.4172 20.9585C81.7726 19.7511 81.4511 18.398 81.4511 16.884C81.4511 15.3094 81.7987 13.9151 82.4948 12.683L82.9707 12.4043L82.8315 12.1395C83.1355 11.6901 83.4897 11.2636 83.8942 10.8591C85.5506 9.20267 87.5505 8.38 89.9551 8.38C92.3596 8.38 94.3595 9.20267 96.0159 10.8591L96.0206 10.8637C97.6727 12.4944 98.4951 14.4797 98.4951 16.884C98.4951 19.2874 97.6731 21.2866 96.0182 22.9426C94.3632 24.575 92.3626 25.388 89.9551 25.388C87.5486 25.388 85.5487 24.5758 83.894 22.9447C83.5041 22.5492 83.161 22.1338 82.8646 21.698ZM100.261 25.884H104.905V15.768C104.905 14.448 105.205 13.44 105.805 12.744C106.429 12.048 107.257 11.7 108.289 11.7C109.249 11.7 109.993 12 110.521 12.6C111.049 13.2 111.313 14.04 111.313 15.12V25.884H115.957V15.768C115.957 14.448 116.245 13.44 116.821 12.744C117.421 12.048 118.249 11.7 119.305 11.7C120.265 11.7 121.009 12 121.537 12.6C122.065 13.2 122.329 14.04 122.329 15.12V25.884H126.973V14.796C126.973 12.54 126.349 10.74 125.101 9.396C123.877 8.052 122.233 7.38 120.169 7.38C118.199 7.38 116.634 7.97378 115.472 9.16134C115.233 9.40629 115.01 9.67651 114.805 9.972C114.616 9.66288 114.409 9.38141 114.183 9.12759C113.147 7.96253 111.722 7.38 109.909 7.38C108.26 7.38 106.926 7.80941 105.905 8.66821C105.529 8.98455 105.196 9.35914 104.905 9.792V7.884H100.261V25.884ZM101.261 8.884V24.884H103.905V15.768C103.905 14.3112 104.235 13.0337 105.048 12.0911L105.054 12.0837L105.06 12.0765C105.895 11.1455 107.006 10.7 108.289 10.7C109.473 10.7 110.516 11.0804 111.272 11.9394C112.009 12.7777 112.313 13.883 112.313 15.12V24.884H114.957V15.768C114.957 14.3196 115.271 13.0484 116.051 12.1064L116.057 12.0987L116.064 12.0911C116.883 11.1406 118.006 10.7 119.305 10.7C120.489 10.7 121.532 11.0804 122.288 11.9394C123.025 12.7777 123.329 13.883 123.329 15.12V24.884H125.973V14.796C125.973 12.7314 125.407 11.1952 124.368 10.0765L124.362 10.0694C123.354 8.96264 121.994 8.38 120.169 8.38C118.071 8.38 116.613 9.12157 115.626 10.5424L114.752 11.8022L113.952 10.4935C113.096 9.09362 111.806 8.38 109.909 8.38C107.923 8.38 106.597 9.06699 105.735 10.3496L103.905 13.0744V8.884H101.261ZM3.968 24.884V16.136H9.32391L14.3999 24.884H17.4413L12.1857 15.9326L13.1908 15.4712C14.4886 14.8755 15.5202 14.001 16.3039 12.8373C17.0861 11.6522 17.468 10.392 17.468 9.036C17.468 6.99774 16.7577 5.28394 15.3129 3.83911C13.8703 2.39646 12.1454 1.684 10.08 1.684H1V24.884H3.968ZM3.968 4.328H10.08C11.3091 4.328 12.373 4.81495 13.2231 5.72568C14.0768 6.64039 14.5 7.76406 14.5 9.036C14.5 10.3076 14.0774 11.4366 13.2341 12.3703L13.2286 12.3763L13.2231 12.3823C12.373 13.2931 11.3091 13.78 10.08 13.78H3.968V4.328ZM4.968 12.78V5.328H10.08C11.016 5.328 11.82 5.688 12.492 6.408C13.164 7.128 13.5 8.004 13.5 9.036C13.5 10.068 13.164 10.956 12.492 11.7C11.82 12.42 11.016 12.78 10.08 12.78H4.968ZM62.9357 0.863999C62.3837 0.288 61.7117 0 60.9197 0C60.1517 0 59.4797 0.288 58.9037 0.863999C58.3517 1.44 58.0757 2.112 58.0757 2.88C58.0757 3.648 58.3517 4.32 58.9037 4.896C59.4797 5.448 60.1517 5.724 60.9197 5.724C61.7117 5.724 62.3837 5.448 62.9357 4.896C63.5117 4.32 63.7997 3.648 63.7997 2.88C63.7997 2.112 63.5117 1.44 62.9357 0.863999ZM62.2211 1.56359L62.2137 1.55591C61.8488 1.17509 61.4369 1 60.9197 1C60.4373 1 60.0172 1.1679 59.6184 1.56361C59.2423 1.95926 59.0757 2.38396 59.0757 2.88C59.0757 3.37282 59.2401 3.79522 59.6111 4.18867C60.0045 4.55961 60.4269 4.724 60.9197 4.724C61.4508 4.724 61.8672 4.55032 62.2286 4.1889C62.6297 3.7878 62.7997 3.36545 62.7997 2.88C62.7997 2.39456 62.6297 1.9722 62.2286 1.57111L62.2211 1.56359ZM85.7468 21.1459C84.6336 20.0033 84.0951 18.5557 84.0951 16.884C84.0951 15.2123 84.6336 13.7647 85.7468 12.6221L85.7559 12.6128C86.8899 11.4788 88.3131 10.916 89.9551 10.916C91.5971 10.916 93.0201 11.4789 94.1542 12.6129C95.2951 13.7538 95.8511 15.2045 95.8511 16.884C95.8511 18.5635 95.2951 20.0142 94.1542 21.1551C93.0201 22.2891 91.5971 22.852 89.9551 22.852C88.3131 22.852 86.89 22.2891 85.756 21.1551L85.7468 21.1459ZM86.4631 13.32C87.3991 12.384 88.5631 11.916 89.9551 11.916C91.3471 11.916 92.5111 12.384 93.4471 13.32C94.3831 14.256 94.8511 15.444 94.8511 16.884C94.8511 18.324 94.3831 19.512 93.4471 20.448C92.5111 21.384 91.3471 21.852 89.9551 21.852C88.5631 21.852 87.3991 21.384 86.4631 20.448C85.5511 19.512 85.0951 18.324 85.0951 16.884C85.0951 15.444 85.5511 14.256 86.4631 13.32Z" fill="url(#paint8_linear)" fill-opacity="0.5"/>
<defs>
<linearGradient id="paint0_linear" x1="0" y1="0" x2="11.2705" y2="52.3156" gradientUnits="userSpaceOnUse">
<stop stop-color="#FB4F14"/>
<stop offset="1" stop-color="#FFEB7A"/>
</linearGradient>
<linearGradient id="paint1_linear" x1="0" y1="0" x2="11.2705" y2="52.3156" gradientUnits="userSpaceOnUse">
<stop stop-color="#FB4F14"/>
<stop offset="1" stop-color="#FFEB7A"/>
</linearGradient>
<linearGradient id="paint2_linear" x1="0" y1="0" x2="11.2705" y2="52.3156" gradientUnits="userSpaceOnUse">
<stop stop-color="#FB4F14"/>
<stop offset="1" stop-color="#FFEB7A"/>
</linearGradient>
<linearGradient id="paint3_linear" x1="0" y1="0" x2="11.2705" y2="52.3156" gradientUnits="userSpaceOnUse">
<stop stop-color="#FB4F14"/>
<stop offset="1" stop-color="#FFEB7A"/>
</linearGradient>
<linearGradient id="paint4_linear" x1="0" y1="0" x2="11.2705" y2="52.3156" gradientUnits="userSpaceOnUse">
<stop stop-color="#FB4F14"/>
<stop offset="1" stop-color="#FFEB7A"/>
</linearGradient>
<linearGradient id="paint5_linear" x1="0" y1="0" x2="11.2705" y2="52.3156" gradientUnits="userSpaceOnUse">
<stop stop-color="#FB4F14"/>
<stop offset="1" stop-color="#FFEB7A"/>
</linearGradient>
<linearGradient id="paint6_linear" x1="0" y1="0" x2="11.2705" y2="52.3156" gradientUnits="userSpaceOnUse">
<stop stop-color="#FB4F14"/>
<stop offset="1" stop-color="#FFEB7A"/>
</linearGradient>
<linearGradient id="paint7_linear" x1="0" y1="0" x2="11.2705" y2="52.3156" gradientUnits="userSpaceOnUse">
<stop stop-color="#FB4F14"/>
<stop offset="1" stop-color="#FFEB7A"/>
</linearGradient>
<linearGradient id="paint8_linear" x1="64.98" y1="-14.116" x2="73.5735" y2="39.5068" gradientUnits="userSpaceOnUse">
<stop stop-color="#FF7403"/>
<stop offset="1" stop-color="#FD3501"/>
</linearGradient>
</defs>
</svg>
