<svg width="62" height="61" viewBox="0 0 62 61" fill="none" xmlns="http://www.w3.org/2000/svg">
<g opacity="0.15" filter="url(#filter0_f)">
<path d="M16.5631 12.6041V11.6041H16.3917L16.23 11.6612L16.5631 12.6041ZM22.3231 12.6041H23.3231V11.6041H22.3231V12.6041ZM22.3231 46.2041V47.2041H23.3231V46.2041H22.3231ZM15.6991 46.2041H14.6991V47.2041H15.6991V46.2041ZM15.6991 19.6121H16.6991V18.2933L15.4292 18.6492L15.6991 19.6121ZM9.36313 21.3881L8.40222 21.665L8.67709 22.6189L9.63303 22.351L9.36313 21.3881ZM7.73112 15.7241L7.39804 14.7812L6.50923 15.0952L6.77022 16.001L7.73112 15.7241ZM16.5631 13.6041H22.3231V11.6041H16.5631V13.6041ZM21.3231 12.6041V46.2041H23.3231V12.6041H21.3231ZM22.3231 45.2041H15.6991V47.2041H22.3231V45.2041ZM16.6991 46.2041V19.6121H14.6991V46.2041H16.6991ZM15.4292 18.6492L9.09322 20.4252L9.63303 22.351L15.969 20.575L15.4292 18.6492ZM10.324 21.1112L8.69203 15.4472L6.77022 16.001L8.40222 21.665L10.324 21.1112ZM8.06421 16.667L16.8962 13.547L16.23 11.6612L7.39804 14.7812L8.06421 16.667ZM30.9976 42.1241L30.1937 42.719L30.2005 42.728L30.9976 42.1241ZM30.9976 16.7321L30.1976 16.1321L30.1967 16.1334L30.9976 16.7321ZM50.7736 16.7321L49.9698 17.327L49.9727 17.3308L50.7736 16.7321ZM50.7736 42.1241L51.5746 42.7228L51.5775 42.7189L50.7736 42.1241ZM35.7976 37.6121L34.944 38.133L34.948 38.1395L35.7976 37.6121ZM45.9736 37.5641L45.1264 37.0328L45.12 37.0432L45.9736 37.5641ZM45.9736 21.1961L45.1199 21.717L45.1264 21.7274L45.9736 21.1961ZM40.8856 45.8761C36.9867 45.8761 33.9939 44.4232 31.7947 41.5202L30.2005 42.728C32.8013 46.161 36.4005 47.8761 40.8856 47.8761V45.8761ZM31.8015 41.5293C29.5968 38.5499 28.4456 34.5394 28.4456 29.4041H26.4456C26.4456 34.8288 27.6625 39.2983 30.1938 42.7189L31.8015 41.5293ZM28.4456 29.4041C28.4456 24.2682 29.597 20.2762 31.7986 17.3308L30.1967 16.1334C27.6622 19.524 26.4456 23.98 26.4456 29.4041H28.4456ZM31.7976 17.3321C33.9984 14.3977 36.9907 12.9321 40.8856 12.9321V10.9321C36.3965 10.9321 32.7968 12.6665 30.1976 16.1321L31.7976 17.3321ZM40.8856 12.9321C44.8152 12.9321 47.8034 14.3994 49.9698 17.3269L51.5775 16.1373C49.0078 12.6648 45.404 10.9321 40.8856 10.9321V12.9321ZM49.9727 17.3308C52.1742 20.2762 53.3256 24.2682 53.3256 29.4041H55.3256C55.3256 23.98 54.109 19.524 51.5746 16.1334L49.9727 17.3308ZM53.3256 29.4041C53.3256 34.5394 52.1745 38.5499 49.9698 41.5293L51.5775 42.7189C54.1088 39.2983 55.3256 34.8288 55.3256 29.4041H53.3256ZM49.9727 41.5254C47.8079 44.4215 44.8193 45.8761 40.8856 45.8761V47.8761C45.4 47.8761 49.0034 46.1627 51.5746 42.7228L49.9727 41.5254ZM34.948 38.1395C36.288 40.2983 38.3105 41.3961 40.8856 41.3961V39.3961C38.9808 39.3961 37.6113 38.6379 36.6473 37.0847L34.948 38.1395ZM40.8856 41.3961C43.4688 41.3961 45.4909 40.2752 46.8273 38.085L45.12 37.0432C44.1524 38.629 42.7825 39.3961 40.8856 39.3961V41.3961ZM46.8208 38.0954C48.1476 35.9798 48.7496 33.0424 48.7496 29.4041H46.7496C46.7496 32.8698 46.1677 35.3724 45.1264 37.0328L46.8208 38.0954ZM48.7496 29.4041C48.7496 25.7358 48.1483 22.7815 46.8208 20.6648L45.1264 21.7274C46.167 23.3867 46.7496 25.9044 46.7496 29.4041H48.7496ZM46.8273 20.6752C45.4909 18.485 43.4688 17.3641 40.8856 17.3641V19.3641C42.7825 19.3641 44.1524 20.1312 45.12 21.717L46.8273 20.6752ZM40.8856 17.3641C38.3025 17.3641 36.2804 18.485 34.944 20.6752L36.6513 21.717C37.6189 20.1312 38.9888 19.3641 40.8856 19.3641V17.3641ZM34.944 20.6752C33.654 22.7893 33.0696 25.7391 33.0696 29.4041H35.0696C35.0696 25.9011 35.6372 23.3789 36.6513 21.717L34.944 20.6752ZM33.0696 29.4041C33.0696 33.0691 33.654 36.0189 34.944 38.133L36.6513 37.0912C35.6372 35.4293 35.0696 32.9071 35.0696 29.4041H33.0696Z" fill="url(#paint0_linear)"/>
</g>
<path opacity="0.05" d="M16.5631 12.6041H22.3231V46.2041H15.6991V19.6121L9.36313 21.3881L7.73113 15.7241L16.5631 12.6041ZM40.8856 46.8761C36.6936 46.8761 33.3976 45.2921 30.9976 42.1241C28.6296 38.9241 27.4456 34.6841 27.4456 29.4041C27.4456 24.1241 28.6296 19.9001 30.9976 16.7321C33.3976 13.5321 36.6936 11.9321 40.8856 11.9321C45.1096 11.9321 48.4056 13.5321 50.7736 16.7321C53.1416 19.9001 54.3256 24.1241 54.3256 29.4041C54.3256 34.6841 53.1416 38.9241 50.7736 42.1241C48.4056 45.2921 45.1096 46.8761 40.8856 46.8761ZM35.7976 37.6121C36.9496 39.4681 38.6456 40.3961 40.8856 40.3961C43.1256 40.3961 44.8216 39.4521 45.9736 37.5641C47.1576 35.6761 47.7496 32.9561 47.7496 29.4041C47.7496 25.8201 47.1576 23.0841 45.9736 21.1961C44.8216 19.3081 43.1256 18.3641 40.8856 18.3641C38.6456 18.3641 36.9496 19.3081 35.7976 21.1961C34.6456 23.0841 34.0696 25.8201 34.0696 29.4041C34.0696 32.9881 34.6456 35.7241 35.7976 37.6121Z" fill="url(#paint1_linear)"/>
<path opacity="0.5" d="M16.5631 12.6041V11.6041H16.3917L16.23 11.6612L16.5631 12.6041ZM22.3231 12.6041H23.3231V11.6041H22.3231V12.6041ZM22.3231 46.2041V47.2041H23.3231V46.2041H22.3231ZM15.6991 46.2041H14.6991V47.2041H15.6991V46.2041ZM15.6991 19.6121H16.6991V18.2933L15.4292 18.6492L15.6991 19.6121ZM9.36313 21.3881L8.40222 21.665L8.67709 22.6189L9.63303 22.351L9.36313 21.3881ZM7.73112 15.7241L7.39804 14.7812L6.50923 15.0952L6.77022 16.001L7.73112 15.7241ZM16.5631 13.6041H22.3231V11.6041H16.5631V13.6041ZM21.3231 12.6041V46.2041H23.3231V12.6041H21.3231ZM22.3231 45.2041H15.6991V47.2041H22.3231V45.2041ZM16.6991 46.2041V19.6121H14.6991V46.2041H16.6991ZM15.4292 18.6492L9.09322 20.4252L9.63303 22.351L15.969 20.575L15.4292 18.6492ZM10.324 21.1112L8.69203 15.4472L6.77022 16.001L8.40222 21.665L10.324 21.1112ZM8.06421 16.667L16.8962 13.547L16.23 11.6612L7.39804 14.7812L8.06421 16.667ZM30.9976 42.1241L30.1937 42.719L30.2005 42.728L30.9976 42.1241ZM30.9976 16.7321L30.1976 16.1321L30.1967 16.1334L30.9976 16.7321ZM50.7736 16.7321L49.9698 17.327L49.9727 17.3308L50.7736 16.7321ZM50.7736 42.1241L51.5746 42.7228L51.5775 42.7189L50.7736 42.1241ZM35.7976 37.6121L34.944 38.133L34.948 38.1395L35.7976 37.6121ZM45.9736 37.5641L45.1264 37.0328L45.12 37.0432L45.9736 37.5641ZM45.9736 21.1961L45.1199 21.717L45.1264 21.7274L45.9736 21.1961ZM40.8856 45.8761C36.9867 45.8761 33.9939 44.4232 31.7947 41.5202L30.2005 42.728C32.8013 46.161 36.4005 47.8761 40.8856 47.8761V45.8761ZM31.8015 41.5293C29.5968 38.5499 28.4456 34.5394 28.4456 29.4041H26.4456C26.4456 34.8288 27.6625 39.2983 30.1938 42.7189L31.8015 41.5293ZM28.4456 29.4041C28.4456 24.2682 29.597 20.2762 31.7986 17.3308L30.1967 16.1334C27.6622 19.524 26.4456 23.98 26.4456 29.4041H28.4456ZM31.7976 17.3321C33.9984 14.3977 36.9907 12.9321 40.8856 12.9321V10.9321C36.3965 10.9321 32.7968 12.6665 30.1976 16.1321L31.7976 17.3321ZM40.8856 12.9321C44.8152 12.9321 47.8034 14.3994 49.9698 17.3269L51.5775 16.1373C49.0078 12.6648 45.404 10.9321 40.8856 10.9321V12.9321ZM49.9727 17.3308C52.1742 20.2762 53.3256 24.2682 53.3256 29.4041H55.3256C55.3256 23.98 54.109 19.524 51.5746 16.1334L49.9727 17.3308ZM53.3256 29.4041C53.3256 34.5394 52.1745 38.5499 49.9698 41.5293L51.5775 42.7189C54.1088 39.2983 55.3256 34.8288 55.3256 29.4041H53.3256ZM49.9727 41.5254C47.8079 44.4215 44.8193 45.8761 40.8856 45.8761V47.8761C45.4 47.8761 49.0034 46.1627 51.5746 42.7228L49.9727 41.5254ZM34.948 38.1395C36.288 40.2983 38.3105 41.3961 40.8856 41.3961V39.3961C38.9808 39.3961 37.6113 38.6379 36.6473 37.0847L34.948 38.1395ZM40.8856 41.3961C43.4688 41.3961 45.4909 40.2752 46.8273 38.085L45.12 37.0432C44.1524 38.629 42.7825 39.3961 40.8856 39.3961V41.3961ZM46.8208 38.0954C48.1476 35.9798 48.7496 33.0424 48.7496 29.4041H46.7496C46.7496 32.8698 46.1677 35.3724 45.1264 37.0328L46.8208 38.0954ZM48.7496 29.4041C48.7496 25.7358 48.1483 22.7815 46.8208 20.6648L45.1264 21.7274C46.167 23.3867 46.7496 25.9044 46.7496 29.4041H48.7496ZM46.8273 20.6752C45.4909 18.485 43.4688 17.3641 40.8856 17.3641V19.3641C42.7825 19.3641 44.1524 20.1312 45.12 21.717L46.8273 20.6752ZM40.8856 17.3641C38.3025 17.3641 36.2804 18.485 34.944 20.6752L36.6513 21.717C37.6189 20.1312 38.9888 19.3641 40.8856 19.3641V17.3641ZM34.944 20.6752C33.654 22.7893 33.0696 25.7391 33.0696 29.4041H35.0696C35.0696 25.9011 35.6372 23.3789 36.6513 21.717L34.944 20.6752ZM33.0696 29.4041C33.0696 33.0691 33.654 36.0189 34.944 38.133L36.6513 37.0912C35.6372 35.4293 35.0696 32.9071 35.0696 29.4041H33.0696Z" fill="url(#paint2_linear)" fill-opacity="0.5"/>
<defs>
<filter id="filter0_f" x="0.509277" y="4.93164" width="60.8164" height="48.944" filterUnits="userSpaceOnUse" color-interpolation-filters="sRGB">
<feFlood flood-opacity="0" result="BackgroundImageFix"/>
<feBlend mode="normal" in="SourceGraphic" in2="BackgroundImageFix" result="shape"/>
<feGaussianBlur stdDeviation="3" result="effect1_foregroundBlur"/>
</filter>
<linearGradient id="paint0_linear" x1="6" y1="0.204102" x2="58.295" y2="2.27591" gradientUnits="userSpaceOnUse">
<stop stop-color="#C86FE5"/>
<stop offset="1" stop-color="#7237A1"/>
</linearGradient>
<linearGradient id="paint1_linear" x1="6" y1="0.204102" x2="58.295" y2="2.27591" gradientUnits="userSpaceOnUse">
<stop stop-color="#C86FE5"/>
<stop offset="1" stop-color="#7237A1"/>
</linearGradient>
<linearGradient id="paint2_linear" x1="6" y1="0.204102" x2="58.295" y2="2.27591" gradientUnits="userSpaceOnUse">
<stop stop-color="#C86FE5"/>
<stop offset="1" stop-color="#7237A1"/>
</linearGradient>
</defs>
</svg>
