<svg xmlns="http://www.w3.org/2000/svg" width="56" height="61" fill="none" viewBox="0 0 56 61"><g filter="url(#filter0_f)" opacity=".15"><path fill="url(#paint0_linear)" d="M25.796 46.2041H24.796V47.2041H25.796V46.2041ZM25.796 41.2601L25.0788 40.5633L24.796 40.8543V41.2601H25.796ZM37.268 29.4521L37.9853 30.149L37.9921 30.1418L37.268 29.4521ZM39.86 19.5641L39.1529 20.2712L39.1598 20.2781L39.1669 20.2849L39.86 19.5641ZM31.124 22.3001L30.6183 23.1628L31.5683 23.7197L32.0313 22.7206L31.124 22.3001ZM25.556 19.0361L24.6469 18.6194L24.2702 19.4415L25.0503 19.8988L25.556 19.0361ZM30.116 13.7561L29.5934 12.9035H29.5934L30.116 13.7561ZM44.468 14.8121L43.8064 15.562L43.8126 15.5674L44.468 14.8121ZM35.636 39.8201L34.9289 39.113L33.2218 40.8201H35.636V39.8201ZM48.26 39.8201H49.26V38.8201H48.26V39.8201ZM48.26 46.2041V47.2041H49.26V46.2041H48.26ZM26.796 46.2041V41.2601H24.796V46.2041H26.796ZM26.5132 41.9569L37.9852 30.1489L36.5508 28.7553L25.0788 40.5633L26.5132 41.9569ZM37.9921 30.1418C39.3057 28.7625 40.3229 27.4655 41.0162 26.2522C41.7069 25.0436 42.108 23.8621 42.108 22.7321H40.108C40.108 23.3941 39.8691 24.2286 39.2798 25.26C38.6931 26.2867 37.7903 27.4537 36.5439 28.7624L37.9921 30.1418ZM42.108 22.7321C42.108 21.1888 41.6087 19.8583 40.5531 18.8433L39.1669 20.2849C39.7753 20.8699 40.108 21.6514 40.108 22.7321H42.108ZM40.5671 18.857C39.5543 17.8442 38.2472 17.3641 36.74 17.3641V19.3641C37.7928 19.3641 38.5657 19.684 39.1529 20.2712L40.5671 18.857ZM36.74 17.3641C35.2934 17.3641 33.9879 17.7429 32.8661 18.5292C31.7523 19.3098 30.8794 20.4495 30.2167 21.8796L32.0313 22.7206C32.5846 21.5267 33.2557 20.6984 34.0139 20.167C34.7641 19.6413 35.6586 19.3641 36.74 19.3641V17.3641ZM31.6297 21.4374L26.0617 18.1734L25.0503 19.8988L30.6183 23.1628L31.6297 21.4374ZM26.4651 19.4528C27.4461 17.3124 28.8389 15.7117 30.6386 14.6087L29.5934 12.9035C27.4251 14.2325 25.7779 16.1518 24.6469 18.6194L26.4651 19.4528ZM30.6386 14.6087C32.4624 13.4909 34.457 12.9321 36.644 12.9321V10.9321C34.095 10.9321 31.7376 11.5893 29.5934 12.9035L30.6386 14.6087ZM36.644 12.9321C39.453 12.9321 41.8224 13.8113 43.8064 15.5619L45.1296 14.0623C42.7616 11.9729 39.915 10.9321 36.644 10.9321V12.9321ZM43.8126 15.5674C45.7416 17.241 46.732 19.5104 46.732 22.4921H48.732C48.732 19.0098 47.5464 16.1592 45.1234 14.0568L43.8126 15.5674ZM46.732 22.4921C46.732 25.6088 45.0887 28.9531 41.5049 32.537L42.9191 33.9512C46.6953 30.1751 48.732 26.3514 48.732 22.4921H46.732ZM41.5049 32.537L34.9289 39.113L36.3431 40.5272L42.9191 33.9512L41.5049 32.537ZM35.636 40.8201H48.26V38.8201H35.636V40.8201ZM47.26 39.8201V46.2041H49.26V39.8201H47.26ZM48.26 45.2041H25.796V47.2041H48.26V45.2041Z"/></g><path fill="url(#paint1_linear)" d="M25.796 46.2041V41.2601L37.268 29.4521C39.828 26.7641 41.108 24.5241 41.108 22.7321C41.108 21.4201 40.692 20.3641 39.86 19.5641C39.06 18.7641 38.02 18.3641 36.74 18.3641C34.212 18.3641 32.34 19.6761 31.124 22.3001L25.556 19.0361C26.612 16.7321 28.132 14.9721 30.116 13.7561C32.1 12.5401 34.276 11.9321 36.644 11.9321C39.684 11.9321 42.292 12.8921 44.468 14.8121C46.644 16.7001 47.732 19.2601 47.732 22.4921C47.732 25.9801 45.892 29.5641 42.212 33.2441L35.636 39.8201H48.26V46.2041H25.796Z" opacity=".05"/><path fill="url(#paint2_linear)" fill-opacity=".5" d="M25.796 46.2041H24.796V47.2041H25.796V46.2041ZM25.796 41.2601L25.0788 40.5633L24.796 40.8543V41.2601H25.796ZM37.268 29.4521L37.9853 30.149L37.9921 30.1418L37.268 29.4521ZM39.86 19.5641L39.1529 20.2712L39.1598 20.2781L39.1669 20.2849L39.86 19.5641ZM31.124 22.3001L30.6183 23.1628L31.5683 23.7197L32.0313 22.7206L31.124 22.3001ZM25.556 19.0361L24.6469 18.6194L24.2702 19.4415L25.0503 19.8988L25.556 19.0361ZM30.116 13.7561L29.5934 12.9035H29.5934L30.116 13.7561ZM44.468 14.8121L43.8064 15.562L43.8126 15.5674L44.468 14.8121ZM35.636 39.8201L34.9289 39.113L33.2218 40.8201H35.636V39.8201ZM48.26 39.8201H49.26V38.8201H48.26V39.8201ZM48.26 46.2041V47.2041H49.26V46.2041H48.26ZM26.796 46.2041V41.2601H24.796V46.2041H26.796ZM26.5132 41.9569L37.9852 30.1489L36.5508 28.7553L25.0788 40.5633L26.5132 41.9569ZM37.9921 30.1418C39.3057 28.7625 40.3229 27.4655 41.0162 26.2522C41.7069 25.0436 42.108 23.8621 42.108 22.7321H40.108C40.108 23.3941 39.8691 24.2286 39.2798 25.26C38.6931 26.2867 37.7903 27.4537 36.5439 28.7624L37.9921 30.1418ZM42.108 22.7321C42.108 21.1888 41.6087 19.8583 40.5531 18.8433L39.1669 20.2849C39.7753 20.8699 40.108 21.6514 40.108 22.7321H42.108ZM40.5671 18.857C39.5543 17.8442 38.2472 17.3641 36.74 17.3641V19.3641C37.7928 19.3641 38.5657 19.684 39.1529 20.2712L40.5671 18.857ZM36.74 17.3641C35.2934 17.3641 33.9879 17.7429 32.8661 18.5292C31.7523 19.3098 30.8794 20.4495 30.2167 21.8796L32.0313 22.7206C32.5846 21.5267 33.2557 20.6984 34.0139 20.167C34.7641 19.6413 35.6586 19.3641 36.74 19.3641V17.3641ZM31.6297 21.4374L26.0617 18.1734L25.0503 19.8988L30.6183 23.1628L31.6297 21.4374ZM26.4651 19.4528C27.4461 17.3124 28.8389 15.7117 30.6386 14.6087L29.5934 12.9035C27.4251 14.2325 25.7779 16.1518 24.6469 18.6194L26.4651 19.4528ZM30.6386 14.6087C32.4624 13.4909 34.457 12.9321 36.644 12.9321V10.9321C34.095 10.9321 31.7376 11.5893 29.5934 12.9035L30.6386 14.6087ZM36.644 12.9321C39.453 12.9321 41.8224 13.8113 43.8064 15.5619L45.1296 14.0623C42.7616 11.9729 39.915 10.9321 36.644 10.9321V12.9321ZM43.8126 15.5674C45.7416 17.241 46.732 19.5104 46.732 22.4921H48.732C48.732 19.0098 47.5464 16.1592 45.1234 14.0568L43.8126 15.5674ZM46.732 22.4921C46.732 25.6088 45.0887 28.9531 41.5049 32.537L42.9191 33.9512C46.6953 30.1751 48.732 26.3514 48.732 22.4921H46.732ZM41.5049 32.537L34.9289 39.113L36.3431 40.5272L42.9191 33.9512L41.5049 32.537ZM35.636 40.8201H48.26V38.8201H35.636V40.8201ZM47.26 39.8201V46.2041H49.26V39.8201H47.26ZM48.26 45.2041H25.796V47.2041H48.26V45.2041Z" opacity=".5"/><defs><filter id="filter0_f" width="36.99" height="48.272" x="18.27" y="4.932" color-interpolation-filters="sRGB" filterUnits="userSpaceOnUse"><feFlood flood-opacity="0" result="BackgroundImageFix"/><feBlend in="SourceGraphic" in2="BackgroundImageFix" mode="normal" result="shape"/><feGaussianBlur result="effect1_foregroundBlur" stdDeviation="3"/></filter><linearGradient id="paint0_linear" x1="0" x2="52.295" y1=".204" y2="2.276" gradientUnits="userSpaceOnUse"><stop stop-color="#C86FE5"/><stop offset="1" stop-color="#7237A1"/></linearGradient><linearGradient id="paint1_linear" x1="0" x2="52.295" y1=".204" y2="2.276" gradientUnits="userSpaceOnUse"><stop stop-color="#C86FE5"/><stop offset="1" stop-color="#7237A1"/></linearGradient><linearGradient id="paint2_linear" x1="0" x2="52.295" y1=".204" y2="2.276" gradientUnits="userSpaceOnUse"><stop stop-color="#C86FE5"/><stop offset="1" stop-color="#7237A1"/></linearGradient></defs></svg>