<svg xmlns="http://www.w3.org/2000/svg" width="56" height="61" fill="none" viewBox="0 0 56 61"><g filter="url(#filter0_f)" opacity=".15"><path fill="url(#paint0_linear)" d="M40.7878 26.2361L39.9956 25.6257L39.1052 26.7813L40.5041 27.195L40.7878 26.2361ZM46.3078 29.7881L45.5383 30.4269L45.5449 30.4347L45.5516 30.4425L46.3078 29.7881ZM44.9638 43.9481L44.3225 43.1807L44.3173 43.1851L44.9638 43.9481ZM29.4118 45.1001L28.9012 45.96L28.9091 45.9646L28.9171 45.9692L29.4118 45.1001ZM24.9478 39.7721L24.4485 38.9057L23.6991 39.3375L24.0184 40.1413L24.9478 39.7721ZM30.6117 36.5081L31.5639 36.2025L31.1854 35.0234L30.1125 35.6417L30.6117 36.5081ZM40.4038 39.1961L41.0567 39.9535L41.0587 39.9518L40.4038 39.1961ZM40.4038 32.5241L39.7362 33.2687L39.7425 33.2743L39.7488 33.2798L40.4038 32.5241ZM35.0278 31.2761L34.1941 31.8284L34.4907 32.2761H35.0278V31.2761ZM32.4837 27.4361L31.6901 26.8277L31.2561 27.3937L31.6501 27.9884L32.4837 27.4361ZM39.1077 18.7961L39.9014 19.4045L41.1345 17.7961H39.1077V18.7961ZM25.9557 18.7961H24.9557V19.7961H25.9557V18.7961ZM25.9557 12.6041V11.6041H24.9557V12.6041H25.9557ZM47.0758 12.6041H48.0758V11.6041H47.0758V12.6041ZM47.0758 18.0761L47.8679 18.6865L48.0758 18.4167V18.0761H47.0758ZM40.5041 27.195C42.601 27.8152 44.2665 28.8949 45.5383 30.4269L47.0772 29.1493C45.533 27.2893 43.5185 26.001 41.0714 25.2772L40.5041 27.195ZM45.5516 30.4425C46.8218 31.9103 47.4678 33.6887 47.4678 35.8361H49.4678C49.4678 33.2475 48.6737 30.9939 47.0639 29.1337L45.5516 30.4425ZM47.4678 35.8361C47.4678 39.0407 46.3988 41.4458 44.3225 43.1807L45.605 44.7155C48.2007 42.5464 49.4678 39.5435 49.4678 35.8361H47.4678ZM44.3173 43.1851C42.2146 44.9666 39.6195 45.8761 36.4678 45.8761V47.8761C40.036 47.8761 43.1049 46.8336 45.6102 44.7111L44.3173 43.1851ZM36.4678 45.8761C34 45.8761 31.8215 45.3211 29.9064 44.231L28.9171 45.9692C31.1621 47.2471 33.6875 47.8761 36.4678 47.8761V45.8761ZM29.9223 44.2402C28.0752 43.1436 26.7284 41.5457 25.8771 39.4029L24.0184 40.1413C25.0231 42.6705 26.6523 44.6247 28.9012 45.96L29.9223 44.2402ZM25.447 40.6385L31.111 37.3745L30.1125 35.6417L24.4485 38.9057L25.447 40.6385ZM29.6596 36.8137C30.1332 38.2891 30.9519 39.464 32.1466 40.2572C33.3305 41.0432 34.7953 41.3961 36.4678 41.3961V39.3961C35.0682 39.3961 34.021 39.101 33.2529 38.591C32.4956 38.0882 31.9223 37.3191 31.5639 36.2025L29.6596 36.8137ZM36.4678 41.3961C38.3116 41.3961 39.8879 40.9611 41.0567 39.9535L39.7508 38.4387C39.0636 39.0312 38.0159 39.3961 36.4678 39.3961V41.3961ZM41.0587 39.9518C42.2632 38.9079 42.8438 37.4988 42.8438 35.8361H40.8438C40.8438 36.9894 40.4643 37.8203 39.7488 38.4404L41.0587 39.9518ZM42.8438 35.8361C42.8438 34.1973 42.2576 32.8075 41.0587 31.7684L39.7488 33.2798C40.4699 33.9047 40.8438 34.7229 40.8438 35.8361H42.8438ZM41.0713 31.7795C39.9025 30.7317 38.3204 30.2761 36.4678 30.2761V32.2761C38.0071 32.2761 39.049 32.6525 39.7362 33.2687L41.0713 31.7795ZM36.4678 30.2761H35.0278V32.2761H36.4678V30.2761ZM35.8614 30.7238L33.3174 26.8838L31.6501 27.9884L34.1941 31.8284L35.8614 30.7238ZM33.2774 28.0445L39.9014 19.4045L38.3141 18.1877L31.6901 26.8277L33.2774 28.0445ZM39.1077 17.7961H25.9557V19.7961H39.1077V17.7961ZM26.9557 18.7961V12.6041H24.9557V18.7961H26.9557ZM25.9557 13.6041H47.0758V11.6041H25.9557V13.6041ZM46.0758 12.6041V18.0761H48.0758V12.6041H46.0758ZM46.2836 17.4657L39.9956 25.6257L41.5799 26.8465L47.8679 18.6865L46.2836 17.4657Z"/></g><path fill="url(#paint1_linear)" d="M40.7878 26.2361C43.0598 26.9081 44.8998 28.0921 46.3078 29.7881C47.7478 31.4521 48.4678 33.4681 48.4678 35.8361C48.4678 39.2921 47.2998 41.9961 44.9638 43.9481C42.6598 45.9001 39.8278 46.8761 36.4678 46.8761C33.8438 46.8761 31.4918 46.2841 29.4118 45.1001C27.3638 43.8841 25.8758 42.1081 24.9478 39.7721L30.6118 36.5081C31.4438 39.1001 33.3958 40.3961 36.4678 40.3961C38.1638 40.3961 39.4758 39.9961 40.4038 39.1961C41.3638 38.3641 41.8438 37.2441 41.8438 35.8361C41.8438 34.4601 41.3638 33.3561 40.4038 32.5241C39.4758 31.6921 38.1638 31.2761 36.4678 31.2761H35.0278L32.4838 27.4361L39.1078 18.7961H25.9558V12.6041H47.0758V18.0761L40.7878 26.2361Z" opacity=".05"/><path fill="url(#paint2_linear)" fill-opacity=".5" d="M40.7878 26.2361L39.9956 25.6257L39.1052 26.7813L40.5041 27.195L40.7878 26.2361ZM46.3078 29.7881L45.5383 30.4269L45.5449 30.4347L45.5516 30.4425L46.3078 29.7881ZM44.9638 43.9481L44.3225 43.1807L44.3173 43.1851L44.9638 43.9481ZM29.4118 45.1001L28.9012 45.96L28.9091 45.9646L28.9171 45.9692L29.4118 45.1001ZM24.9478 39.7721L24.4485 38.9057L23.6991 39.3375L24.0184 40.1413L24.9478 39.7721ZM30.6117 36.5081L31.5639 36.2025L31.1854 35.0234L30.1125 35.6417L30.6117 36.5081ZM40.4038 39.1961L41.0567 39.9535L41.0587 39.9518L40.4038 39.1961ZM40.4038 32.5241L39.7362 33.2687L39.7425 33.2743L39.7488 33.2798L40.4038 32.5241ZM35.0278 31.2761L34.1941 31.8284L34.4907 32.2761H35.0278V31.2761ZM32.4837 27.4361L31.6901 26.8277L31.2561 27.3937L31.6501 27.9884L32.4837 27.4361ZM39.1077 18.7961L39.9014 19.4045L41.1345 17.7961H39.1077V18.7961ZM25.9557 18.7961H24.9557V19.7961H25.9557V18.7961ZM25.9557 12.6041V11.6041H24.9557V12.6041H25.9557ZM47.0758 12.6041H48.0758V11.6041H47.0758V12.6041ZM47.0758 18.0761L47.8679 18.6865L48.0758 18.4167V18.0761H47.0758ZM40.5041 27.195C42.601 27.8152 44.2665 28.8949 45.5383 30.4269L47.0772 29.1493C45.533 27.2893 43.5185 26.001 41.0714 25.2772L40.5041 27.195ZM45.5516 30.4425C46.8218 31.9103 47.4678 33.6887 47.4678 35.8361H49.4678C49.4678 33.2475 48.6737 30.9939 47.0639 29.1337L45.5516 30.4425ZM47.4678 35.8361C47.4678 39.0407 46.3988 41.4458 44.3225 43.1807L45.605 44.7155C48.2007 42.5464 49.4678 39.5435 49.4678 35.8361H47.4678ZM44.3173 43.1851C42.2146 44.9666 39.6195 45.8761 36.4678 45.8761V47.8761C40.036 47.8761 43.1049 46.8336 45.6102 44.7111L44.3173 43.1851ZM36.4678 45.8761C34 45.8761 31.8215 45.3211 29.9064 44.231L28.9171 45.9692C31.1621 47.2471 33.6875 47.8761 36.4678 47.8761V45.8761ZM29.9223 44.2402C28.0752 43.1436 26.7284 41.5457 25.8771 39.4029L24.0184 40.1413C25.0231 42.6705 26.6523 44.6247 28.9012 45.96L29.9223 44.2402ZM25.447 40.6385L31.111 37.3745L30.1125 35.6417L24.4485 38.9057L25.447 40.6385ZM29.6596 36.8137C30.1332 38.2891 30.9519 39.464 32.1466 40.2572C33.3305 41.0432 34.7953 41.3961 36.4678 41.3961V39.3961C35.0682 39.3961 34.021 39.101 33.2529 38.591C32.4956 38.0882 31.9223 37.3191 31.5639 36.2025L29.6596 36.8137ZM36.4678 41.3961C38.3116 41.3961 39.8879 40.9611 41.0567 39.9535L39.7508 38.4387C39.0636 39.0312 38.0159 39.3961 36.4678 39.3961V41.3961ZM41.0587 39.9518C42.2632 38.9079 42.8438 37.4988 42.8438 35.8361H40.8438C40.8438 36.9894 40.4643 37.8203 39.7488 38.4404L41.0587 39.9518ZM42.8438 35.8361C42.8438 34.1973 42.2576 32.8075 41.0587 31.7684L39.7488 33.2798C40.4699 33.9047 40.8438 34.7229 40.8438 35.8361H42.8438ZM41.0713 31.7795C39.9025 30.7317 38.3204 30.2761 36.4678 30.2761V32.2761C38.0071 32.2761 39.049 32.6525 39.7362 33.2687L41.0713 31.7795ZM36.4678 30.2761H35.0278V32.2761H36.4678V30.2761ZM35.8614 30.7238L33.3174 26.8838L31.6501 27.9884L34.1941 31.8284L35.8614 30.7238ZM33.2774 28.0445L39.9014 19.4045L38.3141 18.1877L31.6901 26.8277L33.2774 28.0445ZM39.1077 17.7961H25.9557V19.7961H39.1077V17.7961ZM26.9557 18.7961V12.6041H24.9557V18.7961H26.9557ZM25.9557 13.6041H47.0758V11.6041H25.9557V13.6041ZM46.0758 12.6041V18.0761H48.0758V12.6041H46.0758ZM46.2836 17.4657L39.9956 25.6257L41.5799 26.8465L47.8679 18.6865L46.2836 17.4657Z" opacity=".5"/><defs><filter id="filter0_f" width="37.769" height="48.272" x="17.699" y="5.604" color-interpolation-filters="sRGB" filterUnits="userSpaceOnUse"><feFlood flood-opacity="0" result="BackgroundImageFix"/><feBlend in="SourceGraphic" in2="BackgroundImageFix" mode="normal" result="shape"/><feGaussianBlur result="effect1_foregroundBlur" stdDeviation="3"/></filter><linearGradient id="paint0_linear" x1="0" x2="52.295" y1=".204" y2="2.276" gradientUnits="userSpaceOnUse"><stop stop-color="#C86FE5"/><stop offset="1" stop-color="#7237A1"/></linearGradient><linearGradient id="paint1_linear" x1="0" x2="52.295" y1=".204" y2="2.276" gradientUnits="userSpaceOnUse"><stop stop-color="#C86FE5"/><stop offset="1" stop-color="#7237A1"/></linearGradient><linearGradient id="paint2_linear" x1="0" x2="52.295" y1=".204" y2="2.276" gradientUnits="userSpaceOnUse"><stop stop-color="#C86FE5"/><stop offset="1" stop-color="#7237A1"/></linearGradient></defs></svg>