<svg xmlns="http://www.w3.org/2000/svg" width="56" height="61" fill="none" viewBox="0 0 56 61"><g filter="url(#filter0_f)" opacity=".15"><path fill="url(#paint0_linear)" d="M45.3031 27.7721L44.6408 28.5213L44.6469 28.5267L45.3031 27.7721ZM45.1111 43.9481L44.4699 43.1807L44.4647 43.1851L45.1111 43.9481ZM29.4151 45.0521L28.9104 45.9154L29.4151 45.0521ZM24.9031 39.6761L24.3983 38.8129L23.66 39.2446L23.9721 40.041L24.9031 39.6761ZM30.5671 36.3641L31.5224 36.0684L31.1499 34.8649L30.0623 35.5009L30.5671 36.3641ZM40.5511 39.1961L41.2041 39.9535L41.2061 39.9518L40.5511 39.1961ZM40.5991 32.5241L41.2667 31.7795L40.5991 32.5241ZM26.6311 31.2761L25.6337 31.2043L25.5566 32.2761H26.6311V31.2761ZM27.9751 12.6041V11.6041H27.0445L26.9777 12.5323L27.9751 12.6041ZM47.0311 12.6041H48.0311V11.6041H47.0311V12.6041ZM47.0311 18.7961V19.7961H48.0311V18.7961H47.0311ZM34.1191 18.7961V17.7961H33.188L33.1217 18.7249L34.1191 18.7961ZM33.6871 24.8441L32.6897 24.7729L32.6131 25.8441H33.6871V24.8441ZM37.1431 25.8441C40.1566 25.8441 42.6338 26.747 44.6408 28.5213L45.9655 27.0229C43.5565 24.8932 40.5937 23.8441 37.1431 23.8441V25.8441ZM44.6469 28.5267C46.5965 30.2219 47.6151 32.6118 47.6151 35.8361H49.6151C49.6151 32.1484 48.4258 29.1623 45.9593 27.0175L44.6469 28.5267ZM47.6151 35.8361C47.6151 39.0407 46.5462 41.4458 44.4699 43.1807L45.7523 44.7155C48.3481 42.5464 49.6151 39.5435 49.6151 35.8361H47.6151ZM44.4647 43.1851C42.362 44.9666 39.7669 45.8761 36.6151 45.8761V47.8761C40.1834 47.8761 43.2523 46.8336 45.7575 44.7111L44.4647 43.1851ZM36.6151 45.8761C34.0492 45.8761 31.8277 45.3042 29.9198 44.1888L28.9104 45.9154C31.1625 47.232 33.7411 47.8761 36.6151 47.8761V45.8761ZM29.9198 44.1888C28.0452 43.0929 26.685 41.4824 25.8342 39.3112L23.9721 40.041C24.9772 42.6058 26.625 44.5793 28.9104 45.9154L29.9198 44.1888ZM25.4079 40.5393L31.0719 37.2273L30.0623 35.5009L24.3983 38.8129L25.4079 40.5393ZM29.6118 36.6598C30.0843 38.1861 30.9192 39.4007 32.1484 40.2201C33.3658 41.0317 34.88 41.3961 36.6151 41.3961V39.3961C35.1503 39.3961 34.0564 39.0885 33.2578 38.556C32.4711 38.0315 31.882 37.2301 31.5224 36.0684L29.6118 36.6598ZM36.6151 41.3961C38.459 41.3961 40.0353 40.9611 41.2041 39.9535L39.8982 38.4387C39.2109 39.0312 38.1633 39.3961 36.6151 39.3961V41.3961ZM41.2061 39.9518C42.4105 38.9079 42.9911 37.4988 42.9911 35.8361H40.9911C40.9911 36.9894 40.6117 37.8203 39.8962 38.4404L41.2061 39.9518ZM42.9911 35.8361C42.9911 34.209 42.4296 32.8222 41.2667 31.7795L39.9316 33.2687C40.6246 33.89 40.9911 34.7112 40.9911 35.8361H42.9911ZM41.2667 31.7795C40.1079 30.7406 38.5815 30.2761 36.8071 30.2761V32.2761C38.2327 32.2761 39.2344 32.6436 39.9316 33.2687L41.2667 31.7795ZM36.8071 30.2761H26.6311V32.2761H36.8071V30.2761ZM27.6285 31.3479L28.9725 12.6759L26.9777 12.5323L25.6337 31.2043L27.6285 31.3479ZM27.9751 13.6041H47.0311V11.6041H27.9751V13.6041ZM46.0311 12.6041V18.7961H48.0311V12.6041H46.0311ZM47.0311 17.7961H34.1191V19.7961H47.0311V17.7961ZM33.1217 18.7249L32.6897 24.7729L34.6846 24.9153L35.1166 18.8673L33.1217 18.7249ZM33.6871 25.8441H37.1431V23.8441H33.6871V25.8441Z"/></g><path fill="url(#paint1_linear)" d="M37.1431 24.8441C40.3751 24.8441 43.0951 25.8201 45.3031 27.7721C47.5111 29.6921 48.6151 32.3801 48.6151 35.8361C48.6151 39.2921 47.4471 41.9961 45.1111 43.9481C42.8071 45.9001 39.9751 46.8761 36.6151 46.8761C33.8951 46.8761 31.4951 46.2681 29.4151 45.0521C27.3351 43.8361 25.8311 42.0441 24.9031 39.6761L30.5671 36.3641C31.3991 39.0521 33.4151 40.3961 36.6151 40.3961C38.3111 40.3961 39.6231 39.9961 40.5511 39.1961C41.5111 38.3641 41.9911 37.2441 41.9911 35.8361C41.9911 34.4601 41.5271 33.3561 40.5991 32.5241C39.6711 31.6921 38.4071 31.2761 36.8071 31.2761H26.6311L27.9751 12.6041H47.0311V18.7961H34.1191L33.6871 24.8441H37.1431Z" opacity=".05"/><path fill="url(#paint2_linear)" fill-opacity=".5" d="M45.3031 27.7721L44.6408 28.5213L44.6469 28.5267L45.3031 27.7721ZM45.1111 43.9481L44.4699 43.1807L44.4647 43.1851L45.1111 43.9481ZM29.4151 45.0521L28.9104 45.9154L29.4151 45.0521ZM24.9031 39.6761L24.3983 38.8129L23.66 39.2446L23.9721 40.041L24.9031 39.6761ZM30.5671 36.3641L31.5224 36.0684L31.1499 34.8649L30.0623 35.5009L30.5671 36.3641ZM40.5511 39.1961L41.2041 39.9535L41.2061 39.9518L40.5511 39.1961ZM40.5991 32.5241L41.2667 31.7795L40.5991 32.5241ZM26.6311 31.2761L25.6337 31.2043L25.5566 32.2761H26.6311V31.2761ZM27.9751 12.6041V11.6041H27.0445L26.9777 12.5323L27.9751 12.6041ZM47.0311 12.6041H48.0311V11.6041H47.0311V12.6041ZM47.0311 18.7961V19.7961H48.0311V18.7961H47.0311ZM34.1191 18.7961V17.7961H33.188L33.1217 18.7249L34.1191 18.7961ZM33.6871 24.8441L32.6897 24.7729L32.6131 25.8441H33.6871V24.8441ZM37.1431 25.8441C40.1566 25.8441 42.6338 26.747 44.6408 28.5213L45.9655 27.0229C43.5565 24.8932 40.5937 23.8441 37.1431 23.8441V25.8441ZM44.6469 28.5267C46.5965 30.2219 47.6151 32.6118 47.6151 35.8361H49.6151C49.6151 32.1484 48.4258 29.1623 45.9593 27.0175L44.6469 28.5267ZM47.6151 35.8361C47.6151 39.0407 46.5462 41.4458 44.4699 43.1807L45.7523 44.7155C48.3481 42.5464 49.6151 39.5435 49.6151 35.8361H47.6151ZM44.4647 43.1851C42.362 44.9666 39.7669 45.8761 36.6151 45.8761V47.8761C40.1834 47.8761 43.2523 46.8336 45.7575 44.7111L44.4647 43.1851ZM36.6151 45.8761C34.0492 45.8761 31.8277 45.3042 29.9198 44.1888L28.9104 45.9154C31.1625 47.232 33.7411 47.8761 36.6151 47.8761V45.8761ZM29.9198 44.1888C28.0452 43.0929 26.685 41.4824 25.8342 39.3112L23.9721 40.041C24.9772 42.6058 26.625 44.5793 28.9104 45.9154L29.9198 44.1888ZM25.4079 40.5393L31.0719 37.2273L30.0623 35.5009L24.3983 38.8129L25.4079 40.5393ZM29.6118 36.6598C30.0843 38.1861 30.9192 39.4007 32.1484 40.2201C33.3658 41.0317 34.88 41.3961 36.6151 41.3961V39.3961C35.1503 39.3961 34.0564 39.0885 33.2578 38.556C32.4711 38.0315 31.882 37.2301 31.5224 36.0684L29.6118 36.6598ZM36.6151 41.3961C38.459 41.3961 40.0353 40.9611 41.2041 39.9535L39.8982 38.4387C39.2109 39.0312 38.1633 39.3961 36.6151 39.3961V41.3961ZM41.2061 39.9518C42.4105 38.9079 42.9911 37.4988 42.9911 35.8361H40.9911C40.9911 36.9894 40.6117 37.8203 39.8962 38.4404L41.2061 39.9518ZM42.9911 35.8361C42.9911 34.209 42.4296 32.8222 41.2667 31.7795L39.9316 33.2687C40.6246 33.89 40.9911 34.7112 40.9911 35.8361H42.9911ZM41.2667 31.7795C40.1079 30.7406 38.5815 30.2761 36.8071 30.2761V32.2761C38.2327 32.2761 39.2344 32.6436 39.9316 33.2687L41.2667 31.7795ZM36.8071 30.2761H26.6311V32.2761H36.8071V30.2761ZM27.6285 31.3479L28.9725 12.6759L26.9777 12.5323L25.6337 31.2043L27.6285 31.3479ZM27.9751 13.6041H47.0311V11.6041H27.9751V13.6041ZM46.0311 12.6041V18.7961H48.0311V12.6041H46.0311ZM47.0311 17.7961H34.1191V19.7961H47.0311V17.7961ZM33.1217 18.7249L32.6897 24.7729L34.6846 24.9153L35.1166 18.8673L33.1217 18.7249ZM33.6871 25.8441H37.1431V23.8441H33.6871V25.8441Z" opacity=".5"/><defs><filter id="filter0_f" width="37.955" height="48.272" x="17.66" y="5.604" color-interpolation-filters="sRGB" filterUnits="userSpaceOnUse"><feFlood flood-opacity="0" result="BackgroundImageFix"/><feBlend in="SourceGraphic" in2="BackgroundImageFix" mode="normal" result="shape"/><feGaussianBlur result="effect1_foregroundBlur" stdDeviation="3"/></filter><linearGradient id="paint0_linear" x1="0" x2="52.295" y1=".204" y2="2.276" gradientUnits="userSpaceOnUse"><stop stop-color="#C86FE5"/><stop offset="1" stop-color="#7237A1"/></linearGradient><linearGradient id="paint1_linear" x1="0" x2="52.295" y1=".204" y2="2.276" gradientUnits="userSpaceOnUse"><stop stop-color="#C86FE5"/><stop offset="1" stop-color="#7237A1"/></linearGradient><linearGradient id="paint2_linear" x1="0" x2="52.295" y1=".204" y2="2.276" gradientUnits="userSpaceOnUse"><stop stop-color="#C86FE5"/><stop offset="1" stop-color="#7237A1"/></linearGradient></defs></svg>