<svg width="56" height="61" viewBox="0 0 56 61" fill="none" xmlns="http://www.w3.org/2000/svg">
<g opacity="0.15" filter="url(#filter0_f)">
<path d="M37.1488 23.5001L36.3229 22.9362L35.2897 24.4493L37.1212 24.4997L37.1488 23.5001ZM45.6448 26.9081L44.9376 27.6152L44.9429 27.6204L45.6448 26.9081ZM45.5008 43.6121L46.1925 44.3343L46.1977 44.3292L45.5008 43.6121ZM27.9328 43.6121L27.2359 44.3294L27.2411 44.3343L27.9328 43.6121ZM26.5408 28.3961L27.3707 28.9539L27.3744 28.9485L26.5408 28.3961ZM37.0047 12.6041V11.6041H36.4678L36.1711 12.0517L37.0047 12.6041ZM44.5888 12.6041L45.4146 13.168L46.4825 11.6041H44.5888V12.6041ZM32.7327 39.1481L32.0481 39.8769H32.0481L32.7327 39.1481ZM40.7008 39.1481L40.027 38.4091L40.0215 38.4142L40.0161 38.4193L40.7008 39.1481ZM40.7008 31.2281L40.0161 31.9569L40.0215 31.962L40.027 31.9671L40.7008 31.2281ZM32.7327 31.2281L33.4054 31.968L33.4115 31.9625L33.4174 31.9569L32.7327 31.2281ZM37.1212 24.4997C40.3906 24.5897 42.967 25.6446 44.9376 27.6152L46.3519 26.201C43.9705 23.8196 40.8829 22.6025 37.1763 22.5005L37.1212 24.4997ZM44.9429 27.6204C46.9081 29.5568 47.9088 32.0424 47.9088 35.1641H49.9088C49.9088 31.5658 48.7334 28.5474 46.3466 26.1958L44.9429 27.6204ZM47.9088 35.1641C47.9088 38.3421 46.8654 40.8915 44.8038 42.895L46.1977 44.3292C48.6801 41.9167 49.9088 38.8341 49.9088 35.1641H47.9088ZM44.8091 42.8899C42.7494 44.8625 40.0818 45.8761 36.7168 45.8761V47.8761C40.5197 47.8761 43.7081 46.7137 46.1924 44.3343L44.8091 42.8899ZM36.7168 45.8761C33.3517 45.8761 30.6841 44.8625 28.6244 42.8899L27.2411 44.3343C29.7254 46.7137 32.9138 47.8761 36.7168 47.8761V45.8761ZM28.6295 42.8948C26.605 40.9282 25.5728 38.3816 25.5728 35.1641H23.5728C23.5728 38.8586 24.7805 41.944 27.236 44.3294L28.6295 42.8948ZM25.5728 35.1641C25.5728 32.7844 26.1794 30.7264 27.3707 28.9539L25.7108 27.8383C24.2781 29.9698 23.5728 32.4238 23.5728 35.1641H25.5728ZM27.3744 28.9485L37.8384 13.1565L36.1711 12.0517L25.7071 27.8437L27.3744 28.9485ZM37.0047 13.6041H44.5888V11.6041H37.0047V13.6041ZM43.7629 12.0402L36.3229 22.9362L37.9746 24.064L45.4146 13.168L43.7629 12.0402ZM32.0481 39.8769C33.3095 41.0619 34.8912 41.6361 36.7168 41.6361V39.6361C35.3423 39.6361 34.268 39.2183 33.4174 38.4193L32.0481 39.8769ZM36.7168 41.6361C38.5423 41.6361 40.124 41.0619 41.3854 39.8769L40.0161 38.4193C39.1655 39.2183 38.0912 39.6361 36.7168 39.6361V41.6361ZM41.3745 39.8871C42.6985 38.6799 43.3327 37.0688 43.3327 35.1641H41.3327C41.3327 36.5874 40.879 37.6323 40.027 38.4091L41.3745 39.8871ZM43.3327 35.1641C43.3327 33.2848 42.6941 31.6923 41.3745 30.4891L40.027 31.9671C40.8834 32.7479 41.3327 33.7794 41.3327 35.1641H43.3327ZM41.3854 30.4993C40.124 29.3143 38.5423 28.7401 36.7168 28.7401V30.7401C38.0912 30.7401 39.1655 31.1579 40.0161 31.9569L41.3854 30.4993ZM36.7168 28.7401C34.8912 28.7401 33.3095 29.3143 32.0481 30.4993L33.4174 31.9569C34.268 31.1579 35.3423 30.7401 36.7168 30.7401V28.7401ZM32.0601 30.4882C30.7605 31.6696 30.1488 33.2696 30.1488 35.1641H32.1488C32.1488 33.7306 32.593 32.7066 33.4054 31.968L32.0601 30.4882ZM30.1488 35.1641C30.1488 37.0592 30.7603 38.6672 32.0481 39.8769L33.4174 38.4193C32.5932 37.645 32.1488 36.597 32.1488 35.1641H30.1488Z" fill="url(#paint0_linear)"/>
</g>
<path opacity="0.05" d="M37.1488 23.5001C40.6368 23.5961 43.4688 24.7321 45.6448 26.9081C47.8208 29.0521 48.9088 31.8041 48.9088 35.1641C48.9088 38.5881 47.7728 41.4041 45.5008 43.6121C43.2288 45.7881 40.3008 46.8761 36.7168 46.8761C33.1328 46.8761 30.2048 45.7881 27.9328 43.6121C25.6928 41.4361 24.5728 38.6201 24.5728 35.1641C24.5728 32.6041 25.2288 30.3481 26.5408 28.3961L37.0048 12.6041H44.5888L37.1488 23.5001ZM32.7328 39.1481C33.7888 40.1401 35.1168 40.6361 36.7168 40.6361C38.3168 40.6361 39.6448 40.1401 40.7008 39.1481C41.7888 38.1561 42.3328 36.8281 42.3328 35.1641C42.3328 33.5321 41.7888 32.2201 40.7008 31.2281C39.6448 30.2361 38.3168 29.7401 36.7168 29.7401C35.1168 29.7401 33.7888 30.2361 32.7328 31.2281C31.6768 32.1881 31.1488 33.5001 31.1488 35.1641C31.1488 36.8281 31.6768 38.1561 32.7328 39.1481Z" fill="url(#paint1_linear)"/>
<path opacity="0.5" d="M37.1488 23.5001L36.3229 22.9362L35.2897 24.4493L37.1212 24.4997L37.1488 23.5001ZM45.6448 26.9081L44.9376 27.6152L44.9429 27.6204L45.6448 26.9081ZM45.5008 43.6121L46.1925 44.3343L46.1977 44.3292L45.5008 43.6121ZM27.9328 43.6121L27.2359 44.3294L27.2411 44.3343L27.9328 43.6121ZM26.5408 28.3961L27.3707 28.9539L27.3744 28.9485L26.5408 28.3961ZM37.0047 12.6041V11.6041H36.4678L36.1711 12.0517L37.0047 12.6041ZM44.5888 12.6041L45.4146 13.168L46.4825 11.6041H44.5888V12.6041ZM32.7327 39.1481L32.0481 39.8769H32.0481L32.7327 39.1481ZM40.7008 39.1481L40.027 38.4091L40.0215 38.4142L40.0161 38.4193L40.7008 39.1481ZM40.7008 31.2281L40.0161 31.9569L40.0215 31.962L40.027 31.9671L40.7008 31.2281ZM32.7327 31.2281L33.4054 31.968L33.4115 31.9625L33.4174 31.9569L32.7327 31.2281ZM37.1212 24.4997C40.3906 24.5897 42.967 25.6446 44.9376 27.6152L46.3519 26.201C43.9705 23.8196 40.8829 22.6025 37.1763 22.5005L37.1212 24.4997ZM44.9429 27.6204C46.9081 29.5568 47.9088 32.0424 47.9088 35.1641H49.9088C49.9088 31.5658 48.7334 28.5474 46.3466 26.1958L44.9429 27.6204ZM47.9088 35.1641C47.9088 38.3421 46.8654 40.8915 44.8038 42.895L46.1977 44.3292C48.6801 41.9167 49.9088 38.8341 49.9088 35.1641H47.9088ZM44.8091 42.8899C42.7494 44.8625 40.0818 45.8761 36.7168 45.8761V47.8761C40.5197 47.8761 43.7081 46.7137 46.1924 44.3343L44.8091 42.8899ZM36.7168 45.8761C33.3517 45.8761 30.6841 44.8625 28.6244 42.8899L27.2411 44.3343C29.7254 46.7137 32.9138 47.8761 36.7168 47.8761V45.8761ZM28.6295 42.8948C26.605 40.9282 25.5728 38.3816 25.5728 35.1641H23.5728C23.5728 38.8586 24.7805 41.944 27.236 44.3294L28.6295 42.8948ZM25.5728 35.1641C25.5728 32.7844 26.1794 30.7264 27.3707 28.9539L25.7108 27.8383C24.2781 29.9698 23.5728 32.4238 23.5728 35.1641H25.5728ZM27.3744 28.9485L37.8384 13.1565L36.1711 12.0517L25.7071 27.8437L27.3744 28.9485ZM37.0047 13.6041H44.5888V11.6041H37.0047V13.6041ZM43.7629 12.0402L36.3229 22.9362L37.9746 24.064L45.4146 13.168L43.7629 12.0402ZM32.0481 39.8769C33.3095 41.0619 34.8912 41.6361 36.7168 41.6361V39.6361C35.3423 39.6361 34.268 39.2183 33.4174 38.4193L32.0481 39.8769ZM36.7168 41.6361C38.5423 41.6361 40.124 41.0619 41.3854 39.8769L40.0161 38.4193C39.1655 39.2183 38.0912 39.6361 36.7168 39.6361V41.6361ZM41.3745 39.8871C42.6985 38.6799 43.3327 37.0688 43.3327 35.1641H41.3327C41.3327 36.5874 40.879 37.6323 40.027 38.4091L41.3745 39.8871ZM43.3327 35.1641C43.3327 33.2848 42.6941 31.6923 41.3745 30.4891L40.027 31.9671C40.8834 32.7479 41.3327 33.7794 41.3327 35.1641H43.3327ZM41.3854 30.4993C40.124 29.3143 38.5423 28.7401 36.7168 28.7401V30.7401C38.0912 30.7401 39.1655 31.1579 40.0161 31.9569L41.3854 30.4993ZM36.7168 28.7401C34.8912 28.7401 33.3095 29.3143 32.0481 30.4993L33.4174 31.9569C34.268 31.1579 35.3423 30.7401 36.7168 30.7401V28.7401ZM32.0601 30.4882C30.7605 31.6696 30.1488 33.2696 30.1488 35.1641H32.1488C32.1488 33.7306 32.593 32.7066 33.4054 31.968L32.0601 30.4882ZM30.1488 35.1641C30.1488 37.0592 30.7603 38.6672 32.0481 39.8769L33.4174 38.4193C32.5932 37.645 32.1488 36.597 32.1488 35.1641H30.1488Z" fill="url(#paint2_linear)" fill-opacity="0.5"/>
<defs>
<filter id="filter0_f" x="17.5728" y="5.60449" width="38.336" height="48.272" filterUnits="userSpaceOnUse" color-interpolation-filters="sRGB">
<feFlood flood-opacity="0" result="BackgroundImageFix"/>
<feBlend mode="normal" in="SourceGraphic" in2="BackgroundImageFix" result="shape"/>
<feGaussianBlur stdDeviation="3" result="effect1_foregroundBlur"/>
</filter>
<linearGradient id="paint0_linear" x1="0" y1="0.204102" x2="52.295" y2="2.27591" gradientUnits="userSpaceOnUse">
<stop stop-color="#C86FE5"/>
<stop offset="1" stop-color="#7237A1"/>
</linearGradient>
<linearGradient id="paint1_linear" x1="0" y1="0.204102" x2="52.295" y2="2.27591" gradientUnits="userSpaceOnUse">
<stop stop-color="#C86FE5"/>
<stop offset="1" stop-color="#7237A1"/>
</linearGradient>
<linearGradient id="paint2_linear" x1="0" y1="0.204102" x2="52.295" y2="2.27591" gradientUnits="userSpaceOnUse">
<stop stop-color="#C86FE5"/>
<stop offset="1" stop-color="#7237A1"/>
</linearGradient>
</defs>
</svg>
