<svg xmlns="http://www.w3.org/2000/svg" width="24" height="25" fill="none" viewBox="0 0 24 25"><path fill="#333" d="M12.0112 20.3886L7.80322 15.9402L9.16534 14.6517L12.0075 17.6563L14.8328 14.6536L16.1984 15.9384L12.0112 20.3886ZM12 4.02246C11.4822 4.02246 11.0625 4.44214 11.0625 4.95996C11.0625 5.47778 11.4822 5.89746 12 5.89746C12.5178 5.89746 12.9375 5.47778 12.9375 4.95996C12.9375 4.44214 12.5178 4.02246 12 4.02246ZM12 7.77246C11.4822 7.77246 11.0625 8.19214 11.0625 8.70996C11.0625 9.22778 11.4822 9.64746 12 9.64746C12.5178 9.64746 12.9375 9.22778 12.9375 8.70996C12.9375 8.19214 12.5178 7.77246 12 7.77246ZM12 11.5225C11.4822 11.5225 11.0625 11.9421 11.0625 12.46C11.0625 12.9778 11.4822 13.3975 12 13.3975C12.5178 13.3975 12.9375 12.9778 12.9375 12.46C12.9375 11.9421 12.5178 11.5225 12 11.5225Z"/></svg>