<svg width="0" height="0" class="hidden"><symbol xmlns="http://www.w3.org/2000/svg" id="1" fill="none" viewBox="0 0 54 61"><g opacity=".15"><path fill="#7237A1" d="M40.7975 12.6041V11.6041H40.6261L40.4644 11.6612L40.7975 12.6041ZM46.5575 12.6041H47.5575V11.6041H46.5575V12.6041ZM46.5575 46.2041V47.2041H47.5575V46.2041H46.5575ZM39.9335 46.2041H38.9335V47.2041H39.9335V46.2041ZM39.9335 19.6121H40.9335V18.2933L39.6636 18.6492L39.9335 19.6121ZM33.5975 21.3881L32.6366 21.665L32.9115 22.6189L33.8674 22.351L33.5975 21.3881ZM31.9655 15.7241L31.6324 14.7812L30.7436 15.0952L31.0046 16.001L31.9655 15.7241ZM40.7975 13.6041H46.5575V11.6041H40.7975V13.6041ZM45.5575 12.6041V46.2041H47.5575V12.6041H45.5575ZM46.5575 45.2041H39.9335V47.2041H46.5575V45.2041ZM40.9335 46.2041V19.6121H38.9335V46.2041H40.9335ZM39.6636 18.6492L33.3276 20.4252L33.8674 22.351L40.2034 20.575L39.6636 18.6492ZM34.5584 21.1112L32.9264 15.4472L31.0046 16.001L32.6366 21.665L34.5584 21.1112ZM32.2986 16.667L41.1306 13.547L40.4644 11.6612L31.6324 14.7812L32.2986 16.667Z"/></g><path fill="#7237A1" d="M40.7975 12.6041H46.5575V46.2041H39.9335V19.6121L33.5975 21.3881L31.9655 15.7241L40.7975 12.6041Z" opacity=".05"/><path fill="#7237A1" fill-opacity=".5" d="M40.7975 12.6041V11.6041H40.6261L40.4644 11.6612L40.7975 12.6041ZM46.5575 12.6041H47.5575V11.6041H46.5575V12.6041ZM46.5575 46.2041V47.2041H47.5575V46.2041H46.5575ZM39.9335 46.2041H38.9335V47.2041H39.9335V46.2041ZM39.9335 19.6121H40.9335V18.2933L39.6636 18.6492L39.9335 19.6121ZM33.5975 21.3881L32.6366 21.665L32.9115 22.6189L33.8674 22.351L33.5975 21.3881ZM31.9655 15.7241L31.6324 14.7812L30.7436 15.0952L31.0046 16.001L31.9655 15.7241ZM40.7975 13.6041H46.5575V11.6041H40.7975V13.6041ZM45.5575 12.6041V46.2041H47.5575V12.6041H45.5575ZM46.5575 45.2041H39.9335V47.2041H46.5575V45.2041ZM40.9335 46.2041V19.6121H38.9335V46.2041H40.9335ZM39.6636 18.6492L33.3276 20.4252L33.8674 22.351L40.2034 20.575L39.6636 18.6492ZM34.5584 21.1112L32.9264 15.4472L31.0046 16.001L32.6366 21.665L34.5584 21.1112ZM32.2986 16.667L41.1306 13.547L40.4644 11.6612L31.6324 14.7812L32.2986 16.667Z" opacity=".5"/><filter id="filter0_f" width="28.814" height="47.6" x="24.744" y="5.604" color-interpolation-filters="sRGB" filterUnits="userSpaceOnUse"><feFlood flood-opacity="0" result="BackgroundImageFix"/><feBlend in="SourceGraphic" in2="BackgroundImageFix" mode="normal" result="shape"/><feGaussianBlur result="effect1_foregroundBlur" stdDeviation="3"/></filter><linearGradient id="paint0_linear" x1="0" x2="52.295" y1=".204" y2="2.276" gradientUnits="userSpaceOnUse"><stop stop-color="#C86FE5"/><stop offset="1" stop-color="#7237A1"/></linearGradient><linearGradient id="paint1_linear" x1="0" x2="52.295" y1=".204" y2="2.276" gradientUnits="userSpaceOnUse"><stop stop-color="#C86FE5"/><stop offset="1" stop-color="#7237A1"/></linearGradient><linearGradient id="paint2_linear" x1="0" x2="52.295" y1=".204" y2="2.276" gradientUnits="userSpaceOnUse"><stop stop-color="#C86FE5"/><stop offset="1" stop-color="#7237A1"/></linearGradient></symbol><symbol xmlns="http://www.w3.org/2000/svg" id="2" fill="none" viewBox="0 0 56 61"><g opacity=".15"><path fill="#7237A1" d="M25.796 46.2041H24.796V47.2041H25.796V46.2041ZM25.796 41.2601L25.0788 40.5633L24.796 40.8543V41.2601H25.796ZM37.268 29.4521L37.9853 30.149L37.9921 30.1418L37.268 29.4521ZM39.86 19.5641L39.1529 20.2712L39.1598 20.2781L39.1669 20.2849L39.86 19.5641ZM31.124 22.3001L30.6183 23.1628L31.5683 23.7197L32.0313 22.7206L31.124 22.3001ZM25.556 19.0361L24.6469 18.6194L24.2702 19.4415L25.0503 19.8988L25.556 19.0361ZM30.116 13.7561L29.5934 12.9035H29.5934L30.116 13.7561ZM44.468 14.8121L43.8064 15.562L43.8126 15.5674L44.468 14.8121ZM35.636 39.8201L34.9289 39.113L33.2218 40.8201H35.636V39.8201ZM48.26 39.8201H49.26V38.8201H48.26V39.8201ZM48.26 46.2041V47.2041H49.26V46.2041H48.26ZM26.796 46.2041V41.2601H24.796V46.2041H26.796ZM26.5132 41.9569L37.9852 30.1489L36.5508 28.7553L25.0788 40.5633L26.5132 41.9569ZM37.9921 30.1418C39.3057 28.7625 40.3229 27.4655 41.0162 26.2522C41.7069 25.0436 42.108 23.8621 42.108 22.7321H40.108C40.108 23.3941 39.8691 24.2286 39.2798 25.26C38.6931 26.2867 37.7903 27.4537 36.5439 28.7624L37.9921 30.1418ZM42.108 22.7321C42.108 21.1888 41.6087 19.8583 40.5531 18.8433L39.1669 20.2849C39.7753 20.8699 40.108 21.6514 40.108 22.7321H42.108ZM40.5671 18.857C39.5543 17.8442 38.2472 17.3641 36.74 17.3641V19.3641C37.7928 19.3641 38.5657 19.684 39.1529 20.2712L40.5671 18.857ZM36.74 17.3641C35.2934 17.3641 33.9879 17.7429 32.8661 18.5292C31.7523 19.3098 30.8794 20.4495 30.2167 21.8796L32.0313 22.7206C32.5846 21.5267 33.2557 20.6984 34.0139 20.167C34.7641 19.6413 35.6586 19.3641 36.74 19.3641V17.3641ZM31.6297 21.4374L26.0617 18.1734L25.0503 19.8988L30.6183 23.1628L31.6297 21.4374ZM26.4651 19.4528C27.4461 17.3124 28.8389 15.7117 30.6386 14.6087L29.5934 12.9035C27.4251 14.2325 25.7779 16.1518 24.6469 18.6194L26.4651 19.4528ZM30.6386 14.6087C32.4624 13.4909 34.457 12.9321 36.644 12.9321V10.9321C34.095 10.9321 31.7376 11.5893 29.5934 12.9035L30.6386 14.6087ZM36.644 12.9321C39.453 12.9321 41.8224 13.8113 43.8064 15.5619L45.1296 14.0623C42.7616 11.9729 39.915 10.9321 36.644 10.9321V12.9321ZM43.8126 15.5674C45.7416 17.241 46.732 19.5104 46.732 22.4921H48.732C48.732 19.0098 47.5464 16.1592 45.1234 14.0568L43.8126 15.5674ZM46.732 22.4921C46.732 25.6088 45.0887 28.9531 41.5049 32.537L42.9191 33.9512C46.6953 30.1751 48.732 26.3514 48.732 22.4921H46.732ZM41.5049 32.537L34.9289 39.113L36.3431 40.5272L42.9191 33.9512L41.5049 32.537ZM35.636 40.8201H48.26V38.8201H35.636V40.8201ZM47.26 39.8201V46.2041H49.26V39.8201H47.26ZM48.26 45.2041H25.796V47.2041H48.26V45.2041Z"/></g><path fill="#7237A1" d="M25.796 46.2041V41.2601L37.268 29.4521C39.828 26.7641 41.108 24.5241 41.108 22.7321C41.108 21.4201 40.692 20.3641 39.86 19.5641C39.06 18.7641 38.02 18.3641 36.74 18.3641C34.212 18.3641 32.34 19.6761 31.124 22.3001L25.556 19.0361C26.612 16.7321 28.132 14.9721 30.116 13.7561C32.1 12.5401 34.276 11.9321 36.644 11.9321C39.684 11.9321 42.292 12.8921 44.468 14.8121C46.644 16.7001 47.732 19.2601 47.732 22.4921C47.732 25.9801 45.892 29.5641 42.212 33.2441L35.636 39.8201H48.26V46.2041H25.796Z" opacity=".05"/><path fill="#7237A1" fill-opacity=".5" d="M25.796 46.2041H24.796V47.2041H25.796V46.2041ZM25.796 41.2601L25.0788 40.5633L24.796 40.8543V41.2601H25.796ZM37.268 29.4521L37.9853 30.149L37.9921 30.1418L37.268 29.4521ZM39.86 19.5641L39.1529 20.2712L39.1598 20.2781L39.1669 20.2849L39.86 19.5641ZM31.124 22.3001L30.6183 23.1628L31.5683 23.7197L32.0313 22.7206L31.124 22.3001ZM25.556 19.0361L24.6469 18.6194L24.2702 19.4415L25.0503 19.8988L25.556 19.0361ZM30.116 13.7561L29.5934 12.9035H29.5934L30.116 13.7561ZM44.468 14.8121L43.8064 15.562L43.8126 15.5674L44.468 14.8121ZM35.636 39.8201L34.9289 39.113L33.2218 40.8201H35.636V39.8201ZM48.26 39.8201H49.26V38.8201H48.26V39.8201ZM48.26 46.2041V47.2041H49.26V46.2041H48.26ZM26.796 46.2041V41.2601H24.796V46.2041H26.796ZM26.5132 41.9569L37.9852 30.1489L36.5508 28.7553L25.0788 40.5633L26.5132 41.9569ZM37.9921 30.1418C39.3057 28.7625 40.3229 27.4655 41.0162 26.2522C41.7069 25.0436 42.108 23.8621 42.108 22.7321H40.108C40.108 23.3941 39.8691 24.2286 39.2798 25.26C38.6931 26.2867 37.7903 27.4537 36.5439 28.7624L37.9921 30.1418ZM42.108 22.7321C42.108 21.1888 41.6087 19.8583 40.5531 18.8433L39.1669 20.2849C39.7753 20.8699 40.108 21.6514 40.108 22.7321H42.108ZM40.5671 18.857C39.5543 17.8442 38.2472 17.3641 36.74 17.3641V19.3641C37.7928 19.3641 38.5657 19.684 39.1529 20.2712L40.5671 18.857ZM36.74 17.3641C35.2934 17.3641 33.9879 17.7429 32.8661 18.5292C31.7523 19.3098 30.8794 20.4495 30.2167 21.8796L32.0313 22.7206C32.5846 21.5267 33.2557 20.6984 34.0139 20.167C34.7641 19.6413 35.6586 19.3641 36.74 19.3641V17.3641ZM31.6297 21.4374L26.0617 18.1734L25.0503 19.8988L30.6183 23.1628L31.6297 21.4374ZM26.4651 19.4528C27.4461 17.3124 28.8389 15.7117 30.6386 14.6087L29.5934 12.9035C27.4251 14.2325 25.7779 16.1518 24.6469 18.6194L26.4651 19.4528ZM30.6386 14.6087C32.4624 13.4909 34.457 12.9321 36.644 12.9321V10.9321C34.095 10.9321 31.7376 11.5893 29.5934 12.9035L30.6386 14.6087ZM36.644 12.9321C39.453 12.9321 41.8224 13.8113 43.8064 15.5619L45.1296 14.0623C42.7616 11.9729 39.915 10.9321 36.644 10.9321V12.9321ZM43.8126 15.5674C45.7416 17.241 46.732 19.5104 46.732 22.4921H48.732C48.732 19.0098 47.5464 16.1592 45.1234 14.0568L43.8126 15.5674ZM46.732 22.4921C46.732 25.6088 45.0887 28.9531 41.5049 32.537L42.9191 33.9512C46.6953 30.1751 48.732 26.3514 48.732 22.4921H46.732ZM41.5049 32.537L34.9289 39.113L36.3431 40.5272L42.9191 33.9512L41.5049 32.537ZM35.636 40.8201H48.26V38.8201H35.636V40.8201ZM47.26 39.8201V46.2041H49.26V39.8201H47.26ZM48.26 45.2041H25.796V47.2041H48.26V45.2041Z" opacity=".5"/></symbol><symbol xmlns="http://www.w3.org/2000/svg" id="3" fill="none" viewBox="0 0 56 61"><g opacity=".15"><path fill="#7237A1" d="M40.7878 26.2361L39.9956 25.6257L39.1052 26.7813L40.5041 27.195L40.7878 26.2361ZM46.3078 29.7881L45.5383 30.4269L45.5449 30.4347L45.5516 30.4425L46.3078 29.7881ZM44.9638 43.9481L44.3225 43.1807L44.3173 43.1851L44.9638 43.9481ZM29.4118 45.1001L28.9012 45.96L28.9091 45.9646L28.9171 45.9692L29.4118 45.1001ZM24.9478 39.7721L24.4485 38.9057L23.6991 39.3375L24.0184 40.1413L24.9478 39.7721ZM30.6117 36.5081L31.5639 36.2025L31.1854 35.0234L30.1125 35.6417L30.6117 36.5081ZM40.4038 39.1961L41.0567 39.9535L41.0587 39.9518L40.4038 39.1961ZM40.4038 32.5241L39.7362 33.2687L39.7425 33.2743L39.7488 33.2798L40.4038 32.5241ZM35.0278 31.2761L34.1941 31.8284L34.4907 32.2761H35.0278V31.2761ZM32.4837 27.4361L31.6901 26.8277L31.2561 27.3937L31.6501 27.9884L32.4837 27.4361ZM39.1077 18.7961L39.9014 19.4045L41.1345 17.7961H39.1077V18.7961ZM25.9557 18.7961H24.9557V19.7961H25.9557V18.7961ZM25.9557 12.6041V11.6041H24.9557V12.6041H25.9557ZM47.0758 12.6041H48.0758V11.6041H47.0758V12.6041ZM47.0758 18.0761L47.8679 18.6865L48.0758 18.4167V18.0761H47.0758ZM40.5041 27.195C42.601 27.8152 44.2665 28.8949 45.5383 30.4269L47.0772 29.1493C45.533 27.2893 43.5185 26.001 41.0714 25.2772L40.5041 27.195ZM45.5516 30.4425C46.8218 31.9103 47.4678 33.6887 47.4678 35.8361H49.4678C49.4678 33.2475 48.6737 30.9939 47.0639 29.1337L45.5516 30.4425ZM47.4678 35.8361C47.4678 39.0407 46.3988 41.4458 44.3225 43.1807L45.605 44.7155C48.2007 42.5464 49.4678 39.5435 49.4678 35.8361H47.4678ZM44.3173 43.1851C42.2146 44.9666 39.6195 45.8761 36.4678 45.8761V47.8761C40.036 47.8761 43.1049 46.8336 45.6102 44.7111L44.3173 43.1851ZM36.4678 45.8761C34 45.8761 31.8215 45.3211 29.9064 44.231L28.9171 45.9692C31.1621 47.2471 33.6875 47.8761 36.4678 47.8761V45.8761ZM29.9223 44.2402C28.0752 43.1436 26.7284 41.5457 25.8771 39.4029L24.0184 40.1413C25.0231 42.6705 26.6523 44.6247 28.9012 45.96L29.9223 44.2402ZM25.447 40.6385L31.111 37.3745L30.1125 35.6417L24.4485 38.9057L25.447 40.6385ZM29.6596 36.8137C30.1332 38.2891 30.9519 39.464 32.1466 40.2572C33.3305 41.0432 34.7953 41.3961 36.4678 41.3961V39.3961C35.0682 39.3961 34.021 39.101 33.2529 38.591C32.4956 38.0882 31.9223 37.3191 31.5639 36.2025L29.6596 36.8137ZM36.4678 41.3961C38.3116 41.3961 39.8879 40.9611 41.0567 39.9535L39.7508 38.4387C39.0636 39.0312 38.0159 39.3961 36.4678 39.3961V41.3961ZM41.0587 39.9518C42.2632 38.9079 42.8438 37.4988 42.8438 35.8361H40.8438C40.8438 36.9894 40.4643 37.8203 39.7488 38.4404L41.0587 39.9518ZM42.8438 35.8361C42.8438 34.1973 42.2576 32.8075 41.0587 31.7684L39.7488 33.2798C40.4699 33.9047 40.8438 34.7229 40.8438 35.8361H42.8438ZM41.0713 31.7795C39.9025 30.7317 38.3204 30.2761 36.4678 30.2761V32.2761C38.0071 32.2761 39.049 32.6525 39.7362 33.2687L41.0713 31.7795ZM36.4678 30.2761H35.0278V32.2761H36.4678V30.2761ZM35.8614 30.7238L33.3174 26.8838L31.6501 27.9884L34.1941 31.8284L35.8614 30.7238ZM33.2774 28.0445L39.9014 19.4045L38.3141 18.1877L31.6901 26.8277L33.2774 28.0445ZM39.1077 17.7961H25.9557V19.7961H39.1077V17.7961ZM26.9557 18.7961V12.6041H24.9557V18.7961H26.9557ZM25.9557 13.6041H47.0758V11.6041H25.9557V13.6041ZM46.0758 12.6041V18.0761H48.0758V12.6041H46.0758ZM46.2836 17.4657L39.9956 25.6257L41.5799 26.8465L47.8679 18.6865L46.2836 17.4657Z"/></g><path fill="#7237A1" d="M40.7878 26.2361C43.0598 26.9081 44.8998 28.0921 46.3078 29.7881C47.7478 31.4521 48.4678 33.4681 48.4678 35.8361C48.4678 39.2921 47.2998 41.9961 44.9638 43.9481C42.6598 45.9001 39.8278 46.8761 36.4678 46.8761C33.8438 46.8761 31.4918 46.2841 29.4118 45.1001C27.3638 43.8841 25.8758 42.1081 24.9478 39.7721L30.6118 36.5081C31.4438 39.1001 33.3958 40.3961 36.4678 40.3961C38.1638 40.3961 39.4758 39.9961 40.4038 39.1961C41.3638 38.3641 41.8438 37.2441 41.8438 35.8361C41.8438 34.4601 41.3638 33.3561 40.4038 32.5241C39.4758 31.6921 38.1638 31.2761 36.4678 31.2761H35.0278L32.4838 27.4361L39.1078 18.7961H25.9558V12.6041H47.0758V18.0761L40.7878 26.2361Z" opacity=".05"/><path fill="#7237A1" fill-opacity=".5" d="M40.7878 26.2361L39.9956 25.6257L39.1052 26.7813L40.5041 27.195L40.7878 26.2361ZM46.3078 29.7881L45.5383 30.4269L45.5449 30.4347L45.5516 30.4425L46.3078 29.7881ZM44.9638 43.9481L44.3225 43.1807L44.3173 43.1851L44.9638 43.9481ZM29.4118 45.1001L28.9012 45.96L28.9091 45.9646L28.9171 45.9692L29.4118 45.1001ZM24.9478 39.7721L24.4485 38.9057L23.6991 39.3375L24.0184 40.1413L24.9478 39.7721ZM30.6117 36.5081L31.5639 36.2025L31.1854 35.0234L30.1125 35.6417L30.6117 36.5081ZM40.4038 39.1961L41.0567 39.9535L41.0587 39.9518L40.4038 39.1961ZM40.4038 32.5241L39.7362 33.2687L39.7425 33.2743L39.7488 33.2798L40.4038 32.5241ZM35.0278 31.2761L34.1941 31.8284L34.4907 32.2761H35.0278V31.2761ZM32.4837 27.4361L31.6901 26.8277L31.2561 27.3937L31.6501 27.9884L32.4837 27.4361ZM39.1077 18.7961L39.9014 19.4045L41.1345 17.7961H39.1077V18.7961ZM25.9557 18.7961H24.9557V19.7961H25.9557V18.7961ZM25.9557 12.6041V11.6041H24.9557V12.6041H25.9557ZM47.0758 12.6041H48.0758V11.6041H47.0758V12.6041ZM47.0758 18.0761L47.8679 18.6865L48.0758 18.4167V18.0761H47.0758ZM40.5041 27.195C42.601 27.8152 44.2665 28.8949 45.5383 30.4269L47.0772 29.1493C45.533 27.2893 43.5185 26.001 41.0714 25.2772L40.5041 27.195ZM45.5516 30.4425C46.8218 31.9103 47.4678 33.6887 47.4678 35.8361H49.4678C49.4678 33.2475 48.6737 30.9939 47.0639 29.1337L45.5516 30.4425ZM47.4678 35.8361C47.4678 39.0407 46.3988 41.4458 44.3225 43.1807L45.605 44.7155C48.2007 42.5464 49.4678 39.5435 49.4678 35.8361H47.4678ZM44.3173 43.1851C42.2146 44.9666 39.6195 45.8761 36.4678 45.8761V47.8761C40.036 47.8761 43.1049 46.8336 45.6102 44.7111L44.3173 43.1851ZM36.4678 45.8761C34 45.8761 31.8215 45.3211 29.9064 44.231L28.9171 45.9692C31.1621 47.2471 33.6875 47.8761 36.4678 47.8761V45.8761ZM29.9223 44.2402C28.0752 43.1436 26.7284 41.5457 25.8771 39.4029L24.0184 40.1413C25.0231 42.6705 26.6523 44.6247 28.9012 45.96L29.9223 44.2402ZM25.447 40.6385L31.111 37.3745L30.1125 35.6417L24.4485 38.9057L25.447 40.6385ZM29.6596 36.8137C30.1332 38.2891 30.9519 39.464 32.1466 40.2572C33.3305 41.0432 34.7953 41.3961 36.4678 41.3961V39.3961C35.0682 39.3961 34.021 39.101 33.2529 38.591C32.4956 38.0882 31.9223 37.3191 31.5639 36.2025L29.6596 36.8137ZM36.4678 41.3961C38.3116 41.3961 39.8879 40.9611 41.0567 39.9535L39.7508 38.4387C39.0636 39.0312 38.0159 39.3961 36.4678 39.3961V41.3961ZM41.0587 39.9518C42.2632 38.9079 42.8438 37.4988 42.8438 35.8361H40.8438C40.8438 36.9894 40.4643 37.8203 39.7488 38.4404L41.0587 39.9518ZM42.8438 35.8361C42.8438 34.1973 42.2576 32.8075 41.0587 31.7684L39.7488 33.2798C40.4699 33.9047 40.8438 34.7229 40.8438 35.8361H42.8438ZM41.0713 31.7795C39.9025 30.7317 38.3204 30.2761 36.4678 30.2761V32.2761C38.0071 32.2761 39.049 32.6525 39.7362 33.2687L41.0713 31.7795ZM36.4678 30.2761H35.0278V32.2761H36.4678V30.2761ZM35.8614 30.7238L33.3174 26.8838L31.6501 27.9884L34.1941 31.8284L35.8614 30.7238ZM33.2774 28.0445L39.9014 19.4045L38.3141 18.1877L31.6901 26.8277L33.2774 28.0445ZM39.1077 17.7961H25.9557V19.7961H39.1077V17.7961ZM26.9557 18.7961V12.6041H24.9557V18.7961H26.9557ZM25.9557 13.6041H47.0758V11.6041H25.9557V13.6041ZM46.0758 12.6041V18.0761H48.0758V12.6041H46.0758ZM46.2836 17.4657L39.9956 25.6257L41.5799 26.8465L47.8679 18.6865L46.2836 17.4657Z" opacity=".5"/></symbol><symbol xmlns="http://www.w3.org/2000/svg" id="4" fill="none" viewBox="0 0 57 61"><g opacity=".15"><path fill="#7237A1" d="M49.3243 34.3481H50.3243V33.3481H49.3243V34.3481ZM49.3243 40.4921V41.4921H50.3243V40.4921H49.3243ZM45.7243 40.4921V39.4921H44.7243V40.4921H45.7243ZM45.7243 46.2041V47.2041H46.7243V46.2041H45.7243ZM39.0522 46.2041H38.0522V47.2041H39.0522V46.2041ZM39.0522 40.4921H40.0522V39.4921H39.0522V40.4921ZM23.1642 40.4921H22.1642V41.4921H23.1642V40.4921ZM23.1642 34.3481L22.275 33.8907L22.1642 34.106V34.3481H23.1642ZM34.3483 12.6041V11.6041H33.7381L33.459 12.1467L34.3483 12.6041ZM41.4523 12.6041L42.3423 13.0599L43.0879 11.6041H41.4523V12.6041ZM30.3162 34.3481L29.4262 33.8923L28.6806 35.3481H30.3162V34.3481ZM39.0522 34.3481V35.3481H40.0522V34.3481H39.0522ZM39.0522 26.3801V25.3801H38.0522V26.3801H39.0522ZM45.7243 26.3801H46.7243V25.3801H45.7243V26.3801ZM45.7243 34.3481H44.7243V35.3481H45.7243V34.3481ZM48.3243 34.3481V40.4921H50.3243V34.3481H48.3243ZM49.3243 39.4921H45.7243V41.4921H49.3243V39.4921ZM44.7243 40.4921V46.2041H46.7243V40.4921H44.7243ZM45.7243 45.2041H39.0522V47.2041H45.7243V45.2041ZM40.0522 46.2041V40.4921H38.0522V46.2041H40.0522ZM39.0522 39.4921H23.1642V41.4921H39.0522V39.4921ZM24.1642 40.4921V34.3481H22.1642V40.4921H24.1642ZM24.0535 34.8055L35.2375 13.0615L33.459 12.1467L22.275 33.8907L24.0535 34.8055ZM34.3483 13.6041H41.4523V11.6041H34.3483V13.6041ZM40.5622 12.1483L29.4262 33.8923L31.2063 34.8039L42.3423 13.0599L40.5622 12.1483ZM30.3162 35.3481H39.0522V33.3481H30.3162V35.3481ZM40.0522 34.3481V26.3801H38.0522V34.3481H40.0522ZM39.0522 27.3801H45.7243V25.3801H39.0522V27.3801ZM44.7243 26.3801V34.3481H46.7243V26.3801H44.7243ZM45.7243 35.3481H49.3243V33.3481H45.7243V35.3481Z"/></g><path fill="#7237A1" d="M49.3243 34.3481V40.4921H45.7243V46.2041H39.0523V40.4921H23.1643V34.3481L34.3483 12.6041H41.4523L30.3163 34.3481H39.0523V26.3801H45.7243V34.3481H49.3243Z" opacity=".05"/><path fill="#7237A1" fill-opacity=".5" d="M49.3243 34.3481H50.3243V33.3481H49.3243V34.3481ZM49.3243 40.4921V41.4921H50.3243V40.4921H49.3243ZM45.7243 40.4921V39.4921H44.7243V40.4921H45.7243ZM45.7243 46.2041V47.2041H46.7243V46.2041H45.7243ZM39.0522 46.2041H38.0522V47.2041H39.0522V46.2041ZM39.0522 40.4921H40.0522V39.4921H39.0522V40.4921ZM23.1642 40.4921H22.1642V41.4921H23.1642V40.4921ZM23.1642 34.3481L22.275 33.8907L22.1642 34.106V34.3481H23.1642ZM34.3483 12.6041V11.6041H33.7381L33.459 12.1467L34.3483 12.6041ZM41.4523 12.6041L42.3423 13.0599L43.0879 11.6041H41.4523V12.6041ZM30.3162 34.3481L29.4262 33.8923L28.6806 35.3481H30.3162V34.3481ZM39.0522 34.3481V35.3481H40.0522V34.3481H39.0522ZM39.0522 26.3801V25.3801H38.0522V26.3801H39.0522ZM45.7243 26.3801H46.7243V25.3801H45.7243V26.3801ZM45.7243 34.3481H44.7243V35.3481H45.7243V34.3481ZM48.3243 34.3481V40.4921H50.3243V34.3481H48.3243ZM49.3243 39.4921H45.7243V41.4921H49.3243V39.4921ZM44.7243 40.4921V46.2041H46.7243V40.4921H44.7243ZM45.7243 45.2041H39.0522V47.2041H45.7243V45.2041ZM40.0522 46.2041V40.4921H38.0522V46.2041H40.0522ZM39.0522 39.4921H23.1642V41.4921H39.0522V39.4921ZM24.1642 40.4921V34.3481H22.1642V40.4921H24.1642ZM24.0535 34.8055L35.2375 13.0615L33.459 12.1467L22.275 33.8907L24.0535 34.8055ZM34.3483 13.6041H41.4523V11.6041H34.3483V13.6041ZM40.5622 12.1483L29.4262 33.8923L31.2063 34.8039L42.3423 13.0599L40.5622 12.1483ZM30.3162 35.3481H39.0522V33.3481H30.3162V35.3481ZM40.0522 34.3481V26.3801H38.0522V34.3481H40.0522ZM39.0522 27.3801H45.7243V25.3801H39.0522V27.3801ZM44.7243 26.3801V34.3481H46.7243V26.3801H44.7243ZM45.7243 35.3481H49.3243V33.3481H45.7243V35.3481Z" opacity=".5"/></symbol><symbol xmlns="http://www.w3.org/2000/svg" id="5" fill="none" viewBox="0 0 56 61"><g opacity=".15"><path fill="#7237A1" d="M45.3031 27.7721L44.6408 28.5213L44.6469 28.5267L45.3031 27.7721ZM45.1111 43.9481L44.4699 43.1807L44.4647 43.1851L45.1111 43.9481ZM29.4151 45.0521L28.9104 45.9154L29.4151 45.0521ZM24.9031 39.6761L24.3983 38.8129L23.66 39.2446L23.9721 40.041L24.9031 39.6761ZM30.5671 36.3641L31.5224 36.0684L31.1499 34.8649L30.0623 35.5009L30.5671 36.3641ZM40.5511 39.1961L41.2041 39.9535L41.2061 39.9518L40.5511 39.1961ZM40.5991 32.5241L41.2667 31.7795L40.5991 32.5241ZM26.6311 31.2761L25.6337 31.2043L25.5566 32.2761H26.6311V31.2761ZM27.9751 12.6041V11.6041H27.0445L26.9777 12.5323L27.9751 12.6041ZM47.0311 12.6041H48.0311V11.6041H47.0311V12.6041ZM47.0311 18.7961V19.7961H48.0311V18.7961H47.0311ZM34.1191 18.7961V17.7961H33.188L33.1217 18.7249L34.1191 18.7961ZM33.6871 24.8441L32.6897 24.7729L32.6131 25.8441H33.6871V24.8441ZM37.1431 25.8441C40.1566 25.8441 42.6338 26.747 44.6408 28.5213L45.9655 27.0229C43.5565 24.8932 40.5937 23.8441 37.1431 23.8441V25.8441ZM44.6469 28.5267C46.5965 30.2219 47.6151 32.6118 47.6151 35.8361H49.6151C49.6151 32.1484 48.4258 29.1623 45.9593 27.0175L44.6469 28.5267ZM47.6151 35.8361C47.6151 39.0407 46.5462 41.4458 44.4699 43.1807L45.7523 44.7155C48.3481 42.5464 49.6151 39.5435 49.6151 35.8361H47.6151ZM44.4647 43.1851C42.362 44.9666 39.7669 45.8761 36.6151 45.8761V47.8761C40.1834 47.8761 43.2523 46.8336 45.7575 44.7111L44.4647 43.1851ZM36.6151 45.8761C34.0492 45.8761 31.8277 45.3042 29.9198 44.1888L28.9104 45.9154C31.1625 47.232 33.7411 47.8761 36.6151 47.8761V45.8761ZM29.9198 44.1888C28.0452 43.0929 26.685 41.4824 25.8342 39.3112L23.9721 40.041C24.9772 42.6058 26.625 44.5793 28.9104 45.9154L29.9198 44.1888ZM25.4079 40.5393L31.0719 37.2273L30.0623 35.5009L24.3983 38.8129L25.4079 40.5393ZM29.6118 36.6598C30.0843 38.1861 30.9192 39.4007 32.1484 40.2201C33.3658 41.0317 34.88 41.3961 36.6151 41.3961V39.3961C35.1503 39.3961 34.0564 39.0885 33.2578 38.556C32.4711 38.0315 31.882 37.2301 31.5224 36.0684L29.6118 36.6598ZM36.6151 41.3961C38.459 41.3961 40.0353 40.9611 41.2041 39.9535L39.8982 38.4387C39.2109 39.0312 38.1633 39.3961 36.6151 39.3961V41.3961ZM41.2061 39.9518C42.4105 38.9079 42.9911 37.4988 42.9911 35.8361H40.9911C40.9911 36.9894 40.6117 37.8203 39.8962 38.4404L41.2061 39.9518ZM42.9911 35.8361C42.9911 34.209 42.4296 32.8222 41.2667 31.7795L39.9316 33.2687C40.6246 33.89 40.9911 34.7112 40.9911 35.8361H42.9911ZM41.2667 31.7795C40.1079 30.7406 38.5815 30.2761 36.8071 30.2761V32.2761C38.2327 32.2761 39.2344 32.6436 39.9316 33.2687L41.2667 31.7795ZM36.8071 30.2761H26.6311V32.2761H36.8071V30.2761ZM27.6285 31.3479L28.9725 12.6759L26.9777 12.5323L25.6337 31.2043L27.6285 31.3479ZM27.9751 13.6041H47.0311V11.6041H27.9751V13.6041ZM46.0311 12.6041V18.7961H48.0311V12.6041H46.0311ZM47.0311 17.7961H34.1191V19.7961H47.0311V17.7961ZM33.1217 18.7249L32.6897 24.7729L34.6846 24.9153L35.1166 18.8673L33.1217 18.7249ZM33.6871 25.8441H37.1431V23.8441H33.6871V25.8441Z"/></g><path fill="#7237A1" d="M37.1431 24.8441C40.3751 24.8441 43.0951 25.8201 45.3031 27.7721C47.5111 29.6921 48.6151 32.3801 48.6151 35.8361C48.6151 39.2921 47.4471 41.9961 45.1111 43.9481C42.8071 45.9001 39.9751 46.8761 36.6151 46.8761C33.8951 46.8761 31.4951 46.2681 29.4151 45.0521C27.3351 43.8361 25.8311 42.0441 24.9031 39.6761L30.5671 36.3641C31.3991 39.0521 33.4151 40.3961 36.6151 40.3961C38.3111 40.3961 39.6231 39.9961 40.5511 39.1961C41.5111 38.3641 41.9911 37.2441 41.9911 35.8361C41.9911 34.4601 41.5271 33.3561 40.5991 32.5241C39.6711 31.6921 38.4071 31.2761 36.8071 31.2761H26.6311L27.9751 12.6041H47.0311V18.7961H34.1191L33.6871 24.8441H37.1431Z" opacity=".05"/><path fill="#7237A1" fill-opacity=".5" d="M45.3031 27.7721L44.6408 28.5213L44.6469 28.5267L45.3031 27.7721ZM45.1111 43.9481L44.4699 43.1807L44.4647 43.1851L45.1111 43.9481ZM29.4151 45.0521L28.9104 45.9154L29.4151 45.0521ZM24.9031 39.6761L24.3983 38.8129L23.66 39.2446L23.9721 40.041L24.9031 39.6761ZM30.5671 36.3641L31.5224 36.0684L31.1499 34.8649L30.0623 35.5009L30.5671 36.3641ZM40.5511 39.1961L41.2041 39.9535L41.2061 39.9518L40.5511 39.1961ZM40.5991 32.5241L41.2667 31.7795L40.5991 32.5241ZM26.6311 31.2761L25.6337 31.2043L25.5566 32.2761H26.6311V31.2761ZM27.9751 12.6041V11.6041H27.0445L26.9777 12.5323L27.9751 12.6041ZM47.0311 12.6041H48.0311V11.6041H47.0311V12.6041ZM47.0311 18.7961V19.7961H48.0311V18.7961H47.0311ZM34.1191 18.7961V17.7961H33.188L33.1217 18.7249L34.1191 18.7961ZM33.6871 24.8441L32.6897 24.7729L32.6131 25.8441H33.6871V24.8441ZM37.1431 25.8441C40.1566 25.8441 42.6338 26.747 44.6408 28.5213L45.9655 27.0229C43.5565 24.8932 40.5937 23.8441 37.1431 23.8441V25.8441ZM44.6469 28.5267C46.5965 30.2219 47.6151 32.6118 47.6151 35.8361H49.6151C49.6151 32.1484 48.4258 29.1623 45.9593 27.0175L44.6469 28.5267ZM47.6151 35.8361C47.6151 39.0407 46.5462 41.4458 44.4699 43.1807L45.7523 44.7155C48.3481 42.5464 49.6151 39.5435 49.6151 35.8361H47.6151ZM44.4647 43.1851C42.362 44.9666 39.7669 45.8761 36.6151 45.8761V47.8761C40.1834 47.8761 43.2523 46.8336 45.7575 44.7111L44.4647 43.1851ZM36.6151 45.8761C34.0492 45.8761 31.8277 45.3042 29.9198 44.1888L28.9104 45.9154C31.1625 47.232 33.7411 47.8761 36.6151 47.8761V45.8761ZM29.9198 44.1888C28.0452 43.0929 26.685 41.4824 25.8342 39.3112L23.9721 40.041C24.9772 42.6058 26.625 44.5793 28.9104 45.9154L29.9198 44.1888ZM25.4079 40.5393L31.0719 37.2273L30.0623 35.5009L24.3983 38.8129L25.4079 40.5393ZM29.6118 36.6598C30.0843 38.1861 30.9192 39.4007 32.1484 40.2201C33.3658 41.0317 34.88 41.3961 36.6151 41.3961V39.3961C35.1503 39.3961 34.0564 39.0885 33.2578 38.556C32.4711 38.0315 31.882 37.2301 31.5224 36.0684L29.6118 36.6598ZM36.6151 41.3961C38.459 41.3961 40.0353 40.9611 41.2041 39.9535L39.8982 38.4387C39.2109 39.0312 38.1633 39.3961 36.6151 39.3961V41.3961ZM41.2061 39.9518C42.4105 38.9079 42.9911 37.4988 42.9911 35.8361H40.9911C40.9911 36.9894 40.6117 37.8203 39.8962 38.4404L41.2061 39.9518ZM42.9911 35.8361C42.9911 34.209 42.4296 32.8222 41.2667 31.7795L39.9316 33.2687C40.6246 33.89 40.9911 34.7112 40.9911 35.8361H42.9911ZM41.2667 31.7795C40.1079 30.7406 38.5815 30.2761 36.8071 30.2761V32.2761C38.2327 32.2761 39.2344 32.6436 39.9316 33.2687L41.2667 31.7795ZM36.8071 30.2761H26.6311V32.2761H36.8071V30.2761ZM27.6285 31.3479L28.9725 12.6759L26.9777 12.5323L25.6337 31.2043L27.6285 31.3479ZM27.9751 13.6041H47.0311V11.6041H27.9751V13.6041ZM46.0311 12.6041V18.7961H48.0311V12.6041H46.0311ZM47.0311 17.7961H34.1191V19.7961H47.0311V17.7961ZM33.1217 18.7249L32.6897 24.7729L34.6846 24.9153L35.1166 18.8673L33.1217 18.7249ZM33.6871 25.8441H37.1431V23.8441H33.6871V25.8441Z" opacity=".5"/></symbol><symbol xmlns="http://www.w3.org/2000/svg" id="6" fill="none" viewBox="0 0 56 61"><g opacity=".15"><path fill="#7237A1" d="M37.1488 23.5001L36.3229 22.9362L35.2897 24.4493L37.1212 24.4997L37.1488 23.5001ZM45.6448 26.9081L44.9376 27.6152L44.9429 27.6204L45.6448 26.9081ZM45.5008 43.6121L46.1925 44.3343L46.1977 44.3292L45.5008 43.6121ZM27.9328 43.6121L27.2359 44.3294L27.2411 44.3343L27.9328 43.6121ZM26.5408 28.3961L27.3707 28.9539L27.3744 28.9485L26.5408 28.3961ZM37.0047 12.6041V11.6041H36.4678L36.1711 12.0517L37.0047 12.6041ZM44.5888 12.6041L45.4146 13.168L46.4825 11.6041H44.5888V12.6041ZM32.7327 39.1481L32.0481 39.8769H32.0481L32.7327 39.1481ZM40.7008 39.1481L40.027 38.4091L40.0215 38.4142L40.0161 38.4193L40.7008 39.1481ZM40.7008 31.2281L40.0161 31.9569L40.0215 31.962L40.027 31.9671L40.7008 31.2281ZM32.7327 31.2281L33.4054 31.968L33.4115 31.9625L33.4174 31.9569L32.7327 31.2281ZM37.1212 24.4997C40.3906 24.5897 42.967 25.6446 44.9376 27.6152L46.3519 26.201C43.9705 23.8196 40.8829 22.6025 37.1763 22.5005L37.1212 24.4997ZM44.9429 27.6204C46.9081 29.5568 47.9088 32.0424 47.9088 35.1641H49.9088C49.9088 31.5658 48.7334 28.5474 46.3466 26.1958L44.9429 27.6204ZM47.9088 35.1641C47.9088 38.3421 46.8654 40.8915 44.8038 42.895L46.1977 44.3292C48.6801 41.9167 49.9088 38.8341 49.9088 35.1641H47.9088ZM44.8091 42.8899C42.7494 44.8625 40.0818 45.8761 36.7168 45.8761V47.8761C40.5197 47.8761 43.7081 46.7137 46.1924 44.3343L44.8091 42.8899ZM36.7168 45.8761C33.3517 45.8761 30.6841 44.8625 28.6244 42.8899L27.2411 44.3343C29.7254 46.7137 32.9138 47.8761 36.7168 47.8761V45.8761ZM28.6295 42.8948C26.605 40.9282 25.5728 38.3816 25.5728 35.1641H23.5728C23.5728 38.8586 24.7805 41.944 27.236 44.3294L28.6295 42.8948ZM25.5728 35.1641C25.5728 32.7844 26.1794 30.7264 27.3707 28.9539L25.7108 27.8383C24.2781 29.9698 23.5728 32.4238 23.5728 35.1641H25.5728ZM27.3744 28.9485L37.8384 13.1565L36.1711 12.0517L25.7071 27.8437L27.3744 28.9485ZM37.0047 13.6041H44.5888V11.6041H37.0047V13.6041ZM43.7629 12.0402L36.3229 22.9362L37.9746 24.064L45.4146 13.168L43.7629 12.0402ZM32.0481 39.8769C33.3095 41.0619 34.8912 41.6361 36.7168 41.6361V39.6361C35.3423 39.6361 34.268 39.2183 33.4174 38.4193L32.0481 39.8769ZM36.7168 41.6361C38.5423 41.6361 40.124 41.0619 41.3854 39.8769L40.0161 38.4193C39.1655 39.2183 38.0912 39.6361 36.7168 39.6361V41.6361ZM41.3745 39.8871C42.6985 38.6799 43.3327 37.0688 43.3327 35.1641H41.3327C41.3327 36.5874 40.879 37.6323 40.027 38.4091L41.3745 39.8871ZM43.3327 35.1641C43.3327 33.2848 42.6941 31.6923 41.3745 30.4891L40.027 31.9671C40.8834 32.7479 41.3327 33.7794 41.3327 35.1641H43.3327ZM41.3854 30.4993C40.124 29.3143 38.5423 28.7401 36.7168 28.7401V30.7401C38.0912 30.7401 39.1655 31.1579 40.0161 31.9569L41.3854 30.4993ZM36.7168 28.7401C34.8912 28.7401 33.3095 29.3143 32.0481 30.4993L33.4174 31.9569C34.268 31.1579 35.3423 30.7401 36.7168 30.7401V28.7401ZM32.0601 30.4882C30.7605 31.6696 30.1488 33.2696 30.1488 35.1641H32.1488C32.1488 33.7306 32.593 32.7066 33.4054 31.968L32.0601 30.4882ZM30.1488 35.1641C30.1488 37.0592 30.7603 38.6672 32.0481 39.8769L33.4174 38.4193C32.5932 37.645 32.1488 36.597 32.1488 35.1641H30.1488Z"/></g><path fill="#7237A1" d="M37.1488 23.5001C40.6368 23.5961 43.4688 24.7321 45.6448 26.9081C47.8208 29.0521 48.9088 31.8041 48.9088 35.1641C48.9088 38.5881 47.7728 41.4041 45.5008 43.6121C43.2288 45.7881 40.3008 46.8761 36.7168 46.8761C33.1328 46.8761 30.2048 45.7881 27.9328 43.6121C25.6928 41.4361 24.5728 38.6201 24.5728 35.1641C24.5728 32.6041 25.2288 30.3481 26.5408 28.3961L37.0048 12.6041H44.5888L37.1488 23.5001ZM32.7328 39.1481C33.7888 40.1401 35.1168 40.6361 36.7168 40.6361C38.3168 40.6361 39.6448 40.1401 40.7008 39.1481C41.7888 38.1561 42.3328 36.8281 42.3328 35.1641C42.3328 33.5321 41.7888 32.2201 40.7008 31.2281C39.6448 30.2361 38.3168 29.7401 36.7168 29.7401C35.1168 29.7401 33.7888 30.2361 32.7328 31.2281C31.6768 32.1881 31.1488 33.5001 31.1488 35.1641C31.1488 36.8281 31.6768 38.1561 32.7328 39.1481Z" opacity=".05"/><path fill="#7237A1" fill-opacity=".5" d="M37.1488 23.5001L36.3229 22.9362L35.2897 24.4493L37.1212 24.4997L37.1488 23.5001ZM45.6448 26.9081L44.9376 27.6152L44.9429 27.6204L45.6448 26.9081ZM45.5008 43.6121L46.1925 44.3343L46.1977 44.3292L45.5008 43.6121ZM27.9328 43.6121L27.2359 44.3294L27.2411 44.3343L27.9328 43.6121ZM26.5408 28.3961L27.3707 28.9539L27.3744 28.9485L26.5408 28.3961ZM37.0047 12.6041V11.6041H36.4678L36.1711 12.0517L37.0047 12.6041ZM44.5888 12.6041L45.4146 13.168L46.4825 11.6041H44.5888V12.6041ZM32.7327 39.1481L32.0481 39.8769H32.0481L32.7327 39.1481ZM40.7008 39.1481L40.027 38.4091L40.0215 38.4142L40.0161 38.4193L40.7008 39.1481ZM40.7008 31.2281L40.0161 31.9569L40.0215 31.962L40.027 31.9671L40.7008 31.2281ZM32.7327 31.2281L33.4054 31.968L33.4115 31.9625L33.4174 31.9569L32.7327 31.2281ZM37.1212 24.4997C40.3906 24.5897 42.967 25.6446 44.9376 27.6152L46.3519 26.201C43.9705 23.8196 40.8829 22.6025 37.1763 22.5005L37.1212 24.4997ZM44.9429 27.6204C46.9081 29.5568 47.9088 32.0424 47.9088 35.1641H49.9088C49.9088 31.5658 48.7334 28.5474 46.3466 26.1958L44.9429 27.6204ZM47.9088 35.1641C47.9088 38.3421 46.8654 40.8915 44.8038 42.895L46.1977 44.3292C48.6801 41.9167 49.9088 38.8341 49.9088 35.1641H47.9088ZM44.8091 42.8899C42.7494 44.8625 40.0818 45.8761 36.7168 45.8761V47.8761C40.5197 47.8761 43.7081 46.7137 46.1924 44.3343L44.8091 42.8899ZM36.7168 45.8761C33.3517 45.8761 30.6841 44.8625 28.6244 42.8899L27.2411 44.3343C29.7254 46.7137 32.9138 47.8761 36.7168 47.8761V45.8761ZM28.6295 42.8948C26.605 40.9282 25.5728 38.3816 25.5728 35.1641H23.5728C23.5728 38.8586 24.7805 41.944 27.236 44.3294L28.6295 42.8948ZM25.5728 35.1641C25.5728 32.7844 26.1794 30.7264 27.3707 28.9539L25.7108 27.8383C24.2781 29.9698 23.5728 32.4238 23.5728 35.1641H25.5728ZM27.3744 28.9485L37.8384 13.1565L36.1711 12.0517L25.7071 27.8437L27.3744 28.9485ZM37.0047 13.6041H44.5888V11.6041H37.0047V13.6041ZM43.7629 12.0402L36.3229 22.9362L37.9746 24.064L45.4146 13.168L43.7629 12.0402ZM32.0481 39.8769C33.3095 41.0619 34.8912 41.6361 36.7168 41.6361V39.6361C35.3423 39.6361 34.268 39.2183 33.4174 38.4193L32.0481 39.8769ZM36.7168 41.6361C38.5423 41.6361 40.124 41.0619 41.3854 39.8769L40.0161 38.4193C39.1655 39.2183 38.0912 39.6361 36.7168 39.6361V41.6361ZM41.3745 39.8871C42.6985 38.6799 43.3327 37.0688 43.3327 35.1641H41.3327C41.3327 36.5874 40.879 37.6323 40.027 38.4091L41.3745 39.8871ZM43.3327 35.1641C43.3327 33.2848 42.6941 31.6923 41.3745 30.4891L40.027 31.9671C40.8834 32.7479 41.3327 33.7794 41.3327 35.1641H43.3327ZM41.3854 30.4993C40.124 29.3143 38.5423 28.7401 36.7168 28.7401V30.7401C38.0912 30.7401 39.1655 31.1579 40.0161 31.9569L41.3854 30.4993ZM36.7168 28.7401C34.8912 28.7401 33.3095 29.3143 32.0481 30.4993L33.4174 31.9569C34.268 31.1579 35.3423 30.7401 36.7168 30.7401V28.7401ZM32.0601 30.4882C30.7605 31.6696 30.1488 33.2696 30.1488 35.1641H32.1488C32.1488 33.7306 32.593 32.7066 33.4054 31.968L32.0601 30.4882ZM30.1488 35.1641C30.1488 37.0592 30.7603 38.6672 32.0481 39.8769L33.4174 38.4193C32.5932 37.645 32.1488 36.597 32.1488 35.1641H30.1488Z" opacity=".5"/></symbol><symbol xmlns="http://www.w3.org/2000/svg" id="7" fill="none" viewBox="0 0 56 61"><g opacity=".15"><path fill="#7237A1" d="M27.0928 12.6041V11.6041H26.0928V12.6041H27.0928ZM48.7887 12.6041H49.7887V11.6041H48.7887V12.6041ZM48.7887 18.2201L49.7151 18.5967L49.7887 18.4156V18.2201H48.7887ZM37.4128 46.2041V47.2041H38.0857L38.3391 46.5807L37.4128 46.2041ZM30.4048 46.2041L29.4779 45.8288L28.9209 47.2041H30.4048V46.2041ZM41.4448 18.9401L42.3716 19.3154L42.9286 17.9401H41.4448V18.9401ZM27.0928 18.9401H26.0928V19.9401H27.0928V18.9401ZM27.0928 13.6041H48.7887V11.6041H27.0928V13.6041ZM47.7887 12.6041V18.2201H49.7887V12.6041H47.7887ZM47.8624 17.8435L36.4864 45.8275L38.3391 46.5807L49.7151 18.5967L47.8624 17.8435ZM37.4128 45.2041H30.4048V47.2041H37.4128V45.2041ZM31.3316 46.5794L42.3716 19.3154L40.5179 18.5648L29.4779 45.8288L31.3316 46.5794ZM41.4448 17.9401H27.0928V19.9401H41.4448V17.9401ZM28.0928 18.9401V12.6041H26.0928V18.9401H28.0928Z"/></g><path fill="#7237A1" d="M27.0928 12.6041H48.7888V18.2201L37.4128 46.2041H30.4048L41.4448 18.9401H27.0928V12.6041Z" opacity=".05"/><path fill="#7237A1" fill-opacity=".5" d="M27.0928 12.6041V11.6041H26.0928V12.6041H27.0928ZM48.7887 12.6041H49.7887V11.6041H48.7887V12.6041ZM48.7887 18.2201L49.7151 18.5967L49.7887 18.4156V18.2201H48.7887ZM37.4128 46.2041V47.2041H38.0857L38.3391 46.5807L37.4128 46.2041ZM30.4048 46.2041L29.4779 45.8288L28.9209 47.2041H30.4048V46.2041ZM41.4448 18.9401L42.3716 19.3154L42.9286 17.9401H41.4448V18.9401ZM27.0928 18.9401H26.0928V19.9401H27.0928V18.9401ZM27.0928 13.6041H48.7887V11.6041H27.0928V13.6041ZM47.7887 12.6041V18.2201H49.7887V12.6041H47.7887ZM47.8624 17.8435L36.4864 45.8275L38.3391 46.5807L49.7151 18.5967L47.8624 17.8435ZM37.4128 45.2041H30.4048V47.2041H37.4128V45.2041ZM31.3316 46.5794L42.3716 19.3154L40.5179 18.5648L29.4779 45.8288L31.3316 46.5794ZM41.4448 17.9401H27.0928V19.9401H41.4448V17.9401ZM28.0928 18.9401V12.6041H26.0928V18.9401H28.0928Z" opacity=".5"/></symbol><symbol xmlns="http://www.w3.org/2000/svg" id="8" fill="none" viewBox="0 0 56 61"><g opacity=".15"><path fill="#7237A1" d="M43.7428 28.7321L43.1626 27.9176L41.9165 28.8052L43.2296 29.5904L43.7428 28.7321ZM45.1348 44.1881L44.499 43.4161L44.4934 43.4208L45.1348 44.1881ZM27.5187 44.1881L26.8774 44.9554L27.5187 44.1881ZM28.9108 28.7321L29.4279 29.588L30.7181 28.8085L29.4983 27.9229L28.9108 28.7321ZM28.5268 14.5241L27.8935 13.7501L27.8877 13.7549L28.5268 14.5241ZM44.1268 14.5241L43.4877 15.2933V15.2933L44.1268 14.5241ZM33.2308 25.0361L32.5537 25.772L32.5618 25.7795L32.5701 25.7868L33.2308 25.0361ZM39.4707 25.0361L40.1314 25.7868L40.1397 25.7795L40.1478 25.772L39.4707 25.0361ZM32.3667 39.4361L31.7241 40.2023L31.7374 40.2134L31.7511 40.2241L32.3667 39.4361ZM40.2868 39.4361L40.9145 40.2145L40.9173 40.2122L40.2868 39.4361ZM40.2868 32.6201L39.6441 33.3863L39.6574 33.3974L39.6711 33.4081L40.2868 32.6201ZM32.3667 32.6201L32.9945 33.3985L32.9973 33.3962L32.3667 32.6201ZM43.2296 29.5904C46.0384 31.2699 47.3988 33.6517 47.3988 36.8441H49.3988C49.3988 32.9325 47.6551 29.9063 44.2559 27.8738L43.2296 29.5904ZM47.3988 36.8441C47.3988 39.6836 46.4192 41.8349 44.499 43.4162L45.7705 44.96C48.2023 42.9573 49.3988 40.2126 49.3988 36.8441H47.3988ZM44.4934 43.4208C42.581 45.0192 39.9059 45.8761 36.3507 45.8761V47.8761C40.2196 47.8761 43.4005 46.941 45.7761 44.9554L44.4934 43.4208ZM36.3507 45.8761C32.7611 45.8761 30.0711 45.0181 28.1601 43.4208L26.8774 44.9554C29.2544 46.9421 32.4524 47.8761 36.3507 47.8761V45.8761ZM28.1601 43.4208C26.2704 41.8414 25.3027 39.6889 25.3027 36.8441H23.3027C23.3027 40.2073 24.4791 42.9508 26.8774 44.9554L28.1601 43.4208ZM25.3027 36.8441C25.3027 33.6468 26.6517 31.2653 29.4279 29.588L28.3936 27.8762C25.0258 29.9109 23.3027 32.9374 23.3027 36.8441H25.3027ZM29.4983 27.9229C27.4274 26.4194 26.4067 24.4034 26.4067 21.7721H24.4067C24.4067 25.0288 25.7221 27.6528 28.3232 29.5413L29.4983 27.9229ZM26.4067 21.7721C26.4067 18.9162 27.3498 16.802 29.1658 15.2933L27.8877 13.7549C25.5437 15.7022 24.4067 18.42 24.4067 21.7721H26.4067ZM29.16 15.2981C31.069 13.7362 33.444 12.9321 36.3507 12.9321V10.9321C33.0494 10.9321 30.2085 11.856 27.8935 13.7501L29.16 15.2981ZM36.3507 12.9321C39.2578 12.9321 41.6134 13.7362 43.4877 15.2933L44.7658 13.7549C42.4801 11.856 39.6517 10.9321 36.3507 10.9321V12.9321ZM43.4877 15.2933C45.3037 16.802 46.2467 18.9162 46.2467 21.7721H48.2467C48.2467 18.42 47.1098 15.7022 44.7658 13.7549L43.4877 15.2933ZM46.2467 21.7721C46.2467 24.4391 45.2236 26.4495 43.1626 27.9176L44.3229 29.5466C46.9339 27.6867 48.2467 25.0571 48.2467 21.7721H46.2467ZM40.1314 18.4774C39.1136 17.5818 37.8226 17.1721 36.3507 17.1721V19.1721C37.4389 19.1721 38.2279 19.4664 38.8101 19.9788L40.1314 18.4774ZM36.3507 17.1721C34.8789 17.1721 33.5879 17.5818 32.5701 18.4774L33.8914 19.9788C34.4736 19.4664 35.2626 19.1721 36.3507 19.1721V17.1721ZM32.5701 18.4774C31.5228 19.3991 31.0308 20.6497 31.0308 22.1081H33.0308C33.0308 21.1345 33.3387 20.4651 33.8914 19.9788L32.5701 18.4774ZM31.0308 22.1081C31.0308 23.567 31.5223 24.8231 32.5537 25.772L33.9078 24.3002C33.3392 23.7771 33.0308 23.0812 33.0308 22.1081H31.0308ZM32.5701 25.7868C33.5879 26.6824 34.8789 27.0921 36.3507 27.0921V25.0921C35.2626 25.0921 34.4736 24.7978 33.8914 24.2854L32.5701 25.7868ZM36.3507 27.0921C37.8226 27.0921 39.1136 26.6824 40.1314 25.7868L38.8101 24.2854C38.2279 24.7978 37.4389 25.0921 36.3507 25.0921V27.0921ZM40.1478 25.772C41.1792 24.8231 41.6707 23.567 41.6707 22.1081H39.6707C39.6707 23.0812 39.3623 23.7771 38.7937 24.3002L40.1478 25.772ZM41.6707 22.1081C41.6707 20.6497 41.1787 19.3991 40.1314 18.4774L38.8101 19.9788C39.3628 20.4651 39.6707 21.1345 39.6707 22.1081H41.6707ZM31.7511 40.2241C32.9918 41.1934 34.5538 41.6361 36.3507 41.6361V39.6361C34.8837 39.6361 33.7897 39.2788 32.9824 38.6481L31.7511 40.2241ZM36.3507 41.6361C38.146 41.6361 39.6999 41.194 40.9145 40.2145L39.659 38.6577C38.8896 39.2782 37.8195 39.6361 36.3507 39.6361V41.6361ZM40.9173 40.2122C42.2041 39.1668 42.8228 37.7138 42.8228 35.9801H40.8228C40.8228 37.1904 40.4174 38.0414 39.6562 38.66L40.9173 40.2122ZM42.8228 35.9801C42.8228 34.2703 42.1975 32.8439 40.9024 31.8321L39.6711 33.4081C40.424 33.9963 40.8228 34.8099 40.8228 35.9801H42.8228ZM40.9294 31.8539C39.7144 30.8349 38.1549 30.3721 36.3507 30.3721V32.3721C37.8106 32.3721 38.8751 32.7413 39.6441 33.3863L40.9294 31.8539ZM36.3507 30.3721C34.5451 30.3721 32.9775 30.8354 31.7362 31.844L32.9973 33.3962C33.804 32.7408 34.8924 32.3721 36.3507 32.3721V30.3721ZM31.739 31.8417C30.4791 32.8578 29.8787 34.2821 29.8787 35.9801H31.8787C31.8787 34.7981 32.2704 33.9824 32.9945 33.3985L31.739 31.8417ZM29.8787 35.9801C29.8787 37.7024 30.473 39.153 31.7241 40.2023L33.0094 38.6699C32.2765 38.0553 31.8787 37.2018 31.8787 35.9801H29.8787Z"/></g><path fill="#7237A1" d="M43.7428 28.7321C46.8468 30.5881 48.3988 33.2921 48.3988 36.8441C48.3988 39.9481 47.3108 42.3961 45.1348 44.1881C42.9908 45.9801 40.0628 46.8761 36.3508 46.8761C32.6068 46.8761 29.6628 45.9801 27.5188 44.1881C25.3748 42.3961 24.3027 39.9481 24.3027 36.8441C24.3027 33.2921 25.8388 30.5881 28.9108 28.7321C26.5748 27.0361 25.4068 24.7161 25.4068 21.7721C25.4068 18.6681 26.4468 16.2521 28.5268 14.5241C30.6388 12.7961 33.2468 11.9321 36.3508 11.9321C39.4548 11.9321 42.0468 12.7961 44.1268 14.5241C46.2068 16.2521 47.2468 18.6681 47.2468 21.7721C47.2468 24.7481 46.0788 27.0681 43.7428 28.7321ZM39.4708 19.2281C38.6708 18.5241 37.6308 18.1721 36.3508 18.1721C35.0708 18.1721 34.0308 18.5241 33.2308 19.2281C32.4308 19.9321 32.0308 20.8921 32.0308 22.1081C32.0308 23.3241 32.4308 24.3001 33.2308 25.0361C34.0308 25.7401 35.0708 26.0921 36.3508 26.0921C37.6308 26.0921 38.6708 25.7401 39.4708 25.0361C40.2708 24.3001 40.6708 23.3241 40.6708 22.1081C40.6708 20.8921 40.2708 19.9321 39.4708 19.2281ZM32.3668 39.4361C33.3908 40.2361 34.7188 40.6361 36.3508 40.6361C37.9828 40.6361 39.2948 40.2361 40.2868 39.4361C41.3108 38.6041 41.8228 37.4521 41.8228 35.9801C41.8228 34.5401 41.3108 33.4201 40.2868 32.6201C39.2948 31.7881 37.9828 31.3721 36.3508 31.3721C34.7188 31.3721 33.3908 31.7881 32.3668 32.6201C31.3748 33.4201 30.8788 34.5401 30.8788 35.9801C30.8788 37.4521 31.3748 38.6041 32.3668 39.4361Z" opacity=".05"/><path fill="#7237A1" fill-opacity=".5" d="M43.7428 28.7321L43.1626 27.9176L41.9165 28.8052L43.2296 29.5904L43.7428 28.7321ZM45.1348 44.1881L44.499 43.4161L44.4934 43.4208L45.1348 44.1881ZM27.5187 44.1881L26.8774 44.9554L27.5187 44.1881ZM28.9108 28.7321L29.4279 29.588L30.7181 28.8085L29.4983 27.9229L28.9108 28.7321ZM28.5268 14.5241L27.8935 13.7501L27.8877 13.7549L28.5268 14.5241ZM44.1268 14.5241L43.4877 15.2933V15.2933L44.1268 14.5241ZM33.2308 25.0361L32.5537 25.772L32.5618 25.7795L32.5701 25.7868L33.2308 25.0361ZM39.4707 25.0361L40.1314 25.7868L40.1397 25.7795L40.1478 25.772L39.4707 25.0361ZM32.3667 39.4361L31.7241 40.2023L31.7374 40.2134L31.7511 40.2241L32.3667 39.4361ZM40.2868 39.4361L40.9145 40.2145L40.9173 40.2122L40.2868 39.4361ZM40.2868 32.6201L39.6441 33.3863L39.6574 33.3974L39.6711 33.4081L40.2868 32.6201ZM32.3667 32.6201L32.9945 33.3985L32.9973 33.3962L32.3667 32.6201ZM43.2296 29.5904C46.0384 31.2699 47.3988 33.6517 47.3988 36.8441H49.3988C49.3988 32.9325 47.6551 29.9063 44.2559 27.8738L43.2296 29.5904ZM47.3988 36.8441C47.3988 39.6836 46.4192 41.8349 44.499 43.4162L45.7705 44.96C48.2023 42.9573 49.3988 40.2126 49.3988 36.8441H47.3988ZM44.4934 43.4208C42.581 45.0192 39.9059 45.8761 36.3507 45.8761V47.8761C40.2196 47.8761 43.4005 46.941 45.7761 44.9554L44.4934 43.4208ZM36.3507 45.8761C32.7611 45.8761 30.0711 45.0181 28.1601 43.4208L26.8774 44.9554C29.2544 46.9421 32.4524 47.8761 36.3507 47.8761V45.8761ZM28.1601 43.4208C26.2704 41.8414 25.3027 39.6889 25.3027 36.8441H23.3027C23.3027 40.2073 24.4791 42.9508 26.8774 44.9554L28.1601 43.4208ZM25.3027 36.8441C25.3027 33.6468 26.6517 31.2653 29.4279 29.588L28.3936 27.8762C25.0258 29.9109 23.3027 32.9374 23.3027 36.8441H25.3027ZM29.4983 27.9229C27.4274 26.4194 26.4067 24.4034 26.4067 21.7721H24.4067C24.4067 25.0288 25.7221 27.6528 28.3232 29.5413L29.4983 27.9229ZM26.4067 21.7721C26.4067 18.9162 27.3498 16.802 29.1658 15.2933L27.8877 13.7549C25.5437 15.7022 24.4067 18.42 24.4067 21.7721H26.4067ZM29.16 15.2981C31.069 13.7362 33.444 12.9321 36.3507 12.9321V10.9321C33.0494 10.9321 30.2085 11.856 27.8935 13.7501L29.16 15.2981ZM36.3507 12.9321C39.2578 12.9321 41.6134 13.7362 43.4877 15.2933L44.7658 13.7549C42.4801 11.856 39.6517 10.9321 36.3507 10.9321V12.9321ZM43.4877 15.2933C45.3037 16.802 46.2467 18.9162 46.2467 21.7721H48.2467C48.2467 18.42 47.1098 15.7022 44.7658 13.7549L43.4877 15.2933ZM46.2467 21.7721C46.2467 24.4391 45.2236 26.4495 43.1626 27.9176L44.3229 29.5466C46.9339 27.6867 48.2467 25.0571 48.2467 21.7721H46.2467ZM40.1314 18.4774C39.1136 17.5818 37.8226 17.1721 36.3507 17.1721V19.1721C37.4389 19.1721 38.2279 19.4664 38.8101 19.9788L40.1314 18.4774ZM36.3507 17.1721C34.8789 17.1721 33.5879 17.5818 32.5701 18.4774L33.8914 19.9788C34.4736 19.4664 35.2626 19.1721 36.3507 19.1721V17.1721ZM32.5701 18.4774C31.5228 19.3991 31.0308 20.6497 31.0308 22.1081H33.0308C33.0308 21.1345 33.3387 20.4651 33.8914 19.9788L32.5701 18.4774ZM31.0308 22.1081C31.0308 23.567 31.5223 24.8231 32.5537 25.772L33.9078 24.3002C33.3392 23.7771 33.0308 23.0812 33.0308 22.1081H31.0308ZM32.5701 25.7868C33.5879 26.6824 34.8789 27.0921 36.3507 27.0921V25.0921C35.2626 25.0921 34.4736 24.7978 33.8914 24.2854L32.5701 25.7868ZM36.3507 27.0921C37.8226 27.0921 39.1136 26.6824 40.1314 25.7868L38.8101 24.2854C38.2279 24.7978 37.4389 25.0921 36.3507 25.0921V27.0921ZM40.1478 25.772C41.1792 24.8231 41.6707 23.567 41.6707 22.1081H39.6707C39.6707 23.0812 39.3623 23.7771 38.7937 24.3002L40.1478 25.772ZM41.6707 22.1081C41.6707 20.6497 41.1787 19.3991 40.1314 18.4774L38.8101 19.9788C39.3628 20.4651 39.6707 21.1345 39.6707 22.1081H41.6707ZM31.7511 40.2241C32.9918 41.1934 34.5538 41.6361 36.3507 41.6361V39.6361C34.8837 39.6361 33.7897 39.2788 32.9824 38.6481L31.7511 40.2241ZM36.3507 41.6361C38.146 41.6361 39.6999 41.194 40.9145 40.2145L39.659 38.6577C38.8896 39.2782 37.8195 39.6361 36.3507 39.6361V41.6361ZM40.9173 40.2122C42.2041 39.1668 42.8228 37.7138 42.8228 35.9801H40.8228C40.8228 37.1904 40.4174 38.0414 39.6562 38.66L40.9173 40.2122ZM42.8228 35.9801C42.8228 34.2703 42.1975 32.8439 40.9024 31.8321L39.6711 33.4081C40.424 33.9963 40.8228 34.8099 40.8228 35.9801H42.8228ZM40.9294 31.8539C39.7144 30.8349 38.1549 30.3721 36.3507 30.3721V32.3721C37.8106 32.3721 38.8751 32.7413 39.6441 33.3863L40.9294 31.8539ZM36.3507 30.3721C34.5451 30.3721 32.9775 30.8354 31.7362 31.844L32.9973 33.3962C33.804 32.7408 34.8924 32.3721 36.3507 32.3721V30.3721ZM31.739 31.8417C30.4791 32.8578 29.8787 34.2821 29.8787 35.9801H31.8787C31.8787 34.7981 32.2704 33.9824 32.9945 33.3985L31.739 31.8417ZM29.8787 35.9801C29.8787 37.7024 30.473 39.153 31.7241 40.2023L33.0094 38.6699C32.2765 38.0553 31.8787 37.2018 31.8787 35.9801H29.8787Z" opacity=".5"/></symbol><symbol xmlns="http://www.w3.org/2000/svg" id="9" fill="none" viewBox="0 0 56 61"><g opacity=".15"><path fill="#7237A1" d="M46.8928 30.4121L46.0691 29.845L44.9901 31.4121H46.8928V30.4121ZM46.9408 30.4121L47.7744 30.9645L48.803 29.4121H46.9408V30.4121ZM36.4768 46.2041V47.2041H37.0137L37.3104 46.7565L36.4768 46.2041ZM28.8927 46.2041L28.0674 45.6394L26.9969 47.2041H28.8927V46.2041ZM36.3808 35.2601L37.2061 35.8248L38.2532 34.2943L36.3991 34.2603L36.3808 35.2601ZM27.8368 31.9481L27.1296 32.6552L27.1348 32.6604L27.1401 32.6655L27.8368 31.9481ZM27.9328 15.1961L27.241 14.4739L27.236 14.4788L27.9328 15.1961ZM45.5008 15.1961L44.804 15.9134L44.8092 15.9184L44.8144 15.9234L45.5008 15.1961ZM32.7327 27.5801L32.0481 28.3089L32.0535 28.314L32.059 28.3191L32.7327 27.5801ZM40.7487 27.5801L41.4334 28.3089L40.7487 27.5801ZM40.7487 19.6601L40.0641 20.3889L40.07 20.3945L40.0761 20.4L40.7487 19.6601ZM32.7327 19.6601L32.059 18.9211L32.0535 18.9262L32.0481 18.9313L32.7327 19.6601ZM47.9088 23.5961C47.9088 26.0054 47.2875 28.0755 46.0691 29.845L47.7164 30.9792C49.186 28.8447 49.9088 26.3708 49.9088 23.5961H47.9088ZM46.8928 31.4121H46.9408V29.4121H46.8928V31.4121ZM46.1071 29.8597L35.6431 45.6517L37.3104 46.7565L47.7744 30.9645L46.1071 29.8597ZM36.4768 45.2041H28.8927V47.2041H36.4768V45.2041ZM29.7181 46.7688L37.2061 35.8248L35.5554 34.6954L28.0674 45.6394L29.7181 46.7688ZM36.3991 34.2603C33.1283 34.2003 30.5347 33.174 28.5334 31.2307L27.1401 32.6655C29.5548 35.0102 32.6572 36.1919 36.3624 36.2599L36.3991 34.2603ZM28.5439 31.241C26.5754 29.2726 25.5728 26.7527 25.5728 23.5961H23.5728C23.5728 27.2235 24.746 30.2716 27.1296 32.6552L28.5439 31.241ZM25.5728 23.5961C25.5728 20.4136 26.6031 17.8819 28.6295 15.9134L27.236 14.4788C24.7824 16.8623 23.5728 19.9306 23.5728 23.5961H25.5728ZM28.6244 15.9183C30.6841 13.9457 33.3517 12.9321 36.7168 12.9321V10.9321C32.9138 10.9321 29.7254 12.0945 27.2411 14.4739L28.6244 15.9183ZM36.7168 12.9321C40.1168 12.9321 42.7801 13.9473 44.804 15.9134L46.1975 14.4788C43.7414 12.0929 40.5487 10.9321 36.7168 10.9321V12.9321ZM44.8144 15.9234C46.8638 17.8573 47.9088 20.383 47.9088 23.5961H49.9088C49.9088 19.8972 48.6817 16.8229 46.1871 14.4688L44.8144 15.9234ZM30.1488 23.5961C30.1488 25.4912 30.7603 27.0992 32.0481 28.3089L33.4174 26.8513C32.5932 26.077 32.1488 25.029 32.1488 23.5961H30.1488ZM32.059 28.3191C33.3439 29.4906 34.9172 30.0681 36.7168 30.0681V28.0681C35.3803 28.0681 34.2976 27.6536 33.4065 26.8411L32.059 28.3191ZM36.7168 30.0681C38.5684 30.0681 40.1681 29.4976 41.4334 28.3089L40.0641 26.8513C39.2174 27.6466 38.1291 28.0681 36.7168 28.0681V30.0681ZM41.4334 28.3089C42.7212 27.0992 43.3327 25.4912 43.3327 23.5961H41.3327C41.3327 25.029 40.8883 26.077 40.0641 26.8513L41.4334 28.3089ZM43.3327 23.5961C43.3327 21.7016 42.721 20.1016 41.4214 18.9202L40.0761 20.4C40.8885 21.1386 41.3327 22.1626 41.3327 23.5961H43.3327ZM41.4334 18.9313C40.1681 17.7426 38.5684 17.1721 36.7168 17.1721V19.1721C38.1291 19.1721 39.2174 19.5936 40.0641 20.3889L41.4334 18.9313ZM36.7168 17.1721C34.9172 17.1721 33.3439 17.7496 32.059 18.9211L33.4065 20.3991C34.2976 19.5866 35.3803 19.1721 36.7168 19.1721V17.1721ZM32.0481 18.9313C30.7645 20.1371 30.1488 21.7265 30.1488 23.5961H32.1488C32.1488 22.2017 32.589 21.1671 33.4174 20.3889L32.0481 18.9313Z"/></g><path fill="#7237A1" d="M48.9088 23.5961C48.9088 26.1881 48.2368 28.4601 46.8928 30.4121H46.9408L36.4768 46.2041H28.8928L36.3808 35.2601C32.8928 35.1961 30.0448 34.0921 27.8368 31.9481C25.6608 29.7721 24.5728 26.9881 24.5728 23.5961C24.5728 20.1721 25.6928 17.3721 27.9328 15.1961C30.2048 13.0201 33.1328 11.9321 36.7168 11.9321C40.3328 11.9321 43.2608 13.0201 45.5008 15.1961C47.7728 17.3401 48.9088 20.1401 48.9088 23.5961ZM31.1488 23.5961C31.1488 25.2601 31.6768 26.5881 32.7328 27.5801C33.8208 28.5721 35.1488 29.0681 36.7168 29.0681C38.3488 29.0681 39.6928 28.5721 40.7488 27.5801C41.8048 26.5881 42.3328 25.2601 42.3328 23.5961C42.3328 21.9321 41.8048 20.6201 40.7488 19.6601C39.6928 18.6681 38.3488 18.1721 36.7168 18.1721C35.1488 18.1721 33.8208 18.6681 32.7328 19.6601C31.6768 20.6521 31.1488 21.9641 31.1488 23.5961Z" opacity=".05"/><path fill="#7237A1" fill-opacity=".5" d="M46.8928 30.4121L46.0691 29.845L44.9901 31.4121H46.8928V30.4121ZM46.9408 30.4121L47.7744 30.9645L48.803 29.4121H46.9408V30.4121ZM36.4768 46.2041V47.2041H37.0137L37.3104 46.7565L36.4768 46.2041ZM28.8927 46.2041L28.0674 45.6394L26.9969 47.2041H28.8927V46.2041ZM36.3808 35.2601L37.2061 35.8248L38.2532 34.2943L36.3991 34.2603L36.3808 35.2601ZM27.8368 31.9481L27.1296 32.6552L27.1348 32.6604L27.1401 32.6655L27.8368 31.9481ZM27.9328 15.1961L27.241 14.4739L27.236 14.4788L27.9328 15.1961ZM45.5008 15.1961L44.804 15.9134L44.8092 15.9184L44.8144 15.9234L45.5008 15.1961ZM32.7327 27.5801L32.0481 28.3089L32.0535 28.314L32.059 28.3191L32.7327 27.5801ZM40.7487 27.5801L41.4334 28.3089L40.7487 27.5801ZM40.7487 19.6601L40.0641 20.3889L40.07 20.3945L40.0761 20.4L40.7487 19.6601ZM32.7327 19.6601L32.059 18.9211L32.0535 18.9262L32.0481 18.9313L32.7327 19.6601ZM47.9088 23.5961C47.9088 26.0054 47.2875 28.0755 46.0691 29.845L47.7164 30.9792C49.186 28.8447 49.9088 26.3708 49.9088 23.5961H47.9088ZM46.8928 31.4121H46.9408V29.4121H46.8928V31.4121ZM46.1071 29.8597L35.6431 45.6517L37.3104 46.7565L47.7744 30.9645L46.1071 29.8597ZM36.4768 45.2041H28.8927V47.2041H36.4768V45.2041ZM29.7181 46.7688L37.2061 35.8248L35.5554 34.6954L28.0674 45.6394L29.7181 46.7688ZM36.3991 34.2603C33.1283 34.2003 30.5347 33.174 28.5334 31.2307L27.1401 32.6655C29.5548 35.0102 32.6572 36.1919 36.3624 36.2599L36.3991 34.2603ZM28.5439 31.241C26.5754 29.2726 25.5728 26.7527 25.5728 23.5961H23.5728C23.5728 27.2235 24.746 30.2716 27.1296 32.6552L28.5439 31.241ZM25.5728 23.5961C25.5728 20.4136 26.6031 17.8819 28.6295 15.9134L27.236 14.4788C24.7824 16.8623 23.5728 19.9306 23.5728 23.5961H25.5728ZM28.6244 15.9183C30.6841 13.9457 33.3517 12.9321 36.7168 12.9321V10.9321C32.9138 10.9321 29.7254 12.0945 27.2411 14.4739L28.6244 15.9183ZM36.7168 12.9321C40.1168 12.9321 42.7801 13.9473 44.804 15.9134L46.1975 14.4788C43.7414 12.0929 40.5487 10.9321 36.7168 10.9321V12.9321ZM44.8144 15.9234C46.8638 17.8573 47.9088 20.383 47.9088 23.5961H49.9088C49.9088 19.8972 48.6817 16.8229 46.1871 14.4688L44.8144 15.9234ZM30.1488 23.5961C30.1488 25.4912 30.7603 27.0992 32.0481 28.3089L33.4174 26.8513C32.5932 26.077 32.1488 25.029 32.1488 23.5961H30.1488ZM32.059 28.3191C33.3439 29.4906 34.9172 30.0681 36.7168 30.0681V28.0681C35.3803 28.0681 34.2976 27.6536 33.4065 26.8411L32.059 28.3191ZM36.7168 30.0681C38.5684 30.0681 40.1681 29.4976 41.4334 28.3089L40.0641 26.8513C39.2174 27.6466 38.1291 28.0681 36.7168 28.0681V30.0681ZM41.4334 28.3089C42.7212 27.0992 43.3327 25.4912 43.3327 23.5961H41.3327C41.3327 25.029 40.8883 26.077 40.0641 26.8513L41.4334 28.3089ZM43.3327 23.5961C43.3327 21.7016 42.721 20.1016 41.4214 18.9202L40.0761 20.4C40.8885 21.1386 41.3327 22.1626 41.3327 23.5961H43.3327ZM41.4334 18.9313C40.1681 17.7426 38.5684 17.1721 36.7168 17.1721V19.1721C38.1291 19.1721 39.2174 19.5936 40.0641 20.3889L41.4334 18.9313ZM36.7168 17.1721C34.9172 17.1721 33.3439 17.7496 32.059 18.9211L33.4065 20.3991C34.2976 19.5866 35.3803 19.1721 36.7168 19.1721V17.1721ZM32.0481 18.9313C30.7645 20.1371 30.1488 21.7265 30.1488 23.5961H32.1488C32.1488 22.2017 32.589 21.1671 33.4174 20.3889L32.0481 18.9313Z" opacity=".5"/></symbol><symbol xmlns="http://www.w3.org/2000/svg" id="10" fill="none" viewBox="0 0 62 61"><g opacity=".15"><path fill="#7237A1" d="M16.5631 12.6041V11.6041H16.3917L16.23 11.6612L16.5631 12.6041ZM22.3231 12.6041H23.3231V11.6041H22.3231V12.6041ZM22.3231 46.2041V47.2041H23.3231V46.2041H22.3231ZM15.6991 46.2041H14.6991V47.2041H15.6991V46.2041ZM15.6991 19.6121H16.6991V18.2933L15.4292 18.6492L15.6991 19.6121ZM9.36313 21.3881L8.40222 21.665L8.67709 22.6189L9.63303 22.351L9.36313 21.3881ZM7.73112 15.7241L7.39804 14.7812L6.50923 15.0952L6.77022 16.001L7.73112 15.7241ZM16.5631 13.6041H22.3231V11.6041H16.5631V13.6041ZM21.3231 12.6041V46.2041H23.3231V12.6041H21.3231ZM22.3231 45.2041H15.6991V47.2041H22.3231V45.2041ZM16.6991 46.2041V19.6121H14.6991V46.2041H16.6991ZM15.4292 18.6492L9.09322 20.4252L9.63303 22.351L15.969 20.575L15.4292 18.6492ZM10.324 21.1112L8.69203 15.4472L6.77022 16.001L8.40222 21.665L10.324 21.1112ZM8.06421 16.667L16.8962 13.547L16.23 11.6612L7.39804 14.7812L8.06421 16.667ZM30.9976 42.1241L30.1937 42.719L30.2005 42.728L30.9976 42.1241ZM30.9976 16.7321L30.1976 16.1321L30.1967 16.1334L30.9976 16.7321ZM50.7736 16.7321L49.9698 17.327L49.9727 17.3308L50.7736 16.7321ZM50.7736 42.1241L51.5746 42.7228L51.5775 42.7189L50.7736 42.1241ZM35.7976 37.6121L34.944 38.133L34.948 38.1395L35.7976 37.6121ZM45.9736 37.5641L45.1264 37.0328L45.12 37.0432L45.9736 37.5641ZM45.9736 21.1961L45.1199 21.717L45.1264 21.7274L45.9736 21.1961ZM40.8856 45.8761C36.9867 45.8761 33.9939 44.4232 31.7947 41.5202L30.2005 42.728C32.8013 46.161 36.4005 47.8761 40.8856 47.8761V45.8761ZM31.8015 41.5293C29.5968 38.5499 28.4456 34.5394 28.4456 29.4041H26.4456C26.4456 34.8288 27.6625 39.2983 30.1938 42.7189L31.8015 41.5293ZM28.4456 29.4041C28.4456 24.2682 29.597 20.2762 31.7986 17.3308L30.1967 16.1334C27.6622 19.524 26.4456 23.98 26.4456 29.4041H28.4456ZM31.7976 17.3321C33.9984 14.3977 36.9907 12.9321 40.8856 12.9321V10.9321C36.3965 10.9321 32.7968 12.6665 30.1976 16.1321L31.7976 17.3321ZM40.8856 12.9321C44.8152 12.9321 47.8034 14.3994 49.9698 17.3269L51.5775 16.1373C49.0078 12.6648 45.404 10.9321 40.8856 10.9321V12.9321ZM49.9727 17.3308C52.1742 20.2762 53.3256 24.2682 53.3256 29.4041H55.3256C55.3256 23.98 54.109 19.524 51.5746 16.1334L49.9727 17.3308ZM53.3256 29.4041C53.3256 34.5394 52.1745 38.5499 49.9698 41.5293L51.5775 42.7189C54.1088 39.2983 55.3256 34.8288 55.3256 29.4041H53.3256ZM49.9727 41.5254C47.8079 44.4215 44.8193 45.8761 40.8856 45.8761V47.8761C45.4 47.8761 49.0034 46.1627 51.5746 42.7228L49.9727 41.5254ZM34.948 38.1395C36.288 40.2983 38.3105 41.3961 40.8856 41.3961V39.3961C38.9808 39.3961 37.6113 38.6379 36.6473 37.0847L34.948 38.1395ZM40.8856 41.3961C43.4688 41.3961 45.4909 40.2752 46.8273 38.085L45.12 37.0432C44.1524 38.629 42.7825 39.3961 40.8856 39.3961V41.3961ZM46.8208 38.0954C48.1476 35.9798 48.7496 33.0424 48.7496 29.4041H46.7496C46.7496 32.8698 46.1677 35.3724 45.1264 37.0328L46.8208 38.0954ZM48.7496 29.4041C48.7496 25.7358 48.1483 22.7815 46.8208 20.6648L45.1264 21.7274C46.167 23.3867 46.7496 25.9044 46.7496 29.4041H48.7496ZM46.8273 20.6752C45.4909 18.485 43.4688 17.3641 40.8856 17.3641V19.3641C42.7825 19.3641 44.1524 20.1312 45.12 21.717L46.8273 20.6752ZM40.8856 17.3641C38.3025 17.3641 36.2804 18.485 34.944 20.6752L36.6513 21.717C37.6189 20.1312 38.9888 19.3641 40.8856 19.3641V17.3641ZM34.944 20.6752C33.654 22.7893 33.0696 25.7391 33.0696 29.4041H35.0696C35.0696 25.9011 35.6372 23.3789 36.6513 21.717L34.944 20.6752ZM33.0696 29.4041C33.0696 33.0691 33.654 36.0189 34.944 38.133L36.6513 37.0912C35.6372 35.4293 35.0696 32.9071 35.0696 29.4041H33.0696Z"/></g><path fill="#7237A1" d="M16.5631 12.6041H22.3231V46.2041H15.6991V19.6121L9.36313 21.3881L7.73113 15.7241L16.5631 12.6041ZM40.8856 46.8761C36.6936 46.8761 33.3976 45.2921 30.9976 42.1241C28.6296 38.9241 27.4456 34.6841 27.4456 29.4041C27.4456 24.1241 28.6296 19.9001 30.9976 16.7321C33.3976 13.5321 36.6936 11.9321 40.8856 11.9321C45.1096 11.9321 48.4056 13.5321 50.7736 16.7321C53.1416 19.9001 54.3256 24.1241 54.3256 29.4041C54.3256 34.6841 53.1416 38.9241 50.7736 42.1241C48.4056 45.2921 45.1096 46.8761 40.8856 46.8761ZM35.7976 37.6121C36.9496 39.4681 38.6456 40.3961 40.8856 40.3961C43.1256 40.3961 44.8216 39.4521 45.9736 37.5641C47.1576 35.6761 47.7496 32.9561 47.7496 29.4041C47.7496 25.8201 47.1576 23.0841 45.9736 21.1961C44.8216 19.3081 43.1256 18.3641 40.8856 18.3641C38.6456 18.3641 36.9496 19.3081 35.7976 21.1961C34.6456 23.0841 34.0696 25.8201 34.0696 29.4041C34.0696 32.9881 34.6456 35.7241 35.7976 37.6121Z" opacity=".05"/><path fill="#7237A1" fill-opacity=".5" d="M16.5631 12.6041V11.6041H16.3917L16.23 11.6612L16.5631 12.6041ZM22.3231 12.6041H23.3231V11.6041H22.3231V12.6041ZM22.3231 46.2041V47.2041H23.3231V46.2041H22.3231ZM15.6991 46.2041H14.6991V47.2041H15.6991V46.2041ZM15.6991 19.6121H16.6991V18.2933L15.4292 18.6492L15.6991 19.6121ZM9.36313 21.3881L8.40222 21.665L8.67709 22.6189L9.63303 22.351L9.36313 21.3881ZM7.73112 15.7241L7.39804 14.7812L6.50923 15.0952L6.77022 16.001L7.73112 15.7241ZM16.5631 13.6041H22.3231V11.6041H16.5631V13.6041ZM21.3231 12.6041V46.2041H23.3231V12.6041H21.3231ZM22.3231 45.2041H15.6991V47.2041H22.3231V45.2041ZM16.6991 46.2041V19.6121H14.6991V46.2041H16.6991ZM15.4292 18.6492L9.09322 20.4252L9.63303 22.351L15.969 20.575L15.4292 18.6492ZM10.324 21.1112L8.69203 15.4472L6.77022 16.001L8.40222 21.665L10.324 21.1112ZM8.06421 16.667L16.8962 13.547L16.23 11.6612L7.39804 14.7812L8.06421 16.667ZM30.9976 42.1241L30.1937 42.719L30.2005 42.728L30.9976 42.1241ZM30.9976 16.7321L30.1976 16.1321L30.1967 16.1334L30.9976 16.7321ZM50.7736 16.7321L49.9698 17.327L49.9727 17.3308L50.7736 16.7321ZM50.7736 42.1241L51.5746 42.7228L51.5775 42.7189L50.7736 42.1241ZM35.7976 37.6121L34.944 38.133L34.948 38.1395L35.7976 37.6121ZM45.9736 37.5641L45.1264 37.0328L45.12 37.0432L45.9736 37.5641ZM45.9736 21.1961L45.1199 21.717L45.1264 21.7274L45.9736 21.1961ZM40.8856 45.8761C36.9867 45.8761 33.9939 44.4232 31.7947 41.5202L30.2005 42.728C32.8013 46.161 36.4005 47.8761 40.8856 47.8761V45.8761ZM31.8015 41.5293C29.5968 38.5499 28.4456 34.5394 28.4456 29.4041H26.4456C26.4456 34.8288 27.6625 39.2983 30.1938 42.7189L31.8015 41.5293ZM28.4456 29.4041C28.4456 24.2682 29.597 20.2762 31.7986 17.3308L30.1967 16.1334C27.6622 19.524 26.4456 23.98 26.4456 29.4041H28.4456ZM31.7976 17.3321C33.9984 14.3977 36.9907 12.9321 40.8856 12.9321V10.9321C36.3965 10.9321 32.7968 12.6665 30.1976 16.1321L31.7976 17.3321ZM40.8856 12.9321C44.8152 12.9321 47.8034 14.3994 49.9698 17.3269L51.5775 16.1373C49.0078 12.6648 45.404 10.9321 40.8856 10.9321V12.9321ZM49.9727 17.3308C52.1742 20.2762 53.3256 24.2682 53.3256 29.4041H55.3256C55.3256 23.98 54.109 19.524 51.5746 16.1334L49.9727 17.3308ZM53.3256 29.4041C53.3256 34.5394 52.1745 38.5499 49.9698 41.5293L51.5775 42.7189C54.1088 39.2983 55.3256 34.8288 55.3256 29.4041H53.3256ZM49.9727 41.5254C47.8079 44.4215 44.8193 45.8761 40.8856 45.8761V47.8761C45.4 47.8761 49.0034 46.1627 51.5746 42.7228L49.9727 41.5254ZM34.948 38.1395C36.288 40.2983 38.3105 41.3961 40.8856 41.3961V39.3961C38.9808 39.3961 37.6113 38.6379 36.6473 37.0847L34.948 38.1395ZM40.8856 41.3961C43.4688 41.3961 45.4909 40.2752 46.8273 38.085L45.12 37.0432C44.1524 38.629 42.7825 39.3961 40.8856 39.3961V41.3961ZM46.8208 38.0954C48.1476 35.9798 48.7496 33.0424 48.7496 29.4041H46.7496C46.7496 32.8698 46.1677 35.3724 45.1264 37.0328L46.8208 38.0954ZM48.7496 29.4041C48.7496 25.7358 48.1483 22.7815 46.8208 20.6648L45.1264 21.7274C46.167 23.3867 46.7496 25.9044 46.7496 29.4041H48.7496ZM46.8273 20.6752C45.4909 18.485 43.4688 17.3641 40.8856 17.3641V19.3641C42.7825 19.3641 44.1524 20.1312 45.12 21.717L46.8273 20.6752ZM40.8856 17.3641C38.3025 17.3641 36.2804 18.485 34.944 20.6752L36.6513 21.717C37.6189 20.1312 38.9888 19.3641 40.8856 19.3641V17.3641ZM34.944 20.6752C33.654 22.7893 33.0696 25.7391 33.0696 29.4041H35.0696C35.0696 25.9011 35.6372 23.3789 36.6513 21.717L34.944 20.6752ZM33.0696 29.4041C33.0696 33.0691 33.654 36.0189 34.944 38.133L36.6513 37.0912C35.6372 35.4293 35.0696 32.9071 35.0696 29.4041H33.0696Z" opacity=".5"/></symbol><symbol xmlns="http://www.w3.org/2000/svg" id="scroll_just_pointer" fill="none" viewBox="0 0 24 25"><path fill="#333" d="M12.0112 20.3886L7.80322 15.9402L9.16534 14.6517L12.0075 17.6563L14.8328 14.6536L16.1984 15.9384L12.0112 20.3886ZM12 4.02246C11.4822 4.02246 11.0625 4.44214 11.0625 4.95996C11.0625 5.47778 11.4822 5.89746 12 5.89746C12.5178 5.89746 12.9375 5.47778 12.9375 4.95996C12.9375 4.44214 12.5178 4.02246 12 4.02246ZM12 7.77246C11.4822 7.77246 11.0625 8.19214 11.0625 8.70996C11.0625 9.22778 11.4822 9.64746 12 9.64746C12.5178 9.64746 12.9375 9.22778 12.9375 8.70996C12.9375 8.19214 12.5178 7.77246 12 7.77246ZM12 11.5225C11.4822 11.5225 11.0625 11.9421 11.0625 12.46C11.0625 12.9778 11.4822 13.3975 12 13.3975C12.5178 13.3975 12.9375 12.9778 12.9375 12.46C12.9375 11.9421 12.5178 11.5225 12 11.5225Z"/></symbol></svg>